<svg width="22" height="24" viewBox="0 0 22 24" fill="none" xmlns="http://www.w3.org/2000/svg">
<path d="M20.75 10.7871L20.75 10.0371L19.25 10.0371L19.25 10.7871L20.75 10.7871ZM19.25 15.4958C19.25 15.91 19.5858 16.2458 20 16.2458C20.4142 16.2458 20.75 15.91 20.75 15.4958L19.25 15.4958ZM19.25 10.7871L19.25 15.4958L20.75 15.4958L20.75 10.7871L19.25 10.7871Z" fill="#FF9228"/>
<path d="M5 11.7289V18.5758V18.5758C8.4878 21.4385 13.5122 21.4385 17 18.5758V18.5758V11.7289" stroke="#FF9228" stroke-width="1.5"/>
<path d="M13.4585 7.06918L20.3066 10.363L13.4585 13.6568C11.9144 14.3995 10.0856 14.3995 8.54148 13.6568L1.69342 10.363L8.54148 7.06918C10.0856 6.32648 11.9144 6.32648 13.4585 7.06918Z" stroke="#FF9228" stroke-width="1.5"/>
</svg>
