<svg width="20" height="21" viewBox="0 0 20 21" fill="none" xmlns="http://www.w3.org/2000/svg">
<rect x="0.75" y="1.75" width="9.5" height="9.5" rx="2.25" stroke="#FF9228" stroke-width="1.5"/>
<path d="M2 14V14C2 16.7614 4.23858 19 7 19V19" stroke="#FF9228" stroke-width="1.5" stroke-linecap="round"/>
<path d="M13 3V3C15.7614 3 18 5.23858 18 8V8" stroke="#FF9228" stroke-width="1.5" stroke-linecap="round"/>
<rect x="9.75" y="10.75" width="9.5" height="9.5" rx="2.25" stroke="#FF9228" stroke-width="1.5"/>
<path d="M13.2997 16.4005C13.406 16.6075 13.523 16.8062 13.65 16.9952C13.2473 17.2587 12.7898 17.3907 12.2778 17.3911V18.7389C13.116 18.7389 13.8649 18.469 14.5 17.9461C15.1351 18.469 15.884 18.7389 16.7222 18.7389V17.3911C16.2112 17.3911 15.7538 17.2591 15.35 16.9949C15.477 16.806 15.594 16.6075 15.7003 16.4005C16.0205 15.769 16.256 15.0798 16.398 14.3586H17V13.0108H15.0556V12H13.9444V13.0108H12V14.3586H12.602C12.744 15.0798 12.9795 15.769 13.2997 16.4005V16.4005ZM15.2476 14.3586C15.1326 14.8251 14.968 15.2713 14.758 15.6862C14.6795 15.8391 14.5933 15.9861 14.5 16.1262C14.4134 15.9964 14.3331 15.8607 14.2594 15.7198C14.0408 15.2957 13.8702 14.8379 13.7523 14.3586H15.2476Z" fill="#FF9228"/>
<path d="M6.96582 9.37695L6.55176 8.01758H4.46973L4.05566 9.37695H2.75098L4.7666 3.64258H6.24707L8.27051 9.37695H6.96582ZM6.2627 7.00195L5.84863 5.67383C5.82259 5.58529 5.78743 5.47201 5.74316 5.33398C5.7015 5.19336 5.65853 5.05143 5.61426 4.9082C5.57259 4.76237 5.53874 4.63607 5.5127 4.5293C5.48665 4.63607 5.4502 4.76888 5.40332 4.92773C5.35905 5.08398 5.31608 5.23242 5.27441 5.37305C5.23275 5.51367 5.2028 5.61393 5.18457 5.67383L4.77441 7.00195H6.2627Z" fill="#FF9228"/>
</svg>
