<svg width="352" height="122" viewBox="0 0 352 122" fill="none" xmlns="http://www.w3.org/2000/svg">
<g filter="url(#filter0_d_284_165)">
<path d="M62 64C62 60.6863 64.6863 58 68 58H326C329.314 58 332 60.6863 332 64V102C332 105.314 329.314 108 326 108H68C64.6863 108 62 105.314 62 102V64Z" fill="#FFD6AD"/>
</g>
<path d="M155.322 89L158.906 79.2H160.922L164.506 89H162.602L161.818 86.732H157.996L157.198 89H155.322ZM158.486 85.332H161.328L159.9 81.258L158.486 85.332ZM166.608 89V79.2H170.234C171.018 79.2 171.667 79.3307 172.18 79.592C172.694 79.8533 173.076 80.2127 173.328 80.67C173.58 81.1273 173.706 81.6407 173.706 82.21C173.706 82.7513 173.585 83.2507 173.342 83.708C173.1 84.156 172.722 84.52 172.208 84.8C171.695 85.0707 171.037 85.206 170.234 85.206H168.4V89H166.608ZM168.4 83.75H170.122C170.748 83.75 171.196 83.6147 171.466 83.344C171.746 83.064 171.886 82.686 171.886 82.21C171.886 81.7247 171.746 81.3467 171.466 81.076C171.196 80.796 170.748 80.656 170.122 80.656H168.4V83.75ZM175.952 89V79.2H179.578C180.362 79.2 181.011 79.3307 181.524 79.592C182.038 79.8533 182.42 80.2127 182.672 80.67C182.924 81.1273 183.05 81.6407 183.05 82.21C183.05 82.7513 182.929 83.2507 182.686 83.708C182.444 84.156 182.066 84.52 181.552 84.8C181.039 85.0707 180.381 85.206 179.578 85.206H177.744V89H175.952ZM177.744 83.75H179.466C180.092 83.75 180.54 83.6147 180.81 83.344C181.09 83.064 181.23 82.686 181.23 82.21C181.23 81.7247 181.09 81.3467 180.81 81.076C180.54 80.796 180.092 80.656 179.466 80.656H177.744V83.75ZM185.296 89V79.2H187.088V87.6H191.428V89H185.296ZM194.987 89V85.514L191.697 79.2H193.727L195.897 83.722L198.053 79.2H200.055L196.779 85.514V89H194.987ZM206.219 89V79.2H208.011L212.617 86.102V79.2H214.409V89H212.617L208.011 82.112V89H206.219ZM221.74 89.168C220.76 89.168 219.902 88.9533 219.164 88.524C218.436 88.0947 217.862 87.502 217.442 86.746C217.032 85.9807 216.826 85.0987 216.826 84.1C216.826 83.1013 217.032 82.224 217.442 81.468C217.862 80.7027 218.436 80.1053 219.164 79.676C219.902 79.2467 220.76 79.032 221.74 79.032C222.711 79.032 223.565 79.2467 224.302 79.676C225.04 80.1053 225.614 80.7027 226.024 81.468C226.435 82.224 226.64 83.1013 226.64 84.1C226.64 85.0987 226.435 85.9807 226.024 86.746C225.614 87.502 225.04 88.0947 224.302 88.524C223.565 88.9533 222.711 89.168 221.74 89.168ZM221.74 87.558C222.674 87.558 223.416 87.25 223.966 86.634C224.526 86.018 224.806 85.1733 224.806 84.1C224.806 83.0267 224.526 82.182 223.966 81.566C223.416 80.95 222.674 80.642 221.74 80.642C220.807 80.642 220.06 80.95 219.5 81.566C218.94 82.182 218.66 83.0267 218.66 84.1C218.66 85.1733 218.94 86.018 219.5 86.634C220.06 87.25 220.807 87.558 221.74 87.558ZM230.627 89L228.037 79.2H229.955L231.719 86.998L233.791 79.2H235.765L237.781 86.998L239.545 79.2H241.477L238.817 89H236.689L234.743 81.734L232.741 89H230.627Z" fill="#130160"/>
<defs>
<filter id="filter0_d_284_165" x="0" y="0" width="394" height="174" filterUnits="userSpaceOnUse" color-interpolation-filters="sRGB">
<feFlood flood-opacity="0" result="BackgroundImageFix"/>
<feColorMatrix in="SourceAlpha" type="matrix" values="0 0 0 0 0 0 0 0 0 0 0 0 0 0 0 0 0 0 127 0" result="hardAlpha"/>
<feOffset dy="4"/>
<feGaussianBlur stdDeviation="31"/>
<feComposite in2="hardAlpha" operator="out"/>
<feColorMatrix type="matrix" values="0 0 0 0 0.600625 0 0 0 0 0.670375 0 0 0 0 0.775 0 0 0 0.18 0"/>
<feBlend mode="normal" in2="BackgroundImageFix" result="effect1_dropShadow_284_165"/>
<feBlend mode="normal" in="SourceGraphic" in2="effect1_dropShadow_284_165" result="shape"/>
</filter>
</defs>
</svg>
