<svg width="19" height="18" viewBox="0 0 19 18" fill="none" xmlns="http://www.w3.org/2000/svg">
<path d="M1 8.91667C1 5.77417 1 4.2025 1.97667 3.22667C2.9525 2.25 4.52417 2.25 7.66667 2.25H11C14.1425 2.25 15.7142 2.25 16.69 3.22667C17.6667 4.2025 17.6667 5.77417 17.6667 8.91667V10.5833C17.6667 13.7258 17.6667 15.2975 16.69 16.2733C15.7142 17.25 14.1425 17.25 11 17.25H7.66667C4.52417 17.25 2.9525 17.25 1.97667 16.2733C1 15.2975 1 13.7258 1 10.5833V8.91667Z" stroke="#150B3D" stroke-width="1.5"/>
<path d="M5.1665 2.25V1M13.4998 2.25V1M1.4165 6.41667H17.2498" stroke="#150B3D" stroke-width="1.5" stroke-linecap="round"/>
<path d="M14.3335 13.0834C14.3335 13.3044 14.2457 13.5164 14.0894 13.6727C13.9331 13.829 13.7212 13.9167 13.5002 13.9167C13.2791 13.9167 13.0672 13.829 12.9109 13.6727C12.7546 13.5164 12.6668 13.3044 12.6668 13.0834C12.6668 12.8624 12.7546 12.6504 12.9109 12.4942C13.0672 12.3379 13.2791 12.2501 13.5002 12.2501C13.7212 12.2501 13.9331 12.3379 14.0894 12.4942C14.2457 12.6504 14.3335 12.8624 14.3335 13.0834ZM14.3335 9.75008C14.3335 9.9711 14.2457 10.1831 14.0894 10.3393C13.9331 10.4956 13.7212 10.5834 13.5002 10.5834C13.2791 10.5834 13.0672 10.4956 12.9109 10.3393C12.7546 10.1831 12.6668 9.9711 12.6668 9.75008C12.6668 9.52907 12.7546 9.31711 12.9109 9.16083C13.0672 9.00455 13.2791 8.91675 13.5002 8.91675C13.7212 8.91675 13.9331 9.00455 14.0894 9.16083C14.2457 9.31711 14.3335 9.52907 14.3335 9.75008ZM10.1668 13.0834C10.1668 13.3044 10.079 13.5164 9.92275 13.6727C9.76647 13.829 9.55451 13.9167 9.3335 13.9167C9.11248 13.9167 8.90052 13.829 8.74424 13.6727C8.58796 13.5164 8.50016 13.3044 8.50016 13.0834C8.50016 12.8624 8.58796 12.6504 8.74424 12.4942C8.90052 12.3379 9.11248 12.2501 9.3335 12.2501C9.55451 12.2501 9.76647 12.3379 9.92275 12.4942C10.079 12.6504 10.1668 12.8624 10.1668 13.0834ZM10.1668 9.75008C10.1668 9.9711 10.079 10.1831 9.92275 10.3393C9.76647 10.4956 9.55451 10.5834 9.3335 10.5834C9.11248 10.5834 8.90052 10.4956 8.74424 10.3393C8.58796 10.1831 8.50016 9.9711 8.50016 9.75008C8.50016 9.52907 8.58796 9.31711 8.74424 9.16083C8.90052 9.00455 9.11248 8.91675 9.3335 8.91675C9.55451 8.91675 9.76647 9.00455 9.92275 9.16083C10.079 9.31711 10.1668 9.52907 10.1668 9.75008ZM6.00016 13.0834C6.00016 13.3044 5.91237 13.5164 5.75608 13.6727C5.5998 13.829 5.38784 13.9167 5.16683 13.9167C4.94582 13.9167 4.73385 13.829 4.57757 13.6727C4.42129 13.5164 4.3335 13.3044 4.3335 13.0834C4.3335 12.8624 4.42129 12.6504 4.57757 12.4942C4.73385 12.3379 4.94582 12.2501 5.16683 12.2501C5.38784 12.2501 5.5998 12.3379 5.75608 12.4942C5.91237 12.6504 6.00016 12.8624 6.00016 13.0834ZM6.00016 9.75008C6.00016 9.9711 5.91237 10.1831 5.75608 10.3393C5.5998 10.4956 5.38784 10.5834 5.16683 10.5834C4.94582 10.5834 4.73385 10.4956 4.57757 10.3393C4.42129 10.1831 4.3335 9.9711 4.3335 9.75008C4.3335 9.52907 4.42129 9.31711 4.57757 9.16083C4.73385 9.00455 4.94582 8.91675 5.16683 8.91675C5.38784 8.91675 5.5998 9.00455 5.75608 9.16083C5.91237 9.31711 6.00016 9.52907 6.00016 9.75008Z" fill="#150B3D"/>
</svg>
