<svg width="120" height="30" viewBox="0 0 120 30" fill="none" xmlns="http://www.w3.org/2000/svg">
<path opacity="0.1" d="M0 6C0 2.68629 2.68629 0 6 0H114C117.314 0 120 2.68629 120 6V24C120 27.3137 117.314 30 114 30H6C2.68629 30 0 27.3137 0 24V6Z" fill="white"/>
<path d="M19.572 18.644C18.748 18.644 18.036 18.464 17.436 18.104C16.844 17.736 16.384 17.228 16.056 16.58C15.728 15.924 15.564 15.164 15.564 14.3C15.564 13.444 15.728 12.692 16.056 12.044C16.384 11.388 16.844 10.876 17.436 10.508C18.036 10.14 18.748 9.956 19.572 9.956C20.532 9.956 21.312 10.188 21.912 10.652C22.52 11.108 22.908 11.748 23.076 12.572H21.96C21.832 12.052 21.568 11.636 21.168 11.324C20.776 11.004 20.244 10.844 19.572 10.844C18.972 10.844 18.448 10.984 18 11.264C17.552 11.536 17.204 11.932 16.956 12.452C16.716 12.964 16.596 13.58 16.596 14.3C16.596 15.02 16.716 15.64 16.956 16.16C17.204 16.672 17.552 17.068 18 17.348C18.448 17.62 18.972 17.756 19.572 17.756C20.244 17.756 20.776 17.604 21.168 17.3C21.568 16.988 21.832 16.576 21.96 16.064H23.076C22.908 16.872 22.52 17.504 21.912 17.96C21.312 18.416 20.532 18.644 19.572 18.644ZM24.4647 18.5V9.86H25.4727V13.568C25.6727 13.2 25.9567 12.916 26.3247 12.716C26.6927 12.508 27.0927 12.404 27.5247 12.404C28.2127 12.404 28.7647 12.62 29.1807 13.052C29.5967 13.476 29.8047 14.132 29.8047 15.02V18.5H28.8087V15.128C28.8087 13.888 28.3087 13.268 27.3087 13.268C26.7887 13.268 26.3527 13.456 26.0007 13.832C25.6487 14.2 25.4727 14.728 25.4727 15.416V18.5H24.4647ZM33.3119 18.644C32.8159 18.644 32.4039 18.56 32.0759 18.392C31.7479 18.224 31.5039 18 31.3439 17.72C31.1839 17.44 31.1039 17.136 31.1039 16.808C31.1039 16.2 31.3359 15.732 31.7999 15.404C32.2639 15.076 32.8959 14.912 33.6959 14.912H35.3039V14.84C35.3039 14.32 35.1679 13.928 34.8959 13.664C34.6239 13.392 34.2599 13.256 33.8039 13.256C33.4119 13.256 33.0719 13.356 32.7839 13.556C32.5039 13.748 32.3279 14.032 32.2559 14.408H31.2239C31.2639 13.976 31.4079 13.612 31.6559 13.316C31.9119 13.02 32.2279 12.796 32.6039 12.644C32.9799 12.484 33.3799 12.404 33.8039 12.404C34.6359 12.404 35.2599 12.628 35.6759 13.076C36.0999 13.516 36.3119 14.104 36.3119 14.84V18.5H35.4119L35.3519 17.432C35.1839 17.768 34.9359 18.056 34.6079 18.296C34.2879 18.528 33.8559 18.644 33.3119 18.644ZM33.4679 17.792C33.8519 17.792 34.1799 17.692 34.4519 17.492C34.7319 17.292 34.9439 17.032 35.0879 16.712C35.2319 16.392 35.3039 16.056 35.3039 15.704V15.692H33.7799C33.1879 15.692 32.7679 15.796 32.5199 16.004C32.2799 16.204 32.1599 16.456 32.1599 16.76C32.1599 17.072 32.2719 17.324 32.4959 17.516C32.7279 17.7 33.0519 17.792 33.4679 17.792ZM37.8241 18.5V12.548H38.7361L38.7961 13.616C38.9881 13.24 39.2641 12.944 39.6241 12.728C39.9841 12.512 40.3921 12.404 40.8481 12.404C41.5521 12.404 42.1121 12.62 42.5281 13.052C42.9521 13.476 43.1641 14.132 43.1641 15.02V18.5H42.1561V15.128C42.1561 13.888 41.6441 13.268 40.6201 13.268C40.1081 13.268 39.6801 13.456 39.3361 13.832C39.0001 14.2 38.8321 14.728 38.8321 15.416V18.5H37.8241ZM47.0433 16.628C46.7073 16.628 46.3993 16.584 46.1193 16.496L45.5193 17.06C45.6073 17.124 45.7153 17.18 45.8433 17.228C45.9793 17.268 46.1713 17.308 46.4193 17.348C46.6673 17.38 47.0153 17.416 47.4633 17.456C48.2633 17.512 48.8353 17.696 49.1793 18.008C49.5233 18.32 49.6953 18.728 49.6953 19.232C49.6953 19.576 49.5993 19.904 49.4073 20.216C49.2233 20.528 48.9353 20.784 48.5433 20.984C48.1593 21.184 47.6633 21.284 47.0553 21.284C46.5193 21.284 46.0433 21.212 45.6273 21.068C45.2113 20.932 44.8873 20.72 44.6553 20.432C44.4233 20.152 44.3073 19.796 44.3073 19.364C44.3073 19.14 44.3673 18.896 44.4873 18.632C44.6073 18.376 44.8313 18.132 45.1593 17.9C44.9833 17.828 44.8313 17.752 44.7033 17.672C44.5833 17.584 44.4713 17.488 44.3673 17.384V17.108L45.3873 16.1C44.9153 15.7 44.6793 15.172 44.6793 14.516C44.6793 14.124 44.7713 13.768 44.9553 13.448C45.1393 13.128 45.4073 12.876 45.7593 12.692C46.1113 12.5 46.5393 12.404 47.0433 12.404C47.3873 12.404 47.6993 12.452 47.9793 12.548H50.1753V13.304L49.0593 13.352C49.2913 13.688 49.4073 14.076 49.4073 14.516C49.4073 14.908 49.3113 15.264 49.1193 15.584C48.9353 15.904 48.6673 16.16 48.3153 16.352C47.9713 16.536 47.5473 16.628 47.0433 16.628ZM47.0433 15.8C47.4673 15.8 47.8033 15.692 48.0513 15.476C48.3073 15.252 48.4353 14.932 48.4353 14.516C48.4353 14.108 48.3073 13.796 48.0513 13.58C47.8033 13.356 47.4673 13.244 47.0433 13.244C46.6113 13.244 46.2673 13.356 46.0113 13.58C45.7633 13.796 45.6393 14.108 45.6393 14.516C45.6393 14.932 45.7633 15.252 46.0113 15.476C46.2673 15.692 46.6113 15.8 47.0433 15.8ZM45.2913 19.268C45.2913 19.668 45.4593 19.964 45.7953 20.156C46.1313 20.356 46.5513 20.456 47.0553 20.456C47.5513 20.456 47.9473 20.348 48.2433 20.132C48.5473 19.916 48.6993 19.628 48.6993 19.268C48.6993 19.012 48.5953 18.788 48.3873 18.596C48.1793 18.412 47.7953 18.304 47.2353 18.272C46.7953 18.24 46.4153 18.2 46.0953 18.152C45.7673 18.328 45.5513 18.516 45.4473 18.716C45.3433 18.924 45.2913 19.108 45.2913 19.268ZM53.754 18.644C53.186 18.644 52.682 18.516 52.242 18.26C51.802 17.996 51.454 17.632 51.198 17.168C50.95 16.704 50.826 16.156 50.826 15.524C50.826 14.9 50.95 14.356 51.198 13.892C51.446 13.42 51.79 13.056 52.23 12.8C52.678 12.536 53.194 12.404 53.778 12.404C54.354 12.404 54.85 12.536 55.266 12.8C55.69 13.056 56.014 13.396 56.238 13.82C56.462 14.244 56.574 14.7 56.574 15.188C56.574 15.276 56.57 15.364 56.562 15.452C56.562 15.54 56.562 15.64 56.562 15.752H51.822C51.846 16.208 51.95 16.588 52.134 16.892C52.326 17.188 52.562 17.412 52.842 17.564C53.13 17.716 53.434 17.792 53.754 17.792C54.17 17.792 54.518 17.696 54.798 17.504C55.078 17.312 55.282 17.052 55.41 16.724H56.406C56.246 17.276 55.938 17.736 55.482 18.104C55.034 18.464 54.458 18.644 53.754 18.644ZM53.754 13.256C53.274 13.256 52.846 13.404 52.47 13.7C52.102 13.988 51.89 14.412 51.834 14.972H55.578C55.554 14.436 55.37 14.016 55.026 13.712C54.682 13.408 54.258 13.256 53.754 13.256ZM61.6978 11.228C61.4978 11.228 61.3298 11.164 61.1938 11.036C61.0658 10.9 61.0018 10.732 61.0018 10.532C61.0018 10.34 61.0658 10.18 61.1938 10.052C61.3298 9.924 61.4978 9.86 61.6978 9.86C61.8898 9.86 62.0538 9.924 62.1898 10.052C62.3258 10.18 62.3938 10.34 62.3938 10.532C62.3938 10.732 62.3258 10.9 62.1898 11.036C62.0538 11.164 61.8898 11.228 61.6978 11.228ZM61.1938 18.5V12.548H62.2018V18.5H61.1938ZM63.9569 18.5V12.548H64.8689L64.9409 13.412C65.1329 13.092 65.3889 12.844 65.7089 12.668C66.0289 12.492 66.3889 12.404 66.7889 12.404C67.2609 12.404 67.6649 12.5 68.0009 12.692C68.3449 12.884 68.6089 13.176 68.7929 13.568C69.0009 13.208 69.2849 12.924 69.6449 12.716C70.0129 12.508 70.4089 12.404 70.8329 12.404C71.5449 12.404 72.1129 12.62 72.5369 13.052C72.9609 13.476 73.1729 14.132 73.1729 15.02V18.5H72.1769V15.128C72.1769 14.512 72.0529 14.048 71.8049 13.736C71.5569 13.424 71.2009 13.268 70.7369 13.268C70.2569 13.268 69.8569 13.456 69.5369 13.832C69.2249 14.2 69.0689 14.728 69.0689 15.416V18.5H68.0609V15.128C68.0609 14.512 67.9369 14.048 67.6889 13.736C67.4409 13.424 67.0849 13.268 66.6209 13.268C66.1489 13.268 65.7529 13.456 65.4329 13.832C65.1209 14.2 64.9649 14.728 64.9649 15.416V18.5H63.9569ZM76.6713 18.644C76.1753 18.644 75.7633 18.56 75.4353 18.392C75.1073 18.224 74.8633 18 74.7033 17.72C74.5433 17.44 74.4633 17.136 74.4633 16.808C74.4633 16.2 74.6953 15.732 75.1593 15.404C75.6233 15.076 76.2553 14.912 77.0553 14.912H78.6633V14.84C78.6633 14.32 78.5273 13.928 78.2553 13.664C77.9833 13.392 77.6193 13.256 77.1633 13.256C76.7713 13.256 76.4313 13.356 76.1433 13.556C75.8633 13.748 75.6873 14.032 75.6153 14.408H74.5833C74.6233 13.976 74.7673 13.612 75.0153 13.316C75.2713 13.02 75.5873 12.796 75.9633 12.644C76.3393 12.484 76.7393 12.404 77.1633 12.404C77.9953 12.404 78.6193 12.628 79.0353 13.076C79.4593 13.516 79.6713 14.104 79.6713 14.84V18.5H78.7713L78.7113 17.432C78.5433 17.768 78.2953 18.056 77.9673 18.296C77.6473 18.528 77.2153 18.644 76.6713 18.644ZM76.8273 17.792C77.2113 17.792 77.5393 17.692 77.8113 17.492C78.0913 17.292 78.3033 17.032 78.4473 16.712C78.5913 16.392 78.6633 16.056 78.6633 15.704V15.692H77.1393C76.5473 15.692 76.1273 15.796 75.8793 16.004C75.6393 16.204 75.5193 16.456 75.5193 16.76C75.5193 17.072 75.6313 17.324 75.8553 17.516C76.0873 17.7 76.4113 17.792 76.8273 17.792ZM83.5355 16.628C83.1995 16.628 82.8915 16.584 82.6115 16.496L82.0115 17.06C82.0995 17.124 82.2075 17.18 82.3355 17.228C82.4715 17.268 82.6635 17.308 82.9115 17.348C83.1595 17.38 83.5075 17.416 83.9555 17.456C84.7555 17.512 85.3275 17.696 85.6715 18.008C86.0155 18.32 86.1875 18.728 86.1875 19.232C86.1875 19.576 86.0915 19.904 85.8995 20.216C85.7155 20.528 85.4275 20.784 85.0355 20.984C84.6515 21.184 84.1555 21.284 83.5475 21.284C83.0115 21.284 82.5355 21.212 82.1195 21.068C81.7035 20.932 81.3795 20.72 81.1475 20.432C80.9155 20.152 80.7995 19.796 80.7995 19.364C80.7995 19.14 80.8595 18.896 80.9795 18.632C81.0995 18.376 81.3235 18.132 81.6515 17.9C81.4755 17.828 81.3235 17.752 81.1955 17.672C81.0755 17.584 80.9635 17.488 80.8595 17.384V17.108L81.8795 16.1C81.4075 15.7 81.1715 15.172 81.1715 14.516C81.1715 14.124 81.2635 13.768 81.4475 13.448C81.6315 13.128 81.8995 12.876 82.2515 12.692C82.6035 12.5 83.0315 12.404 83.5355 12.404C83.8795 12.404 84.1915 12.452 84.4715 12.548H86.6675V13.304L85.5515 13.352C85.7835 13.688 85.8995 14.076 85.8995 14.516C85.8995 14.908 85.8035 15.264 85.6115 15.584C85.4275 15.904 85.1595 16.16 84.8075 16.352C84.4635 16.536 84.0395 16.628 83.5355 16.628ZM83.5355 15.8C83.9595 15.8 84.2955 15.692 84.5435 15.476C84.7995 15.252 84.9275 14.932 84.9275 14.516C84.9275 14.108 84.7995 13.796 84.5435 13.58C84.2955 13.356 83.9595 13.244 83.5355 13.244C83.1035 13.244 82.7595 13.356 82.5035 13.58C82.2555 13.796 82.1315 14.108 82.1315 14.516C82.1315 14.932 82.2555 15.252 82.5035 15.476C82.7595 15.692 83.1035 15.8 83.5355 15.8ZM81.7835 19.268C81.7835 19.668 81.9515 19.964 82.2875 20.156C82.6235 20.356 83.0435 20.456 83.5475 20.456C84.0435 20.456 84.4395 20.348 84.7355 20.132C85.0395 19.916 85.1915 19.628 85.1915 19.268C85.1915 19.012 85.0875 18.788 84.8795 18.596C84.6715 18.412 84.2875 18.304 83.7275 18.272C83.2875 18.24 82.9075 18.2 82.5875 18.152C82.2595 18.328 82.0435 18.516 81.9395 18.716C81.8355 18.924 81.7835 19.108 81.7835 19.268ZM90.2462 18.644C89.6782 18.644 89.1742 18.516 88.7342 18.26C88.2942 17.996 87.9462 17.632 87.6902 17.168C87.4422 16.704 87.3182 16.156 87.3182 15.524C87.3182 14.9 87.4422 14.356 87.6902 13.892C87.9382 13.42 88.2822 13.056 88.7222 12.8C89.1702 12.536 89.6862 12.404 90.2702 12.404C90.8462 12.404 91.3422 12.536 91.7582 12.8C92.1822 13.056 92.5062 13.396 92.7302 13.82C92.9542 14.244 93.0662 14.7 93.0662 15.188C93.0662 15.276 93.0622 15.364 93.0542 15.452C93.0542 15.54 93.0542 15.64 93.0542 15.752H88.3142C88.3382 16.208 88.4422 16.588 88.6262 16.892C88.8182 17.188 89.0542 17.412 89.3342 17.564C89.6222 17.716 89.9262 17.792 90.2462 17.792C90.6622 17.792 91.0102 17.696 91.2902 17.504C91.5702 17.312 91.7742 17.052 91.9022 16.724H92.8982C92.7382 17.276 92.4302 17.736 91.9742 18.104C91.5262 18.464 90.9502 18.644 90.2462 18.644ZM90.2462 13.256C89.7662 13.256 89.3382 13.404 88.9622 13.7C88.5942 13.988 88.3822 14.412 88.3262 14.972H92.0702C92.0462 14.436 91.8622 14.016 91.5182 13.712C91.1742 13.408 90.7502 13.256 90.2462 13.256Z" fill="white"/>
</svg>
