<svg width="18" height="18" viewBox="0 0 18 18" fill="none" xmlns="http://www.w3.org/2000/svg">
<path d="M8.75 17.5C7.01942 17.5 5.32769 16.9868 3.88876 16.0254C2.44983 15.0639 1.32832 13.6973 0.666058 12.0985C0.00379123 10.4996 -0.169488 8.7403 0.168133 7.04296C0.505753 5.34563 1.33911 3.78653 2.56282 2.56282C3.78653 1.33911 5.34563 0.505753 7.04296 0.168133C8.7403 -0.169488 10.4996 0.00379123 12.0985 0.666058C13.6973 1.32832 15.0639 2.44983 16.0254 3.88876C16.9868 5.32769 17.5 7.01942 17.5 8.75C17.5 11.0706 16.5781 13.2962 14.9372 14.9372C13.2962 16.5781 11.0706 17.5 8.75 17.5ZM8.75 1.25C7.26664 1.25 5.8166 1.68987 4.58323 2.51398C3.34986 3.33809 2.38856 4.50943 1.82091 5.87988C1.25325 7.25032 1.10473 8.75832 1.39411 10.2132C1.6835 11.668 2.39781 13.0044 3.4467 14.0533C4.4956 15.1022 5.83197 15.8165 7.28683 16.1059C8.74168 16.3953 10.2497 16.2468 11.6201 15.6791C12.9906 15.1114 14.1619 14.1501 14.986 12.9168C15.8101 11.6834 16.25 10.2334 16.25 8.75C16.25 6.76088 15.4598 4.85323 14.0533 3.4467C12.6468 2.04018 10.7391 1.25 8.75 1.25Z" fill="#150B3D"/>
<path d="M11.6188 12.5L8.125 9.00625V3.125H9.375V8.4875L12.5 11.6187L11.6188 12.5Z" fill="#150B3D"/>
</svg>
