<svg width="120" height="30" viewBox="0 0 120 30" fill="none" xmlns="http://www.w3.org/2000/svg">
<path d="M98.5078 7.76904L101.69 10.951" stroke="white" stroke-width="1.5" stroke-linecap="round"/>
<path opacity="0.1" d="M0 6C0 2.68629 2.68629 0 6 0H114C117.314 0 120 2.68629 120 6V24C120 27.3137 117.314 30 114 30H6C2.68629 30 0 27.3137 0 24V6Z" fill="white"/>
<path d="M15.888 18.5V10.1H21.084V10.928H16.896V13.856H20.724V14.672H16.896V17.672H21.084V18.5H15.888ZM25.3014 18.644C24.7094 18.644 24.1894 18.508 23.7414 18.236C23.3014 17.964 22.9574 17.592 22.7094 17.12C22.4694 16.648 22.3494 16.112 22.3494 15.512C22.3494 14.912 22.4734 14.38 22.7214 13.916C22.9694 13.444 23.3134 13.076 23.7534 12.812C24.1934 12.54 24.7134 12.404 25.3134 12.404C25.8014 12.404 26.2334 12.504 26.6094 12.704C26.9854 12.904 27.2774 13.184 27.4854 13.544V9.86H28.4934V18.5H27.5814L27.4854 17.516C27.2934 17.804 27.0174 18.064 26.6574 18.296C26.2974 18.528 25.8454 18.644 25.3014 18.644ZM25.4094 17.768C25.8094 17.768 26.1614 17.676 26.4654 17.492C26.7774 17.3 27.0174 17.036 27.1854 16.7C27.3614 16.364 27.4494 15.972 27.4494 15.524C27.4494 15.076 27.3614 14.684 27.1854 14.348C27.0174 14.012 26.7774 13.752 26.4654 13.568C26.1614 13.376 25.8094 13.28 25.4094 13.28C25.0174 13.28 24.6654 13.376 24.3534 13.568C24.0494 13.752 23.8094 14.012 23.6334 14.348C23.4654 14.684 23.3814 15.076 23.3814 15.524C23.3814 15.972 23.4654 16.364 23.6334 16.7C23.8094 17.036 24.0494 17.3 24.3534 17.492C24.6654 17.676 25.0174 17.768 25.4094 17.768ZM30.7486 11.228C30.5486 11.228 30.3806 11.164 30.2446 11.036C30.1166 10.9 30.0526 10.732 30.0526 10.532C30.0526 10.34 30.1166 10.18 30.2446 10.052C30.3806 9.924 30.5486 9.86 30.7486 9.86C30.9406 9.86 31.1046 9.924 31.2406 10.052C31.3766 10.18 31.4446 10.34 31.4446 10.532C31.4446 10.732 31.3766 10.9 31.2406 11.036C31.1046 11.164 30.9406 11.228 30.7486 11.228ZM30.2446 18.5V12.548H31.2526V18.5H30.2446ZM35.3597 18.5C34.8157 18.5 34.3877 18.368 34.0757 18.104C33.7637 17.84 33.6077 17.364 33.6077 16.676V13.4H32.5757V12.548H33.6077L33.7397 11.12H34.6157V12.548H36.3677V13.4H34.6157V16.676C34.6157 17.052 34.6917 17.308 34.8437 17.444C34.9957 17.572 35.2637 17.636 35.6477 17.636H36.2717V18.5H35.3597ZM40.8241 21.14V12.548H41.7361L41.8321 13.532C42.0241 13.244 42.2961 12.984 42.6481 12.752C43.0081 12.52 43.4641 12.404 44.0161 12.404C44.6081 12.404 45.1241 12.54 45.5641 12.812C46.0041 13.084 46.3441 13.456 46.5841 13.928C46.8321 14.4 46.9561 14.936 46.9561 15.536C46.9561 16.136 46.8321 16.672 46.5841 17.144C46.3441 17.608 46.0001 17.976 45.5521 18.248C45.1121 18.512 44.5961 18.644 44.0041 18.644C43.5161 18.644 43.0801 18.544 42.6961 18.344C42.3201 18.144 42.0321 17.864 41.8321 17.504V21.14H40.8241ZM43.8961 17.768C44.2961 17.768 44.6481 17.676 44.9521 17.492C45.2561 17.3 45.4961 17.036 45.6721 16.7C45.8481 16.364 45.9361 15.972 45.9361 15.524C45.9361 15.076 45.8481 14.684 45.6721 14.348C45.4961 14.012 45.2561 13.752 44.9521 13.568C44.6481 13.376 44.2961 13.28 43.8961 13.28C43.4961 13.28 43.1441 13.376 42.8401 13.568C42.5361 13.752 42.2961 14.012 42.1201 14.348C41.9441 14.684 41.8561 15.076 41.8561 15.524C41.8561 15.972 41.9441 16.364 42.1201 16.7C42.2961 17.036 42.5361 17.3 42.8401 17.492C43.1441 17.676 43.4961 17.768 43.8961 17.768ZM48.3593 18.5V12.548H49.2713L49.3553 13.688C49.5393 13.296 49.8193 12.984 50.1953 12.752C50.5713 12.52 51.0353 12.404 51.5873 12.404V13.46H51.3113C50.9593 13.46 50.6353 13.524 50.3393 13.652C50.0433 13.772 49.8073 13.98 49.6313 14.276C49.4553 14.572 49.3673 14.98 49.3673 15.5V18.5H48.3593ZM55.208 18.644C54.648 18.644 54.144 18.516 53.696 18.26C53.248 18.004 52.892 17.644 52.628 17.18C52.372 16.708 52.244 16.156 52.244 15.524C52.244 14.892 52.376 14.344 52.64 13.88C52.904 13.408 53.26 13.044 53.708 12.788C54.164 12.532 54.672 12.404 55.232 12.404C55.792 12.404 56.296 12.532 56.744 12.788C57.192 13.044 57.544 13.408 57.8 13.88C58.064 14.344 58.196 14.892 58.196 15.524C58.196 16.156 58.064 16.708 57.8 17.18C57.536 17.644 57.176 18.004 56.72 18.26C56.272 18.516 55.768 18.644 55.208 18.644ZM55.208 17.78C55.552 17.78 55.872 17.696 56.168 17.528C56.464 17.36 56.704 17.108 56.888 16.772C57.072 16.436 57.164 16.02 57.164 15.524C57.164 15.028 57.072 14.612 56.888 14.276C56.712 13.94 56.476 13.688 56.18 13.52C55.884 13.352 55.568 13.268 55.232 13.268C54.888 13.268 54.568 13.352 54.272 13.52C53.976 13.688 53.736 13.94 53.552 14.276C53.368 14.612 53.276 15.028 53.276 15.524C53.276 16.02 53.368 16.436 53.552 16.772C53.736 17.108 53.972 17.36 54.26 17.528C54.556 17.696 54.872 17.78 55.208 17.78ZM59.9215 18.5V13.4H59.0215V12.548H59.9215V11.516C59.9215 10.94 60.0655 10.52 60.3535 10.256C60.6415 9.992 61.0615 9.86 61.6135 9.86H62.2135V10.724H61.7695C61.4655 10.724 61.2495 10.788 61.1215 10.916C60.9935 11.036 60.9295 11.244 60.9295 11.54V12.548H64.6255V18.5H63.6175V13.4H60.9295V18.5H59.9215ZM64.1335 11.408C63.9415 11.408 63.7775 11.344 63.6415 11.216C63.5055 11.08 63.4375 10.912 63.4375 10.712C63.4375 10.52 63.5055 10.36 63.6415 10.232C63.7775 10.104 63.9415 10.04 64.1335 10.04C64.3335 10.04 64.4975 10.104 64.6255 10.232C64.7615 10.36 64.8295 10.52 64.8295 10.712C64.8295 10.912 64.7615 11.08 64.6255 11.216C64.4975 11.344 64.3335 11.408 64.1335 11.408ZM66.4061 18.5V9.86H67.4141V18.5H66.4061ZM71.7423 18.644C71.1743 18.644 70.6703 18.516 70.2303 18.26C69.7903 17.996 69.4423 17.632 69.1863 17.168C68.9383 16.704 68.8143 16.156 68.8143 15.524C68.8143 14.9 68.9383 14.356 69.1863 13.892C69.4343 13.42 69.7783 13.056 70.2183 12.8C70.6663 12.536 71.1823 12.404 71.7663 12.404C72.3423 12.404 72.8383 12.536 73.2543 12.8C73.6783 13.056 74.0023 13.396 74.2263 13.82C74.4503 14.244 74.5623 14.7 74.5623 15.188C74.5623 15.276 74.5583 15.364 74.5503 15.452C74.5503 15.54 74.5503 15.64 74.5503 15.752H69.8103C69.8343 16.208 69.9383 16.588 70.1223 16.892C70.3143 17.188 70.5503 17.412 70.8303 17.564C71.1183 17.716 71.4223 17.792 71.7423 17.792C72.1583 17.792 72.5063 17.696 72.7863 17.504C73.0663 17.312 73.2703 17.052 73.3983 16.724H74.3943C74.2343 17.276 73.9263 17.736 73.4703 18.104C73.0223 18.464 72.4463 18.644 71.7423 18.644ZM71.7423 13.256C71.2623 13.256 70.8343 13.404 70.4583 13.7C70.0903 13.988 69.8783 14.412 69.8223 14.972H73.5663C73.5423 14.436 73.3583 14.016 73.0143 13.712C72.6703 13.408 72.2463 13.256 71.7423 13.256Z" fill="white"/>
<path d="M102.573 10.2329L94.6903 18.1158C94.292 18.5142 93.7969 18.8021 93.2538 18.9515L89.7509 19.9145C89.564 19.9659 89.3922 19.7941 89.4436 19.6072L90.4066 16.1043C90.556 15.5612 90.8439 15.0661 91.2423 14.6678L99.1252 6.78489C100.077 5.83274 101.621 5.83274 102.573 6.78489C103.525 7.73704 103.525 9.28078 102.573 10.2329Z" stroke="white" stroke-width="1.5"/>
<path d="M89 23H107" stroke="white" stroke-width="1.5" stroke-linecap="round"/>
</svg>
