<svg width="17" height="22" viewBox="0 0 17 22" fill="none" xmlns="http://www.w3.org/2000/svg">
<path d="M15.5786 0H11.4276C11.2625 0 11.1041 0.0655995 10.9874 0.182367C10.8706 0.299135 10.805 0.457507 10.805 0.622642C10.805 0.787776 10.8706 0.946148 10.9874 1.06292C11.1041 1.17968 11.2625 1.24528 11.4276 1.24528H14.0759L10.9627 4.35226C10.2304 3.62656 9.33441 3.08747 8.35019 2.78041C7.36598 2.47334 6.32239 2.4073 5.30732 2.58783C4.29225 2.76837 3.33543 3.1902 2.51746 3.8178C1.69948 4.44539 1.0443 5.26037 0.60711 6.19408C0.169917 7.12779 -0.0364868 8.1529 0.00528309 9.18305C0.047053 10.2132 0.335774 11.2182 0.847126 12.1135C1.35848 13.0087 2.07749 13.768 2.94359 14.3273C3.80969 14.8866 4.79752 15.2296 5.82388 15.3274V17.434H3.12576C2.96063 17.434 2.80226 17.4996 2.68549 17.6163C2.56872 17.7331 2.50312 17.8915 2.50312 18.0566C2.50312 18.2217 2.56872 18.3801 2.68549 18.4969C2.80226 18.6136 2.96063 18.6792 3.12576 18.6792H5.82388V21.3774C5.82388 21.5425 5.88947 21.7009 6.00624 21.8176C6.12301 21.9344 6.28138 22 6.44652 22C6.61165 22 6.77002 21.9344 6.88679 21.8176C7.00356 21.7009 7.06916 21.5425 7.06916 21.3774V18.6792H9.76727C9.93241 18.6792 10.0908 18.6136 10.2075 18.4969C10.3243 18.3801 10.3899 18.2217 10.3899 18.0566C10.3899 17.8915 10.3243 17.7331 10.2075 17.6163C10.0908 17.4996 9.93241 17.434 9.76727 17.434H7.06916V15.3274C8.17947 15.2187 9.24247 14.8233 10.1538 14.1798C11.0651 13.5364 11.7935 12.667 12.2674 11.657C12.7413 10.647 12.9444 9.53122 12.8569 8.41905C12.7693 7.30688 12.3941 6.23658 11.768 5.31321L14.9559 2.12528V4.77358C14.9559 4.93872 15.0215 5.09709 15.1383 5.21386C15.2551 5.33063 15.4135 5.39623 15.5786 5.39623C15.7437 5.39623 15.9021 5.33063 16.0189 5.21386C16.1356 5.09709 16.2012 4.93872 16.2012 4.77358V0.622642C16.2012 0.457507 16.1356 0.299135 16.0189 0.182367C15.9021 0.0655995 15.7437 0 15.5786 0ZM6.44652 14.1132C5.42029 14.1132 4.41712 13.8089 3.56384 13.2388C2.71057 12.6686 2.04552 11.8583 1.6528 10.9101C1.26008 9.96204 1.15733 8.91877 1.35754 7.91227C1.55774 6.90576 2.05192 5.98123 2.77757 5.25558C3.50322 4.52993 4.42775 4.03575 5.43426 3.83555C6.44076 3.63534 7.48403 3.73809 8.43214 4.13081C9.38025 4.52353 10.1906 5.18858 10.7607 6.04185C11.3309 6.89513 11.6352 7.8983 11.6352 8.92453C11.6335 10.3001 11.0864 11.6189 10.1136 12.5917C9.14094 13.5644 7.82213 14.1116 6.44652 14.1132Z" fill="#150B3D"/>
</svg>
