<svg width="24" height="24" viewBox="0 0 24 24" fill="none" xmlns="http://www.w3.org/2000/svg">
<mask id="path-1-inside-1_280_159" fill="white">
<path fill-rule="evenodd" clip-rule="evenodd" d="M11.9998 2C10.3429 2 8.99979 3.34315 8.99979 5V5.67363C8.65766 5.83616 8.3308 6.02563 8.02196 6.23929L7.43751 5.90185C6.00264 5.07343 4.16786 5.56505 3.33944 6.99993C2.51101 8.43481 3.00264 10.2696 4.43751 11.098L5.02221 11.4356C5.00736 11.6218 4.99979 11.81 4.99979 12C4.99979 12.19 5.00736 12.3781 5.0222 12.5643L4.43751 12.9019C3.00263 13.7303 2.51101 15.5651 3.33944 16.9999C4.16786 18.4348 6.00263 18.9264 7.43751 18.098L8.02185 17.7606C8.33073 17.9743 8.65762 18.1638 8.99979 18.3264V19C8.99979 20.6569 10.3429 22 11.9998 22C13.6566 22 14.9998 20.6569 14.9998 19V18.3264C15.3419 18.1638 15.6688 17.9744 15.9776 17.7607L16.5619 18.098C17.9967 18.9264 19.8315 18.4348 20.6599 16.9999C21.4884 15.5651 20.9967 13.7303 19.5619 12.9019L18.9774 12.5644C18.9922 12.3782 18.9998 12.19 18.9998 12C18.9998 11.81 18.9922 11.6217 18.9774 11.4355L19.5619 11.098C20.9967 10.2696 21.4884 8.43481 20.6599 6.99993C19.8315 5.56505 17.9967 5.07343 16.5619 5.90186L15.9775 6.23922C15.6687 6.02559 15.3419 5.83614 14.9998 5.67363V5C14.9998 3.34315 13.6566 2 11.9998 2Z"/>
</mask>
<path d="M8.99979 5.67363L9.64343 7.02852L10.4998 6.62171V5.67363H8.99979ZM8.02196 6.23929L7.27196 7.53832L8.09439 8.01315L8.87537 7.47286L8.02196 6.23929ZM7.43751 5.90185L6.68751 7.20089L6.68751 7.20089L7.43751 5.90185ZM3.33944 6.99993L2.0404 6.24993L2.0404 6.24993L3.33944 6.99993ZM4.43751 11.098L3.68751 12.397L3.68751 12.397L4.43751 11.098ZM5.02221 11.4356L6.51746 11.5549L6.59283 10.6103L5.77221 10.1365L5.02221 11.4356ZM5.0222 12.5643L5.7722 13.8633L6.5928 13.3895L6.51745 12.445L5.0222 12.5643ZM4.43751 12.9019L5.18751 14.2009L5.18751 14.2009L4.43751 12.9019ZM3.33944 16.9999L2.0404 17.7499L2.0404 17.7499L3.33944 16.9999ZM7.43751 18.098L6.68751 16.799L6.68751 16.799L7.43751 18.098ZM8.02185 17.7606L8.87528 16.5271L8.0943 15.9868L7.27185 16.4616L8.02185 17.7606ZM8.99979 18.3264H10.4998V17.3783L9.64343 16.9715L8.99979 18.3264ZM14.9998 18.3264L14.3561 16.9715L13.4998 17.3783V18.3264H14.9998ZM15.9776 17.7607L16.7276 16.4617L15.9052 15.9868L15.1242 16.5271L15.9776 17.7607ZM16.5619 18.098L17.3119 16.799L17.3119 16.799L16.5619 18.098ZM20.6599 16.9999L21.959 17.7499L21.959 17.7499L20.6599 16.9999ZM19.5619 12.9019L18.8119 14.2009L18.8119 14.2009L19.5619 12.9019ZM18.9774 12.5644L17.4821 12.4451L17.4068 13.3896L18.2274 13.8634L18.9774 12.5644ZM18.9774 11.4355L18.2274 10.1364L17.4067 10.6102L17.4821 11.5548L18.9774 11.4355ZM19.5619 11.098L18.8119 9.79897L18.8119 9.79897L19.5619 11.098ZM16.5619 5.90186L17.3119 7.20089L17.3119 7.20089L16.5619 5.90186ZM15.9775 6.23922L15.1241 7.47281L15.9051 8.01308L16.7275 7.53826L15.9775 6.23922ZM14.9998 5.67363H13.4998V6.62171L14.3562 7.02852L14.9998 5.67363ZM10.4998 5C10.4998 4.17157 11.1714 3.5 11.9998 3.5V0.5C9.51451 0.5 7.49979 2.51472 7.49979 5H10.4998ZM10.4998 5.67363V5H7.49979V5.67363H10.4998ZM8.87537 7.47286C9.1182 7.30486 9.37495 7.15606 9.64343 7.02852L8.35615 4.31874C7.94037 4.51626 7.54341 4.74639 7.16856 5.00572L8.87537 7.47286ZM6.68751 7.20089L7.27196 7.53832L8.77196 4.94025L8.18751 4.60282L6.68751 7.20089ZM4.63848 7.74993C5.05269 7.03249 5.97007 6.78668 6.68751 7.20089L8.18751 4.60282C6.0352 3.36018 3.28304 4.09761 2.0404 6.24993L4.63848 7.74993ZM5.18751 9.79897C4.47007 9.38475 4.22426 8.46737 4.63848 7.74993L2.0404 6.24993C0.797759 8.40225 1.5352 11.1544 3.68751 12.397L5.18751 9.79897ZM5.77221 10.1365L5.18751 9.79897L3.68751 12.397L4.27222 12.7346L5.77221 10.1365ZM6.49979 12C6.49979 11.8499 6.50577 11.7014 6.51746 11.5549L3.52697 11.3163C3.50895 11.5421 3.49979 11.7701 3.49979 12H6.49979ZM6.51745 12.445C6.50577 12.2985 6.49979 12.1501 6.49979 12H3.49979C3.49979 12.2298 3.50894 12.4578 3.52695 12.6836L6.51745 12.445ZM5.18751 14.2009L5.7722 13.8633L4.2722 11.2652L3.68751 11.6028L5.18751 14.2009ZM4.63847 16.2499C4.22426 15.5325 4.47007 14.6151 5.18751 14.2009L3.68751 11.6028C1.5352 12.8455 0.797758 15.5976 2.0404 17.7499L4.63847 16.2499ZM6.68751 16.799C5.97007 17.2132 5.05269 16.9674 4.63847 16.2499L2.0404 17.7499C3.28304 19.9022 6.0352 20.6397 8.18751 19.397L6.68751 16.799ZM7.27185 16.4616L6.68751 16.799L8.18751 19.397L8.77185 19.0597L7.27185 16.4616ZM9.64343 16.9715C9.37492 16.8439 9.11814 16.6951 8.87528 16.5271L7.16842 18.9942C7.54331 19.2536 7.94032 19.4837 8.35615 19.6813L9.64343 16.9715ZM10.4998 19V18.3264H7.49979V19H10.4998ZM11.9998 20.5C11.1714 20.5 10.4998 19.8284 10.4998 19H7.49979C7.49979 21.4853 9.51451 23.5 11.9998 23.5V20.5ZM13.4998 19C13.4998 19.8284 12.8282 20.5 11.9998 20.5V23.5C14.4851 23.5 16.4998 21.4853 16.4998 19H13.4998ZM13.4998 18.3264V19H16.4998V18.3264H13.4998ZM15.1242 16.5271C14.8814 16.6951 14.6246 16.8439 14.3561 16.9715L15.6434 19.6813C16.0592 19.4837 16.4562 19.2536 16.831 18.9943L15.1242 16.5271ZM17.3119 16.799L16.7276 16.4617L15.2276 19.0597L15.8119 19.397L17.3119 16.799ZM19.3609 16.2499C18.9467 16.9674 18.0293 17.2132 17.3119 16.799L15.8119 19.397C17.9642 20.6397 20.7163 19.9022 21.959 17.7499L19.3609 16.2499ZM18.8119 14.2009C19.5293 14.6151 19.7751 15.5325 19.3609 16.2499L21.959 17.7499C23.2016 15.5976 22.4642 12.8455 20.3119 11.6028L18.8119 14.2009ZM18.2274 13.8634L18.8119 14.2009L20.3119 11.6028L19.7274 11.2654L18.2274 13.8634ZM17.4998 12C17.4998 12.1501 17.4938 12.2986 17.4821 12.4451L20.4726 12.6837C20.4906 12.4579 20.4998 12.2298 20.4998 12H17.4998ZM17.4821 11.5548C17.4938 11.7014 17.4998 11.8498 17.4998 12H20.4998C20.4998 11.7701 20.4906 11.542 20.4726 11.3162L17.4821 11.5548ZM18.8119 9.79897L18.2274 10.1364L19.7274 12.7345L20.3119 12.397L18.8119 9.79897ZM19.3609 7.74993C19.7751 8.46737 19.5293 9.38476 18.8119 9.79897L20.3119 12.397C22.4642 11.1544 23.2016 8.40225 21.959 6.24993L19.3609 7.74993ZM17.3119 7.20089C18.0293 6.78668 18.9467 7.03249 19.3609 7.74993L21.959 6.24993C20.7163 4.09761 17.9642 3.36018 15.8119 4.60282L17.3119 7.20089ZM16.7275 7.53826L17.3119 7.20089L15.8119 4.60282L15.2275 4.94019L16.7275 7.53826ZM14.3562 7.02852C14.6246 7.15605 14.8813 7.30484 15.1241 7.47281L16.8309 5.00564C16.4561 4.74634 16.0592 4.51624 15.6434 4.31874L14.3562 7.02852ZM13.4998 5V5.67363H16.4998V5H13.4998ZM11.9998 3.5C12.8282 3.5 13.4998 4.17157 13.4998 5H16.4998C16.4998 2.51472 14.4851 0.5 11.9998 0.5V3.5Z" fill="white" mask="url(#path-1-inside-1_280_159)"/>
<circle cx="12" cy="12" r="2.25" stroke="white" stroke-width="1.5"/>
</svg>
