<svg width="21" height="20" viewBox="0 0 21 20" fill="none" xmlns="http://www.w3.org/2000/svg">
<mask id="path-1-inside-1_280_155" fill="white">
<path fill-rule="evenodd" clip-rule="evenodd" d="M19.8587 8.13158C20.4178 7.7328 20.4178 6.90214 19.8587 6.50337L11.0807 0.241855C10.4188 -0.230314 9.5 0.24288 9.5 1.05596V4.01232C4.20944 4.27284 0 8.64486 0 14V20L1.69742 15.9156C3.02724 12.7157 6.06926 10.5791 9.5 10.3889V13.579C9.5 14.3921 10.4188 14.8653 11.0807 14.3931L19.8587 8.13158Z"/>
</mask>
<path d="M19.8587 6.50337L20.7298 5.28221L20.7298 5.28221L19.8587 6.50337ZM19.8587 8.13158L18.9876 6.91042L18.9876 6.91042L19.8587 8.13158ZM11.0807 0.241855L11.9518 -0.979303L11.9518 -0.979303L11.0807 0.241855ZM9.5 4.01232L9.57377 5.51051L11 5.44028V4.01232H9.5ZM0 20H-1.5L1.38515 20.5757L0 20ZM1.69742 15.9156L0.312271 15.34L0.312271 15.34L1.69742 15.9156ZM9.5 10.3889H11V8.80341L9.41696 8.89118L9.5 10.3889ZM11.0807 14.3931L11.9518 15.6142L11.9518 15.6142L11.0807 14.3931ZM18.9876 7.72453C18.7081 7.52513 18.7081 7.10981 18.9876 6.91042L20.7298 9.35274C22.1274 8.3558 22.1274 6.27915 20.7298 5.28221L18.9876 7.72453ZM10.2096 1.46301L18.9876 7.72453L20.7298 5.28221L11.9518 -0.979303L10.2096 1.46301ZM11 1.05596C11 1.4625 10.5406 1.6991 10.2096 1.46301L11.9518 -0.979303C10.297 -2.15973 8 -0.976741 8 1.05596H11ZM11 4.01232V1.05596H8V4.01232H11ZM1.5 14C1.5 9.44857 5.07803 5.73189 9.57377 5.51051L9.42623 2.51414C3.34086 2.81379 -1.5 7.84114 -1.5 14H1.5ZM1.5 20V14H-1.5V20H1.5ZM0.312271 15.34L-1.38515 19.4244L1.38515 20.5757L3.08256 16.4913L0.312271 15.34ZM9.41696 8.89118C5.41347 9.11314 1.86401 11.6061 0.312271 15.34L3.08256 16.4913C4.19048 13.8254 6.72505 12.045 9.58304 11.8866L9.41696 8.89118ZM11 13.579V10.3889H8V13.579H11ZM10.2096 13.1719C10.5406 12.9358 11 13.1724 11 13.579H8C8 15.6117 10.297 16.7947 11.9518 15.6142L10.2096 13.1719ZM18.9876 6.91042L10.2096 13.1719L11.9518 15.6142L20.7298 9.35274L18.9876 6.91042Z" fill="white" mask="url(#path-1-inside-1_280_155)"/>
</svg>
