<svg width="20" height="13" viewBox="0 0 20 13" fill="none" xmlns="http://www.w3.org/2000/svg">
<path d="M10 8C11.1046 8 12 7.10457 12 6C12 4.89543 11.1046 4 10 4C8.89543 4 8 4.89543 8 6C8 7.10457 8.89543 8 10 8Z" fill="#150B3D"/>
<path d="M17.38 0H2.5C1.83753 0.00184718 1.20271 0.265832 0.734274 0.734273C0.265833 1.20271 0.00184718 1.83753 0 2.5V9.94C0.00367589 10.6019 0.268248 11.2357 0.736295 11.7037C1.20434 12.1718 1.83809 12.4363 2.5 12.44H17.38C18.0425 12.4382 18.6773 12.1742 19.1457 11.7057C19.6142 11.2373 19.8782 10.6025 19.88 9.94V2.5C19.88 2.17169 19.8153 1.84661 19.6897 1.54329C19.5641 1.23998 19.3799 0.964379 19.1478 0.732233C18.9156 0.500087 18.64 0.315938 18.3367 0.190301C18.0334 0.0646642 17.7083 0 17.38 0ZM1 2.5C1 2.10217 1.15804 1.72064 1.43934 1.43934C1.72064 1.15804 2.10218 1 2.5 1H3.98C3.87114 1.75168 3.52214 2.44801 2.98507 2.98507C2.44801 3.52214 1.75168 3.87114 1 3.98V2.5ZM2.5 11.44C2.10307 11.4371 1.7232 11.2782 1.44252 10.9975C1.16184 10.7168 1.00288 10.3369 1 9.94V8.46C1.75168 8.56886 2.44801 8.91786 2.98507 9.45493C3.52214 9.99199 3.87114 10.6883 3.98 11.44H2.5ZM18.88 9.94C18.88 10.3378 18.722 10.7194 18.4407 11.0007C18.1594 11.282 17.7778 11.44 17.38 11.44H15.9C16.0089 10.6883 16.3579 9.99199 16.8949 9.45493C17.432 8.91786 18.1283 8.56886 18.88 8.46V9.94ZM18.88 7.45C17.8615 7.56528 16.9123 8.02271 16.1875 8.74749C15.4627 9.47227 15.0053 10.4215 14.89 11.44H4.99C4.87472 10.4215 4.41729 9.47227 3.69251 8.74749C2.96773 8.02271 2.01849 7.56528 1 7.45V4.99C2.01849 4.87472 2.96773 4.41729 3.69251 3.69251C4.41729 2.96773 4.87472 2.01849 4.99 1H14.89C15.0053 2.01849 15.4627 2.96773 16.1875 3.69251C16.9123 4.41729 17.8615 4.87472 18.88 4.99V7.45ZM18.88 3.98C18.1283 3.87114 17.432 3.52214 16.8949 2.98507C16.3579 2.44801 16.0089 1.75168 15.9 1H17.38C17.7778 1 18.1594 1.15804 18.4407 1.43934C18.722 1.72064 18.88 2.10217 18.88 2.5V3.98Z" fill="#150B3D"/>
</svg>
