<svg width="15" height="17" viewBox="0 0 15 17" fill="none" xmlns="http://www.w3.org/2000/svg">
<path d="M4.06375 10.9362C4.1867 10.9362 4.30845 10.912 4.42204 10.865C4.53563 10.8179 4.63884 10.749 4.72578 10.662C4.81272 10.5751 4.88168 10.4719 4.92873 10.3583C4.97578 10.2447 5 10.123 5 10C5 9.87705 4.97578 9.7553 4.92873 9.64171C4.88168 9.52812 4.81272 9.42491 4.72578 9.33797C4.63884 9.25103 4.53563 9.18207 4.42204 9.13502C4.30845 9.08797 4.1867 9.06375 4.06375 9.06375C3.81544 9.06375 3.5773 9.16239 3.40172 9.33797C3.22614 9.51355 3.1275 9.75169 3.1275 10C3.1275 10.2483 3.22614 10.4864 3.40172 10.662C3.5773 10.8376 3.81544 10.9362 4.06375 10.9362ZM11.8725 9.99875C11.8727 10.2471 11.7742 10.4853 11.5987 10.661C11.4233 10.8367 11.1852 10.9355 10.9369 10.9356C10.6886 10.9358 10.4504 10.8373 10.2747 10.6618C10.099 10.4864 10.0002 10.2483 10 10C10 9.75169 10.0986 9.51355 10.2742 9.33797C10.4498 9.16239 10.6879 9.06375 10.9362 9.06375C11.1846 9.06375 11.4227 9.16239 11.5983 9.33797C11.7739 9.51355 11.8725 9.75169 11.8725 10V9.99875ZM5.625 0C5.45924 0 5.30027 0.065848 5.18306 0.183058C5.06585 0.300268 5 0.45924 5 0.625V1.25H4.14875C3.54104 1.24986 2.95408 1.47109 2.49764 1.87232C2.0412 2.27354 1.74654 2.82728 1.66875 3.43L1.46625 5H0.625C0.45924 5 0.300269 5.06585 0.183058 5.18306C0.0658482 5.30027 2.04752e-08 5.45924 2.04752e-08 5.625C2.04752e-08 5.79076 0.0658482 5.94973 0.183058 6.06694C0.300269 6.18415 0.45924 6.25 0.625 6.25H1.305L1.2925 6.3425C0.916615 6.46535 0.589196 6.70391 0.357056 7.02405C0.124916 7.3442 -5.84039e-05 7.72955 2.04752e-08 8.125V11.875C2.04752e-08 12.3723 0.197544 12.8492 0.549175 13.2008C0.900806 13.5525 1.37772 13.75 1.875 13.75V15.3125C1.875 15.5611 1.97377 15.7996 2.14959 15.9754C2.3254 16.1512 2.56386 16.25 2.8125 16.25C3.06114 16.25 3.2996 16.1512 3.47541 15.9754C3.65123 15.7996 3.75 15.5611 3.75 15.3125V13.75H11.2463V15.3125C11.2463 15.5611 11.345 15.7996 11.5208 15.9754C11.6967 16.1512 11.9351 16.25 12.1838 16.25C12.4324 16.25 12.6708 16.1512 12.8467 15.9754C13.0225 15.7996 13.1213 15.5611 13.1213 15.3125V13.75H13.125C13.6223 13.75 14.0992 13.5525 14.4508 13.2008C14.8025 12.8492 15 12.3723 15 11.875V8.125C15.0001 7.72819 14.8743 7.34159 14.6406 7.02083C14.407 6.70007 14.0777 6.46169 13.7 6.34L13.6888 6.25H14.375C14.5408 6.25 14.6997 6.18415 14.8169 6.06694C14.9342 5.94973 15 5.79076 15 5.625C15 5.45924 14.9342 5.30027 14.8169 5.18306C14.6997 5.06585 14.5408 5 14.375 5H13.5287L13.3288 3.43375C13.2518 2.83057 12.9577 2.2761 12.5014 1.87414C12.0452 1.47218 11.4581 1.25028 10.85 1.25H10V0.625C10 0.45924 9.93415 0.300268 9.81694 0.183058C9.69973 0.065848 9.54076 0 9.375 0H5.625ZM2.565 6.25L2.90875 3.59C2.94764 3.28864 3.09498 3.01177 3.32319 2.81116C3.55141 2.61055 3.84489 2.49993 4.14875 2.5H10.8488C11.1528 2.49997 11.4464 2.61076 11.6747 2.81163C11.9029 3.01249 12.0501 3.28967 12.0887 3.59125L12.4288 6.25H2.565ZM13.75 11.875C13.75 12.0408 13.6842 12.1997 13.5669 12.3169C13.4497 12.4342 13.2908 12.5 13.125 12.5H1.875C1.70924 12.5 1.55027 12.4342 1.43306 12.3169C1.31585 12.1997 1.25 12.0408 1.25 11.875V8.125C1.25 7.95924 1.31585 7.80027 1.43306 7.68306C1.55027 7.56585 1.70924 7.5 1.875 7.5H13.125C13.2908 7.5 13.4497 7.56585 13.5669 7.68306C13.6842 7.80027 13.75 7.95924 13.75 8.125V11.875Z" fill="#150B3D"/>
</svg>
