<svg width="194" height="217" viewBox="0 0 194 217" fill="none" xmlns="http://www.w3.org/2000/svg">
<path d="M58.7369 206.626C36.6315 195.419 -3.39818 193.199 0.230872 122.401C3.85993 51.6036 100.567 49.2518 111.783 14.2559C123 -20.7398 241.037 9.53171 171.19 95.8652C158.822 111.152 187.855 128.125 182.774 155.94C177.693 183.755 80.8424 217.832 58.7369 206.626Z" fill="#FFD6AD"/>
<path opacity="0.11" d="M101.846 217C145.539 217 180.96 211.555 180.96 204.839C180.96 198.122 145.539 192.678 101.846 192.678C58.1521 192.678 22.7316 198.122 22.7316 204.839C22.7316 211.555 58.1521 217 101.846 217Z" fill="#0D0140"/>
<path d="M161.651 203.252H36.7345C34.072 203.252 31.9137 201.093 31.9137 198.43V26.1562C31.9137 23.4929 34.072 21.334 36.7345 21.334H161.651C164.314 21.334 166.472 23.4929 166.472 26.1562V198.43C166.472 201.093 164.314 203.252 161.651 203.252Z" fill="#130160"/>
<path d="M155.665 196.702H42.7211C40.0586 196.702 37.9003 194.544 37.9003 191.88V32.707C37.9003 30.0437 40.0586 27.8848 42.7211 27.8848H155.665C158.327 27.8848 160.485 30.0437 160.485 32.707V191.88C160.486 194.544 158.327 196.702 155.665 196.702Z" fill="#F7F7F7"/>
<path opacity="0.11" d="M54.019 50.6299H71.1988V67.8147H54.019V50.6299Z" fill="#0D0140"/>
<path d="M53.1495 55.5262C54.0215 55.9709 54.8282 56.4768 55.6148 57.0018C56.3965 57.5311 57.16 58.0778 57.8952 58.6508C59.3738 59.7893 60.7684 61.0067 62.1048 62.2786L59.1396 62.498C59.5604 61.8275 60.0069 61.1734 60.478 60.5371C60.9381 59.905 61.4238 59.2944 61.9246 58.695C62.9319 57.5015 64.0094 56.3633 65.181 55.3133C66.3589 54.2693 67.6131 53.2978 68.9782 52.4746C70.352 51.6683 71.8155 50.9642 73.3951 50.6299C72.3833 51.8889 71.437 53.0504 70.5092 54.2285L67.7712 57.7451C66.8639 58.9122 65.9515 60.0753 65.034 61.2343L62.2821 64.6758L60.7433 66.6001L59.3167 64.8954C58.1328 63.4805 57.007 62.0109 55.9651 60.4626C55.44 59.6922 54.9433 58.8954 54.465 58.0812C53.9912 57.2626 53.5376 56.425 53.1495 55.5262Z" fill="#FCA34D"/>
<path opacity="0.11" d="M54.019 101.002H71.1988V118.187H54.019V101.002ZM54.019 152.657H71.1988V169.842H54.019V152.657Z" fill="#0D0140"/>
<g opacity="0.52">
<path d="M78.9304 50.6299H146.31V53.3968H78.9304V50.6299ZM78.9304 57.8389H146.31V60.6059H78.9304V57.8389ZM108.378 65.0477H146.31V67.8147H78.9304V65.0477H108.378Z" fill="#0D0140"/>
</g>
<g opacity="0.52">
<path d="M78.9304 101.002H146.31V103.769H78.9304V101.002ZM78.9304 108.211H146.31V110.978H78.9304V108.211ZM78.9304 115.42H111.039V118.187H78.9304V115.42Z" fill="#0D0140"/>
</g>
<g opacity="0.52">
<path d="M78.9304 152.656H146.31V155.423H78.9304V152.656ZM78.9304 159.865H143.58V162.632H78.9304V159.865ZM78.9304 167.074H146.31V169.841H78.9304V167.074Z" fill="#0D0140"/>
</g>
<path d="M128.884 30.2042H69.5017V17.2871C69.5017 14.6238 71.66 12.4648 74.3225 12.4648H124.063C126.726 12.4648 128.884 14.6238 128.884 17.2871V30.2042Z" fill="#FCA34D"/>
<path d="M77.4097 176.851H135.233V212.038H77.4097V176.851ZM135.233 176.851H77.4097L82.1477 166.233H130.495L135.233 176.851Z" fill="#FCA34D"/>
<path opacity="0.11" d="M77.4097 176.851H135.233V212.039H77.4097V176.851Z" fill="#FCA34D"/>
<path d="M97.3511 117.479C97.3511 117.479 83.8489 132.741 82.8829 137.849C81.917 142.957 95.1197 165.532 95.1197 165.532L88.9851 169.809L101.227 168.639C101.227 168.639 96.0752 149.897 93.1468 143.515C97.0854 140.843 106.572 130.387 106.572 130.387L115.372 150.897L119.165 174.332L129.335 177.326L123.398 170.883C124.45 153.658 124.431 153.654 125.201 148.388C125.937 143.355 121.572 125.099 120.283 119.281C118.995 113.463 101.159 115.084 97.3511 117.479Z" fill="#0E538C"/>
<path d="M94.2881 71.7659C94.4695 72.4537 98.7524 90.5258 98.7524 90.5258C98.7524 90.5258 94.8596 92.432 93.244 90.2499C91.6285 88.0679 91.0881 71.5381 91.0881 71.5381L94.2881 71.7659Z" fill="#FCD2B1"/>
<path d="M93.591 68.1866C93.591 68.1866 91.2358 66.153 90.5063 67.6791C89.7767 69.2053 91.0621 70.8288 91.0882 71.5381C91.1143 72.2473 94.2882 71.7659 94.2882 71.7659C94.2882 71.7659 95.1031 69.4573 93.591 68.1866Z" fill="#FCD2B1"/>
<path d="M95.0681 71.1853L70.1367 61.8525C70.1367 61.8525 67.8938 64.3559 68.6856 67.3479L93.9739 73.1114C93.9739 73.1114 95.3053 73.4393 95.0681 71.1853Z" fill="#FCA34D"/>
<path d="M109.242 83.5111L107.066 89.3185C107.066 89.3185 107.331 92.0714 110.343 92.128C113.354 92.1847 113.855 90.4433 113.855 90.4433L113.358 83.5537C113.359 83.5539 110.528 82.7693 109.242 83.5111ZM90.2269 88.0175L87.2366 87.422L84.9425 74.8149L87.7924 71.7144L85.7413 71.1237C85.7413 71.1237 86.1483 68.585 85.8454 67.2761C85.5423 65.9675 84.682 65.6374 82.5407 66.4805C81.4119 67.1357 80.5198 71.2143 81.592 73.5267C82.6643 75.8394 82.5576 90.392 82.335 92.731C82.1125 95.07 88.6232 96.5846 88.6232 96.5846C88.6232 96.5846 91.7378 97.0136 92.7568 93.7523C93.7758 90.4911 90.2269 88.0175 90.2269 88.0175Z" fill="#FCD2B1"/>
<path d="M109.643 88.3142C107.254 87.8406 104.417 87.6354 101.209 88.0329C95.4733 88.2599 90.2268 88.0174 90.2268 88.0174C90.2268 88.0174 87.9219 92.0385 88.6233 96.5843C88.6233 96.5843 94.3396 100.081 99.8449 100.302C100.474 102.884 99.4906 114.565 97.351 117.479C98.9615 119.979 112.493 122.932 120.283 119.281C121.607 116.708 120.265 105.741 119.177 98.4593C118.425 93.4185 114.641 89.3055 109.643 88.3142Z" fill="#FCA34D"/>
<path d="M108.278 73.985C108.278 73.985 103.959 79.2665 104.466 81.2953C104.973 83.324 107.405 85.2117 113.168 85.8515C115.146 85.5549 117.335 79.6457 117.285 78.4092C116.958 70.3163 110.402 72.6199 108.278 73.985Z" fill="#FFE3CA"/>
<path d="M113.658 76.9115C113.658 76.9115 106.116 75.6931 105.382 71.8821C104.648 68.0711 110.804 66.1129 113.533 67.3044C114.696 67.8119 115.283 68.7022 115.967 69.7033C116.736 70.8293 117.689 71.2096 118.916 71.8606C119.311 72.0702 119.709 72.2813 120.061 72.557C121.963 74.0463 121.288 75.8148 120.967 77.8082C120.658 79.7234 120.361 81.6941 119.105 83.2531C116.92 85.9638 113.258 85.5431 113.359 83.5537C113.46 81.5649 115.69 77.3827 113.658 76.9115ZM95.1193 165.532C95.1193 165.532 98.8036 165.462 100.206 165.059C100.834 167.229 101.227 168.639 101.227 168.639L88.9849 169.81L95.1193 165.532ZM118.509 170.039C120.272 171.061 123.398 170.883 123.398 170.883L129.335 177.326L119.165 174.095L118.509 170.039Z" fill="#0B4870"/>
<path d="M70.1366 61.8525L63.272 62.2934L68.6855 67.3479L70.1366 67.6786L68.6552 65.863L70.9537 65.984L69.26 64.1688L71.8608 64.2293L69.8043 62.8379L72.0918 62.5845L70.1366 61.8525Z" fill="#FFE3CA"/>
<path d="M66.653 62.0762C66.653 62.0762 66.7582 64.0378 65.6804 64.5419L63.272 62.2932L66.653 62.0762Z" fill="#FCA34D"/>
<path d="M94.0597 70.8084C94.0597 70.8084 91.7158 71.4536 89.1754 70.546C86.6351 69.6384 89.311 66.7565 91.0881 66.9573C92.8652 67.1578 95.2262 68.7513 94.0597 70.8084Z" fill="#FAB9AF"/>
</svg>
