<svg width="16" height="16" viewBox="0 0 16 16" fill="none" xmlns="http://www.w3.org/2000/svg">
<path d="M7.5625 0C4.91219 0 2.75 2.16219 2.75 4.8125C2.75 6.44806 3.58188 7.89525 4.83381 8.76562C2.01162 9.867 0 12.617 0 15.8125H1.375C1.375 12.7889 3.56881 10.2616 6.44531 9.73225L6.875 11H8.25L8.67969 9.73225C11.5562 10.2616 13.75 12.7889 13.75 15.8125H15.125C15.125 12.617 13.1134 9.867 10.2912 8.76562C11.5424 7.89525 12.375 6.44806 12.375 4.8125C12.375 2.16219 10.2128 0 7.5625 0ZM7.5625 1.375C9.46894 1.375 11 2.90606 11 4.8125C11 6.71894 9.46894 8.25 7.5625 8.25C5.65606 8.25 4.125 6.71894 4.125 4.8125C4.125 2.90606 5.65606 1.375 7.5625 1.375ZM6.875 11.6875L6.1875 15.8125H8.9375L8.25 11.6875H6.875Z" fill="#150B3D"/>
</svg>
