<svg width="24" height="24" viewBox="0 0 24 24" fill="none" xmlns="http://www.w3.org/2000/svg">
<circle cx="12.0002" cy="20.0945" r="1.30569" transform="rotate(1.70614 12.0002 20.0945)" stroke="white" stroke-width="1.5"/>
<path d="M7.42882 6.69461C7.76656 4.42933 9.71224 2.75297 12.0026 2.75396C14.2926 2.75496 16.2367 4.43262 16.5728 6.69787L17.0004 9.58015C17.2574 11.5601 17.9613 12.999 19.0461 14.4998C19.593 15.2565 19.0578 16.1983 18.2761 16.198L5.69264 16.1934C4.9087 16.1931 4.39123 15.2623 4.93549 14.5261C6.05359 13.0137 6.79525 11.5664 7.0007 9.56609L7.42882 6.69461Z" stroke="white" stroke-width="1.5"/>
<circle cx="16.9078" cy="4.90778" r="3.79643" transform="rotate(1.70614 16.9078 4.90778)" fill="#FC4646"/>
<path d="M18.0493 6.40771H15.6323V5.97559L16.5576 5.03809C16.7367 4.85579 16.884 4.69873 16.9995 4.56689C17.1151 4.43343 17.2005 4.30729 17.2559 4.18848C17.3128 4.06966 17.3413 3.94027 17.3413 3.80029C17.3413 3.62777 17.2917 3.49756 17.1924 3.40967C17.0931 3.32015 16.9621 3.27539 16.7993 3.27539C16.6447 3.27539 16.5015 3.30632 16.3696 3.36816C16.2394 3.42839 16.1043 3.51465 15.9644 3.62695L15.6494 3.24854C15.7487 3.1639 15.8545 3.08659 15.9668 3.0166C16.0807 2.94661 16.2077 2.89128 16.3477 2.85059C16.4876 2.80827 16.6471 2.78711 16.8262 2.78711C17.0524 2.78711 17.2477 2.8278 17.4121 2.90918C17.5765 2.98893 17.7026 3.10042 17.7905 3.24365C17.88 3.38688 17.9248 3.55371 17.9248 3.74414C17.9248 3.9362 17.8866 4.11361 17.8101 4.27637C17.7336 4.43913 17.6245 4.60026 17.4829 4.75977C17.3413 4.91764 17.1729 5.08936 16.9775 5.2749L16.3599 5.87793V5.90479H18.0493V6.40771Z" fill="white"/>
</svg>
