<svg width="20" height="20" viewBox="0 0 20 20" fill="none" xmlns="http://www.w3.org/2000/svg">
<path d="M6.56375 12.1862C6.6867 12.1862 6.80845 12.162 6.92204 12.115C7.03563 12.0679 7.13884 11.999 7.22578 11.912C7.31272 11.8251 7.38168 11.7219 7.42873 11.6083C7.47578 11.4947 7.5 11.373 7.5 11.25C7.5 11.127 7.47578 11.0053 7.42873 10.8917C7.38168 10.7781 7.31272 10.6749 7.22578 10.588C7.13884 10.501 7.03563 10.4321 6.92204 10.385C6.80845 10.338 6.6867 10.3138 6.56375 10.3138C6.31544 10.3138 6.0773 10.4124 5.90172 10.588C5.72614 10.7636 5.6275 11.0017 5.6275 11.25C5.6275 11.4983 5.72614 11.7364 5.90172 11.912C6.0773 12.0876 6.31544 12.1862 6.56375 12.1862ZM14.3725 11.2487C14.3727 11.4971 14.2742 11.7353 14.0987 11.911C13.9233 12.0867 13.6852 12.1855 13.4369 12.1856C13.1886 12.1858 12.9504 12.0873 12.7747 11.9118C12.599 11.7364 12.5002 11.4983 12.5 11.25C12.5 11.0017 12.5986 10.7636 12.7742 10.588C12.9498 10.4124 13.1879 10.3138 13.4362 10.3138C13.6846 10.3138 13.9227 10.4124 14.0983 10.588C14.2739 10.7636 14.3725 11.0017 14.3725 11.25V11.2487ZM8.125 1.25C7.95924 1.25 7.80027 1.31585 7.68306 1.43306C7.56585 1.55027 7.5 1.70924 7.5 1.875V2.5H6.64875C6.04104 2.49986 5.45408 2.72109 4.99764 3.12232C4.5412 3.52354 4.24654 4.07728 4.16875 4.68L3.96625 6.25H3.125C2.95924 6.25 2.80027 6.31585 2.68306 6.43306C2.56585 6.55027 2.5 6.70924 2.5 6.875C2.5 7.04076 2.56585 7.19973 2.68306 7.31694C2.80027 7.43415 2.95924 7.5 3.125 7.5H3.805L3.7925 7.5925C3.41661 7.71535 3.0892 7.95391 2.85706 8.27405C2.62492 8.5942 2.49994 8.97955 2.5 9.375V13.125C2.5 13.6223 2.69754 14.0992 3.04917 14.4508C3.40081 14.8025 3.87772 15 4.375 15V16.5625C4.375 16.8111 4.47377 17.0496 4.64959 17.2254C4.8254 17.4012 5.06386 17.5 5.3125 17.5C5.56114 17.5 5.7996 17.4012 5.97541 17.2254C6.15123 17.0496 6.25 16.8111 6.25 16.5625V15H13.7462V16.5625C13.7462 16.8111 13.845 17.0496 14.0208 17.2254C14.1967 17.4012 14.4351 17.5 14.6837 17.5C14.9324 17.5 15.1708 17.4012 15.3467 17.2254C15.5225 17.0496 15.6212 16.8111 15.6212 16.5625V15H15.625C16.1223 15 16.5992 14.8025 16.9508 14.4508C17.3025 14.0992 17.5 13.6223 17.5 13.125V9.375C17.5001 8.97819 17.3743 8.59159 17.1406 8.27083C16.907 7.95007 16.5777 7.71169 16.2 7.59L16.1888 7.5H16.875C17.0408 7.5 17.1997 7.43415 17.3169 7.31694C17.4342 7.19973 17.5 7.04076 17.5 6.875C17.5 6.70924 17.4342 6.55027 17.3169 6.43306C17.1997 6.31585 17.0408 6.25 16.875 6.25H16.0287L15.8288 4.68375C15.7518 4.08057 15.4577 3.5261 15.0014 3.12414C14.5452 2.72218 13.9581 2.50028 13.35 2.5H12.5V1.875C12.5 1.70924 12.4342 1.55027 12.3169 1.43306C12.1997 1.31585 12.0408 1.25 11.875 1.25H8.125ZM5.065 7.5L5.40875 4.84C5.44764 4.53864 5.59498 4.26177 5.82319 4.06116C6.05141 3.86055 6.34489 3.74993 6.64875 3.75H13.3487C13.6528 3.74997 13.9464 3.86076 14.1747 4.06163C14.4029 4.26249 14.5501 4.53967 14.5887 4.84125L14.9287 7.5H5.065ZM16.25 13.125C16.25 13.2908 16.1842 13.4497 16.0669 13.5669C15.9497 13.6842 15.7908 13.75 15.625 13.75H4.375C4.20924 13.75 4.05027 13.6842 3.93306 13.5669C3.81585 13.4497 3.75 13.2908 3.75 13.125V9.375C3.75 9.20924 3.81585 9.05027 3.93306 8.93306C4.05027 8.81585 4.20924 8.75 4.375 8.75H15.625C15.7908 8.75 15.9497 8.81585 16.0669 8.93306C16.1842 9.05027 16.25 9.20924 16.25 9.375V13.125Z" fill="#524B6B"/>
</svg>
