<svg width="20" height="21" viewBox="0 0 20 21" fill="none" xmlns="http://www.w3.org/2000/svg">
<path d="M16.9167 13.2217V18.5117C16.9167 19.2021 16.357 19.7617 15.6667 19.7617H12.4167V15.6138C12.4167 14.6473 11.6332 13.8638 10.6667 13.8638H9.33333C8.36683 13.8638 7.58333 14.6473 7.58333 15.6138V19.7617H4.33333C3.64298 19.7617 3.08333 19.2021 3.08333 18.5117V13.2217C3.08333 12.776 2.72206 12.4148 2.27642 12.4148H2.25219C1.42255 12.4148 0.75 11.7422 0.75 10.9126C0.75 10.5269 0.898378 10.1559 1.1644 9.8766L9.10259 1.5415C9.59338 1.02617 10.4147 1.02397 10.9083 1.53665L18.8091 9.74377C19.092 10.0376 19.25 10.4297 19.25 10.8376V10.8884C19.25 11.7314 18.5666 12.4148 17.7236 12.4148C17.2779 12.4148 16.9167 12.776 16.9167 13.2217Z" stroke="#0D0140" stroke-width="1.5"/>
</svg>
