<svg width="153" height="152" viewBox="0 0 153 152" fill="none" xmlns="http://www.w3.org/2000/svg">
<path opacity="0.3" d="M143.157 38.9409C140.317 46.1321 135.8 26.8956 128.609 24.0549C121.418 21.2142 103.447 22.4288 106.287 15.2375C109.128 8.04625 130.086 7.43533 137.277 10.276C144.469 13.1167 145.998 31.7496 143.157 38.9409Z" fill="#03A9F4"/>
<circle opacity="0.1" cx="130" cy="146" r="6" fill="#03A9F4"/>
<circle opacity="0.1" cx="120" cy="36.9998" r="6" fill="#03A9F4"/>
<circle opacity="0.1" cx="6" cy="74.9998" r="6" fill="#03A9F4"/>
<rect x="84.7427" y="39.5935" width="64.5508" height="86.0678" rx="18" transform="rotate(30 84.7427 39.5935)" fill="#FFEBCC"/>
<circle opacity="0.1" cx="42" cy="130" r="11" fill="#03A9F4"/>
<rect x="39" y="44.9998" width="72" height="96" rx="18" fill="#FFB237"/>
<circle opacity="0.1" cx="97.5" cy="60.4998" r="17.5" fill="#301008"/>
<circle cx="101.5" cy="55.4998" r="17.5" fill="#FFF6F4"/>
<path d="M107.916 52.4835L100.326 60.074L95.7894 55.5375" stroke="#39B070" stroke-width="2" stroke-linecap="round"/>
<rect x="50" y="59.9998" width="19" height="19" rx="5" fill="white"/>
<path d="M52 93.9998H99.5" stroke="white" stroke-width="5"/>
<path d="M52 107H99.5" stroke="white" stroke-width="5"/>
<path d="M52 120L78 120" stroke="white" stroke-width="5"/>
<path d="M120.161 77.7523C121.627 77.2801 123.054 78.5712 122.73 80.0764L122.184 82.6164C121.86 84.1216 120.028 84.7119 118.887 83.679L116.96 81.9359C115.818 80.903 116.223 79.0215 117.688 78.5493L120.161 77.7523Z" fill="#FBCBCB"/>
<path d="M26.4535 138.818C27.1862 138.582 27.8997 139.228 27.7379 139.98L27.2248 142.366C27.063 143.118 26.1471 143.414 25.5762 142.897L23.7667 141.26C23.1959 140.743 23.3982 139.803 24.1309 139.567L26.4535 138.818Z" fill="#FBCBCB"/>
<path d="M45.4535 33.8181C46.1862 33.582 46.8997 34.2276 46.7379 34.9801L46.2248 37.3659C46.063 38.1185 45.1471 38.4136 44.5762 37.8972L42.7667 36.26C42.1959 35.7435 42.3982 34.8028 43.1309 34.5666L45.4535 33.8181Z" fill="#FBCBCB"/>
</svg>
