<svg width="125" height="109" viewBox="0 0 125 109" fill="none" xmlns="http://www.w3.org/2000/svg">
<g clip-path="url(#clip0_573_611)">
<path d="M6.03083 37.144L0.00363722 33.7616C-0.077663 30.1429 0.728866 26.559 2.35319 23.3213C3.74279 29.6053 11.0558 32.595 14.4299 38.0818C15.4691 39.8011 16.1066 41.7313 16.2953 43.7295C16.484 45.7277 16.219 47.7425 15.5198 49.6248L15.9162 54.497C12.8012 53.5673 9.92543 51.9759 7.4871 49.8323C5.04877 47.6888 3.10585 45.044 1.79219 42.0802C1.07176 40.4103 0.565271 38.6566 0.284667 36.8605C3.0948 37.1585 6.03083 37.144 6.03083 37.144Z" fill="#F2F2F2"/>
<path d="M114.381 98.6783L114.566 94.5379C116.492 93.5118 118.641 92.9698 120.826 92.959C117.819 95.4081 118.195 100.129 116.156 103.423C115.513 104.445 114.646 105.31 113.622 105.954C112.597 106.597 111.44 107.002 110.236 107.14L107.72 108.675C107.375 106.757 107.451 104.788 107.943 102.902C108.436 101.017 109.332 99.2598 110.572 97.7528C111.275 96.9142 112.082 96.1673 112.973 95.5296C113.576 97.1127 114.381 98.6783 114.381 98.6783Z" fill="#E6E6E6"/>
<path d="M107.897 106.544L105.619 106.544L104.535 97.7881L107.898 97.7883L107.897 106.544Z" fill="#FFB6B6"/>
<path d="M108.479 108.744L101.133 108.744V108.651C101.133 107.896 101.434 107.171 101.97 106.637C102.507 106.103 103.234 105.802 103.992 105.802H103.992L105.334 104.788L107.838 105.803L108.479 105.803L108.479 108.744Z" fill="#2F2E41"/>
<path d="M97.3132 106.544L95.035 106.544L93.9512 97.7881L97.3137 97.7883L97.3132 106.544Z" fill="#FFB6B6"/>
<path d="M97.8949 108.744L90.5488 108.744V108.651C90.5489 107.896 90.8501 107.171 91.3864 106.637C91.9226 106.103 92.6498 105.802 93.4081 105.802H93.4083L94.7502 104.788L97.2538 105.803L97.895 105.803L97.8949 108.744Z" fill="#2F2E41"/>
<path d="M96.3274 58.6768L111.146 59.0459C113.961 60.5689 114.003 63.8654 113.081 67.7792C113.081 67.7792 113.392 70.1055 112.77 70.7258C112.147 71.3462 111.836 71.3462 112.147 72.4317C112.459 73.5173 110.814 75.2904 111.014 75.4895C111.213 75.6885 111.68 76.7741 111.68 76.7741L110.124 85.6139C110.124 85.6139 109.034 100.967 108.723 101.277C108.412 101.588 108.1 101.277 108.412 102.053C108.723 102.828 109.034 102.518 108.723 102.828C108.447 103.124 108.187 103.435 107.945 103.759H104.181C104.181 103.759 103.898 102.208 103.898 102.053C103.898 101.898 103.586 100.967 103.586 100.812C103.586 100.657 103.862 100.383 103.862 100.383C103.957 100.068 104.021 99.7439 104.053 99.4164C104.053 99.1062 104.987 87.1647 104.987 87.1647L103.119 71.6563L98.6055 86.8546C98.6055 86.8546 98.6055 100.192 98.2942 100.502C97.9829 100.812 97.9829 100.657 98.1385 101.277C98.2942 101.898 98.9168 101.743 98.4498 102.208C97.9829 102.673 97.8272 101.898 97.9829 102.673L98.1385 103.449L93.4689 103.515C93.4689 103.515 92.8463 102.208 93.1576 101.743C93.4689 101.277 93.4503 101.404 93.0705 100.643C92.6907 99.8816 92.535 99.7265 92.6907 99.5715C92.8463 99.4164 92.8463 98.5915 92.8463 98.5915L93.6246 83.7529C93.6246 83.7529 93.7802 68.0894 93.7802 67.6241C93.792 67.3847 93.7477 67.1459 93.6509 66.9265V66.2949L94.2472 64.0572L96.3274 58.6768Z" fill="#69687F"/>
<path d="M105.229 27.9757C107.772 27.9757 109.834 25.9218 109.834 23.3882C109.834 20.8547 107.772 18.8008 105.229 18.8008C102.686 18.8008 100.625 20.8547 100.625 23.3882C100.625 25.9218 102.686 27.9757 105.229 27.9757Z" fill="#FFB6B6"/>
<path d="M102.927 31.008C101.935 31.5955 101.341 32.6751 101.001 33.7736C100.37 35.8074 99.9904 37.9102 99.8702 40.0355L99.5104 46.3982L95.0547 59.9462C98.9163 63.2018 113.432 60.6861 113.432 60.6861C113.432 60.6861 113.877 60.5381 113.432 60.0942C112.986 59.6502 112.552 60.0436 112.998 59.5996C113.444 59.1557 113.136 59.6502 112.988 59.2063C112.839 58.7623 112.988 59.0583 113.136 58.9103C113.285 58.7623 111.987 57.4305 111.987 57.4305L113.175 49.6538L114.66 33.9676C112.878 31.7479 109.293 30.4393 109.293 30.4393L108.367 28.7783L103.736 29.1474L102.927 31.008Z" fill="#130160"/>
<path d="M102.294 20.6958C102.472 20.6972 102.65 20.7203 102.822 20.7648C103.162 20.8462 103.508 20.9039 103.856 20.9375C104.922 21.0374 105.923 21.4903 106.7 22.2239C107.478 22.9574 107.986 23.9294 108.143 24.9844C108.411 24.752 109.02 24.3245 109.519 24.7218C109.526 24.7281 109.531 24.7313 109.548 24.7231C109.88 24.5664 110.468 22.6385 110.486 20.941C110.495 20.04 110.353 18.8895 109.622 18.5251L109.583 18.5059L109.573 18.4642C109.524 18.2615 108.978 17.9156 108.029 17.6463C106.305 17.157 103.735 16.2038 102.287 17.6066C102.178 18.0795 101.822 19.0916 101.462 19.2063C101.063 19.3333 100.719 19.4429 100.665 19.93C100.619 20.6233 100.622 21.3189 100.674 22.0117C100.809 21.5878 101.075 21.2167 101.432 20.9508C101.687 20.7801 101.988 20.6911 102.294 20.6958V20.6958Z" fill="#2F2E41"/>
<path d="M93.7243 46.044L101.245 41.2448L97.4573 36.2275L93.7167 40.812L82.062 41.5242C81.7554 41.2223 81.3673 41.0157 80.945 40.9298C80.5227 40.8438 80.0844 40.8822 79.6836 41.0401C79.2828 41.198 78.9367 41.4688 78.6877 41.8193C78.4386 42.1698 78.2973 42.5849 78.2809 43.0141C78.2645 43.4432 78.3739 43.8678 78.5955 44.2362C78.8172 44.6045 79.1416 44.9006 79.5293 45.0884C79.9169 45.2762 80.351 45.3475 80.7787 45.2937C81.2063 45.2399 81.609 45.0633 81.9376 44.7854L93.7243 46.044Z" fill="#FFB6B6"/>
<path d="M108.227 34.5457C108.663 37.1779 100.42 42.2041 100.42 42.2041C100.42 41.5863 95.4996 46.2502 95.2776 45.7379C94.6464 44.2816 94.2026 40.8325 93.3207 40.2804C92.8163 39.9647 96.3584 36.9988 96.3584 36.9988C96.3584 36.9988 98.2125 35.1378 100.646 32.7903C101.321 32.114 102.157 31.6189 103.077 31.3512C103.996 31.0835 104.968 31.0518 105.903 31.2592C105.903 31.2592 107.79 31.9136 108.227 34.5457Z" fill="#130160"/>
<path d="M123.73 47.3034L118.755 39.9131L113.801 43.7928L118.48 47.4218L119.442 59.0163C119.145 59.328 118.946 59.719 118.869 60.1415C118.792 60.564 118.839 60.9998 119.006 61.3957C119.173 61.7916 119.452 62.1306 119.809 62.3713C120.166 62.612 120.586 62.7439 121.017 62.7512C121.448 62.7584 121.871 62.6405 122.236 62.4119C122.601 62.1833 122.891 61.8538 123.072 61.4637C123.252 61.0736 123.314 60.6396 123.251 60.2148C123.188 59.79 123.003 59.3926 122.717 59.0711L123.73 47.3034Z" fill="#FFB6B6"/>
<path d="M111.885 33.1015C114.517 32.6109 119.735 40.7159 119.735 40.7159C119.115 40.7291 123.899 45.5313 123.39 45.7634C121.942 46.423 118.49 46.9381 117.955 47.8283C117.649 48.3374 114.598 44.8718 114.598 44.8718C114.598 44.8718 112.691 43.0643 110.284 40.6903C109.591 40.0317 109.076 39.2091 108.788 38.2992C108.5 37.3892 108.448 36.4213 108.636 35.4858C108.636 35.4858 109.253 33.592 111.885 33.1015Z" fill="#130160"/>
<path d="M124.999 108.78C124.999 108.809 124.994 108.838 124.982 108.864C124.971 108.891 124.955 108.915 124.935 108.936C124.914 108.956 124.89 108.972 124.863 108.983C124.836 108.994 124.808 109 124.779 109H72.8591C72.8006 109 72.7446 108.977 72.7032 108.935C72.6619 108.894 72.6387 108.838 72.6387 108.78C72.6387 108.722 72.6619 108.666 72.7032 108.625C72.7446 108.584 72.8006 108.561 72.8591 108.561H124.779C124.808 108.56 124.836 108.566 124.863 108.577C124.89 108.588 124.914 108.604 124.935 108.625C124.955 108.645 124.971 108.669 124.982 108.696C124.994 108.723 124.999 108.751 124.999 108.78Z" fill="#130160"/>
<path d="M76.9023 42.2256H13.8909C12.9065 42.2267 11.9626 42.6168 11.2665 43.3104C10.5704 44.004 10.1788 44.9443 10.1777 45.9252V85.0125C10.1789 85.9934 10.5704 86.9337 11.2665 87.6273C11.9626 88.3209 12.9065 88.711 13.8909 88.7121H76.9023C77.8868 88.711 78.8306 88.3209 79.5267 87.6273C80.2228 86.9338 80.6144 85.9934 80.6155 85.0125V45.9252C80.6144 44.9443 80.2229 44.004 79.5267 43.3104C78.8306 42.6168 77.8868 42.2267 76.9023 42.2256Z" fill="#FCA34D"/>
<path d="M76.9023 42.2256H13.8909C12.9065 42.2267 11.9626 42.6168 11.2665 43.3104C10.5704 44.004 10.1788 44.9443 10.1777 45.9252V85.0125C10.1789 85.9934 10.5704 86.9337 11.2665 87.6273C11.9626 88.3209 12.9065 88.711 13.8909 88.7121H76.9023C77.8868 88.711 78.8306 88.3209 79.5267 87.6273C80.2228 86.9338 80.6144 85.9934 80.6155 85.0125V45.9252C80.6144 44.9443 80.2229 44.004 79.5267 43.3104C78.8306 42.6168 77.8868 42.2267 76.9023 42.2256ZM78.1209 70.3025C78.1058 74.2818 76.526 78.0967 73.7204 80.9289C70.9148 83.761 67.1068 85.3848 63.1134 85.4517C56.7198 85.5347 66.651 85.567 58.9398 85.567C41.3068 85.567 22.9204 85.3991 16.0602 85.2903C15.1576 85.2717 14.2981 84.9023 13.6651 84.261C13.0321 83.6197 12.6758 82.7572 12.6724 81.8577V45.9281C12.6727 45.606 12.8011 45.2972 13.0294 45.0691C13.2577 44.8411 13.5674 44.7124 13.8907 44.7113H76.8998C77.223 44.7116 77.5329 44.8395 77.7617 45.0669C77.9906 45.2944 78.1197 45.6028 78.1209 45.9248V70.3025Z" fill="#130160"/>
<path d="M69.1458 19.7178H21.1377C20.7129 19.7184 20.2987 19.8496 19.9516 20.0935C19.6044 20.3374 19.3413 20.6821 19.1981 21.0805L11.7836 41.8064C11.6729 42.1158 11.6384 42.4471 11.683 42.7725C11.7275 43.0979 11.8498 43.4079 12.0396 43.6764C12.2293 43.9449 12.481 44.1641 12.7735 44.3156C13.066 44.4671 13.3907 44.5464 13.7203 44.5469L78.107 44.6607H78.1099C78.4506 44.6607 78.786 44.5764 79.086 44.4155C79.386 44.2545 79.6413 44.0219 79.8288 43.7385C80.0164 43.455 80.1305 43.1297 80.1608 42.7915C80.1911 42.4534 80.1367 42.113 80.0025 41.8009L79.8902 41.8488L80.0025 41.8009L71.0384 20.9612C70.8799 20.592 70.616 20.2773 70.2796 20.0562C69.9431 19.8351 69.5488 19.7175 69.1458 19.7178V19.7178Z" fill="#130160"/>
<path d="M80.1688 42.2515C80.1686 42.5294 80.1119 42.8044 80.0021 43.0599L71.0386 59.1017C70.879 59.4701 70.6147 59.784 70.2784 60.0047C69.942 60.2254 69.5482 60.3432 69.1455 60.3438H21.1381C20.7132 60.3434 20.2987 60.2123 19.9513 59.9686C19.6039 59.7248 19.3404 59.3802 19.1968 58.9817L11.7837 43.0543C11.6929 42.8006 11.6531 42.5315 11.6667 42.2624C11.6802 41.9933 11.7469 41.7296 11.8628 41.4862C11.9788 41.2428 12.1417 41.0245 12.3424 40.8439C12.543 40.6633 12.7774 40.5239 13.0322 40.4336C13.2526 40.3543 13.4851 40.3137 13.7194 40.3136L21.5845 40.2989L24.7946 40.2933L67.0356 40.2195L70.2476 40.214L78.1072 40.1992H78.109C78.6553 40.1993 79.1791 40.4156 79.5654 40.8004C79.9517 41.1853 80.1687 41.7072 80.1688 42.2515V42.2515Z" fill="#130160"/>
<path d="M18.6143 71.5459C19.5663 71.5459 32.6392 72.3419 32.6392 73.2904C32.6392 74.2389 19.5663 74.9808 18.6143 74.9808C18.1572 74.9808 17.7187 74.7998 17.3955 74.4777C17.0722 74.1557 16.8906 73.7188 16.8906 73.2633C16.8906 72.8078 17.0722 72.371 17.3955 72.0489C17.7187 71.7268 18.1572 71.5459 18.6143 71.5459V71.5459Z" fill="#130160"/>
<path d="M66.1572 7.10938H25.6778C24.5929 7.11062 23.5529 7.54055 22.7858 8.30485C22.0187 9.06915 21.5872 10.1054 21.5859 11.1863V60.3434H69.1469C69.5374 60.3447 69.9201 60.2338 70.249 60.0242V11.1863C70.2478 10.1054 69.8163 9.06915 69.0492 8.30485C68.2821 7.54056 67.242 7.11063 66.1572 7.10938Z" fill="#E6E6E6"/>
<path d="M50.7056 10.415H28.5219C27.534 10.416 26.5869 10.8073 25.8882 11.5031C25.1896 12.1988 24.7964 13.1423 24.7949 14.1265V60.3437H67.0359V26.6857C67.0309 22.372 65.3088 18.2364 62.2474 15.1861C59.1859 12.1358 55.0351 10.42 50.7056 10.415V10.415Z" fill="white"/>
<path d="M59.8399 56.2383H31.9916C31.7509 56.2383 31.52 56.3336 31.3498 56.5032C31.1796 56.6728 31.084 56.9028 31.084 57.1426C31.084 57.3825 31.1796 57.6125 31.3498 57.7821C31.52 57.9517 31.7509 58.047 31.9916 58.047H59.8399C60.0806 58.047 60.3115 57.9517 60.4817 57.7821C60.6519 57.6125 60.7475 57.3825 60.7475 57.1426C60.7475 56.9028 60.6519 56.6728 60.4817 56.5032C60.3115 56.3336 60.0806 56.2383 59.8399 56.2383V56.2383Z" fill="#E4E4E4"/>
<path d="M59.8389 52.6621H31.9906C31.7496 52.6621 31.5185 52.7575 31.3481 52.9273C31.1778 53.097 31.082 53.3273 31.082 53.5674C31.082 53.8075 31.1778 54.0377 31.3481 54.2075C31.5185 54.3773 31.7496 54.4726 31.9906 54.4726H59.8389C60.0798 54.4726 60.3109 54.3773 60.4813 54.2075C60.6517 54.0377 60.7474 53.8075 60.7474 53.5674C60.7474 53.3273 60.6517 53.097 60.4813 52.9273C60.3109 52.7575 60.0798 52.6621 59.8389 52.6621V52.6621Z" fill="#E4E4E4"/>
<path d="M44.0634 49.0869H31.9916C31.7509 49.0869 31.52 49.1822 31.3498 49.3518C31.1796 49.5214 31.084 49.7514 31.084 49.9912C31.084 50.2311 31.1796 50.4611 31.3498 50.6307C31.52 50.8003 31.7509 50.8956 31.9916 50.8956H44.0634C44.3041 50.8956 44.535 50.8003 44.7052 50.6307C44.8754 50.4611 44.971 50.2311 44.971 49.9912C44.971 49.7514 44.8754 49.5214 44.7052 49.3518C44.535 49.1822 44.3041 49.0869 44.0634 49.0869V49.0869Z" fill="#E4E4E4"/>
<path d="M59.8389 41.5977H31.9906C31.7496 41.5977 31.5185 41.693 31.3481 41.8628C31.1778 42.0326 31.082 42.2628 31.082 42.5029C31.082 42.743 31.1778 42.9733 31.3481 43.143C31.5185 43.3128 31.7496 43.4082 31.9906 43.4082H59.8389C60.0798 43.4082 60.3109 43.3128 60.4813 43.143C60.6517 42.9733 60.7474 42.743 60.7474 42.5029C60.7474 42.2628 60.6517 42.0326 60.4813 41.8628C60.3109 41.693 60.0798 41.5977 59.8389 41.5977Z" fill="#E4E4E4"/>
<path d="M59.8399 38.0225H31.9916C31.7509 38.0225 31.52 38.1177 31.3498 38.2873C31.1796 38.4569 31.084 38.687 31.084 38.9268C31.084 39.1666 31.1796 39.3967 31.3498 39.5663C31.52 39.7359 31.7509 39.8311 31.9916 39.8311H59.8399C60.0806 39.8311 60.3115 39.7359 60.4817 39.5663C60.6519 39.3967 60.7475 39.1666 60.7475 38.9268C60.7475 38.687 60.6519 38.4569 60.4817 38.2873C60.3115 38.1177 60.0806 38.0225 59.8399 38.0225V38.0225Z" fill="#E4E4E4"/>
<path d="M44.0624 34.4463H31.9906C31.7496 34.4463 31.5185 34.5417 31.3481 34.7114C31.1778 34.8812 31.082 35.1115 31.082 35.3515C31.082 35.5916 31.1778 35.8219 31.3481 35.9917C31.5185 36.1614 31.7496 36.2568 31.9906 36.2568H44.0624C44.3034 36.2568 44.5345 36.1614 44.7049 35.9917C44.8752 35.8219 44.971 35.5916 44.971 35.3515C44.971 35.1115 44.8752 34.8812 44.7049 34.7114C44.5345 34.5417 44.3034 34.4463 44.0624 34.4463Z" fill="#E4E4E4"/>
<path d="M59.8389 26.957H31.9906C31.7496 26.957 31.5185 27.0524 31.3481 27.2222C31.1778 27.3919 31.082 27.6222 31.082 27.8623C31.082 28.1024 31.1778 28.3326 31.3481 28.5024C31.5185 28.6722 31.7496 28.7676 31.9906 28.7676H59.8389C60.0798 28.7676 60.3109 28.6722 60.4813 28.5024C60.6517 28.3326 60.7474 28.1024 60.7474 27.8623C60.7474 27.6222 60.6517 27.3919 60.4813 27.2222C60.3109 27.0524 60.0798 26.957 59.8389 26.957Z" fill="#130160"/>
<path d="M59.8389 23.3818H31.9906C31.7496 23.3818 31.5185 23.4772 31.3481 23.647C31.1778 23.8168 31.082 24.047 31.082 24.2871C31.082 24.5272 31.1778 24.7574 31.3481 24.9272C31.5185 25.097 31.7496 25.1924 31.9906 25.1924H59.8389C60.0798 25.1924 60.3109 25.097 60.4813 24.9272C60.6517 24.7574 60.7474 24.5272 60.7474 24.2871C60.7474 24.047 60.6517 23.8168 60.4813 23.647C60.3109 23.4772 60.0798 23.3818 59.8389 23.3818Z" fill="#130160"/>
<path d="M44.0624 19.8047H31.9906C31.7496 19.8047 31.5185 19.9001 31.3481 20.0698C31.1778 20.2396 31.082 20.4699 31.082 20.71C31.082 20.95 31.1778 21.1803 31.3481 21.3501C31.5185 21.5198 31.7496 21.6152 31.9906 21.6152H44.0624C44.3034 21.6152 44.5345 21.5198 44.7049 21.3501C44.8752 21.1803 44.971 20.95 44.971 20.71C44.971 20.4699 44.8752 20.2396 44.7049 20.0698C44.5345 19.9001 44.3034 19.8047 44.0624 19.8047Z" fill="#130160"/>
<path d="M68.7312 14.0865C72.6354 14.0865 75.8003 10.9332 75.8003 7.04328C75.8003 3.15338 72.6354 0 68.7312 0C64.827 0 61.6621 3.15338 61.6621 7.04328C61.6621 10.9332 64.827 14.0865 68.7312 14.0865Z" fill="#FCA34D"/>
<path d="M67.7669 10.7094C67.6448 10.7094 67.5244 10.6811 67.4152 10.6267C67.3061 10.5723 67.2111 10.4933 67.1379 10.396L65.2093 7.83394C65.147 7.75166 65.1017 7.65794 65.0758 7.55815C65.0499 7.45836 65.044 7.35446 65.0585 7.25241C65.073 7.15036 65.1076 7.05217 65.1602 6.96345C65.2129 6.87473 65.2826 6.79723 65.3653 6.73539C65.4481 6.67356 65.5423 6.6286 65.6425 6.60309C65.7427 6.57759 65.847 6.57203 65.9494 6.58675C66.0518 6.60147 66.1503 6.63617 66.2391 6.68887C66.328 6.74156 66.4056 6.81122 66.4675 6.89384L67.7292 8.56988L70.9698 3.72681C71.0855 3.55392 71.2654 3.4339 71.4699 3.39315C71.6744 3.3524 71.8867 3.39426 72.0603 3.50952C72.2338 3.62478 72.3542 3.804 72.3951 4.00776C72.4361 4.21152 72.394 4.42312 72.2783 4.59601L68.4212 10.3606C68.3515 10.4648 68.2576 10.5509 68.1476 10.6115C68.0375 10.6722 67.9145 10.7057 67.7888 10.7092C67.7815 10.7093 67.7742 10.7094 67.7669 10.7094Z" fill="white"/>
</g>
<defs>
<clipPath id="clip0_573_611">
<rect width="125" height="109" fill="white"/>
</clipPath>
</defs>
</svg>
