<svg width="119" height="94" viewBox="0 0 119 94" fill="none" xmlns="http://www.w3.org/2000/svg">
<rect x="13" y="6" width="82" height="82" rx="41" fill="#130160"/>
<circle cx="45.3154" cy="51.9071" r="7.55558" transform="rotate(-165 45.3154 51.9071)" stroke="white" stroke-width="5"/>
<path d="M53.5517 46.5529L75.9162 33.7323" stroke="white" stroke-width="5" stroke-linecap="round"/>
<path d="M72.0195 35.9824L74.5195 40.3125" stroke="white" stroke-width="5" stroke-linecap="round"/>
<path d="M64.6582 40.2324L67.1582 44.5625" stroke="white" stroke-width="5" stroke-linecap="round"/>
<rect opacity="0.5" x="5" y="3" width="42" height="42" rx="21" fill="#4C407B"/>
<rect width="42" height="42" rx="21" fill="#FF9228"/>
<path d="M18.9199 23.2637V22.541C18.9199 22.0983 18.9818 21.7077 19.1055 21.3691C19.2292 21.0241 19.4277 20.6986 19.7012 20.3926C19.9746 20.0801 20.3359 19.7611 20.7852 19.4355C21.1888 19.1491 21.5111 18.8919 21.752 18.6641C21.9993 18.4362 22.1784 18.2116 22.2891 17.9902C22.4062 17.7624 22.4648 17.5052 22.4648 17.2188C22.4648 16.7956 22.3086 16.4733 21.9961 16.252C21.6836 16.0306 21.2474 15.9199 20.6875 15.9199C20.1276 15.9199 19.571 16.0078 19.0176 16.1836C18.4707 16.3594 17.9141 16.5905 17.3477 16.877L16.2832 14.7383C16.9342 14.3737 17.6406 14.0807 18.4023 13.8594C19.1641 13.6315 19.9974 13.5176 20.9023 13.5176C22.2956 13.5176 23.373 13.8529 24.1348 14.5234C24.903 15.1875 25.2871 16.0339 25.2871 17.0625C25.2871 17.6094 25.1992 18.0846 25.0234 18.4883C24.8542 18.8854 24.5938 19.2565 24.2422 19.6016C23.8971 19.9401 23.4642 20.2982 22.9434 20.6758C22.5527 20.9622 22.2533 21.2031 22.0449 21.3984C21.8366 21.5938 21.6934 21.7891 21.6152 21.9844C21.5436 22.1732 21.5078 22.4043 21.5078 22.6777V23.2637H18.9199ZM18.6074 26.6035C18.6074 25.9915 18.7734 25.5618 19.1055 25.3145C19.444 25.0671 19.8509 24.9434 20.3262 24.9434C20.7884 24.9434 21.1855 25.0671 21.5176 25.3145C21.8561 25.5618 22.0254 25.9915 22.0254 26.6035C22.0254 27.1895 21.8561 27.6126 21.5176 27.873C21.1855 28.1335 20.7884 28.2637 20.3262 28.2637C19.8509 28.2637 19.444 28.1335 19.1055 27.873C18.7734 27.6126 18.6074 27.1895 18.6074 26.6035Z" fill="white"/>
<path d="M107.409 83.3057L107.596 79.0893C109.554 78.0444 111.737 77.4925 113.957 77.4814C110.902 79.9755 111.284 84.7833 109.213 88.1373C108.559 89.1784 107.679 90.0593 106.637 90.7145C105.596 91.3697 104.421 91.7826 103.198 91.9225L100.642 93.4855C100.291 91.5327 100.368 89.5271 100.868 87.607C101.368 85.6869 102.279 83.8979 103.539 82.3632C104.254 81.5092 105.073 80.7486 105.978 80.0992C106.591 81.7114 107.409 83.3057 107.409 83.3057Z" fill="#E6E6E6"/>
<path d="M100.822 91.3157L98.5074 91.3155L97.4062 82.3994L100.823 82.3996L100.822 91.3157Z" fill="#FFB6B6"/>
<path d="M101.413 93.5559L93.9492 93.5556V93.4613C93.9493 92.6919 94.2554 91.954 94.8001 91.41C95.3449 90.8659 96.0838 90.5603 96.8543 90.5602H96.8544L98.2178 89.5273L100.761 90.5604L101.413 90.5604L101.413 93.5559Z" fill="#2F2E41"/>
<path d="M90.0682 91.3157L87.7535 91.3155L86.6523 82.3994L90.0687 82.3996L90.0682 91.3157Z" fill="#FFB6B6"/>
<path d="M90.6589 93.5559L83.1953 93.5556V93.4613C83.1954 92.6919 83.5014 91.954 84.0462 91.41C84.591 90.8659 85.3299 90.5603 86.1004 90.5602H86.1005L87.4639 89.5273L90.0075 90.5604L90.6591 90.5604L90.6589 93.5559Z" fill="#2F2E41"/>
<path d="M89.0662 42.5703L104.122 42.9462C106.982 44.4972 107.025 47.8541 106.088 51.8398C106.088 51.8398 106.404 54.2087 105.772 54.8405C105.139 55.4722 104.823 55.4722 105.139 56.5777C105.456 57.6832 103.784 59.4888 103.987 59.6915C104.19 59.8942 104.665 60.9997 104.665 60.9997L103.083 70.0017C103.083 70.0017 101.976 85.6367 101.66 85.9526C101.344 86.2685 101.027 85.9526 101.344 86.7422C101.66 87.5319 101.976 87.216 101.66 87.5319C101.38 87.8336 101.116 88.1499 100.869 88.4795H97.0459C97.0459 88.4795 96.7576 86.9002 96.7576 86.7422C96.7576 86.5843 96.4413 85.6367 96.4413 85.4788C96.4413 85.3209 96.7209 85.0417 96.7209 85.0417C96.8175 84.7207 96.8828 84.391 96.9158 84.0574C96.9158 83.7416 97.8646 71.581 97.8646 71.581L95.9669 55.788L91.3808 71.2651C91.3808 71.2651 91.3808 84.8471 91.0645 85.1629C90.7482 85.4788 90.7482 85.3209 90.9063 85.9526C91.0645 86.5843 91.6971 86.4264 91.2226 86.9002C90.7482 87.374 90.59 86.5843 90.7482 87.374L90.9063 88.1636L86.162 88.2314C86.162 88.2314 85.5295 86.9002 85.8457 86.4264C86.162 85.9526 86.1431 86.0819 85.7572 85.3066C85.3713 84.5312 85.2132 84.3733 85.3713 84.2154C85.5295 84.0574 85.5295 83.2174 85.5295 83.2174L86.3202 68.1065C86.3202 68.1065 86.4783 52.1556 86.4783 51.6819C86.4902 51.4381 86.4453 51.1948 86.347 50.9714V50.3283L86.9528 48.0495L89.0662 42.5703Z" fill="#69687F"/>
<path d="M98.1096 11.3062C100.693 11.3062 102.788 9.21461 102.788 6.63453C102.788 4.05445 100.693 1.96289 98.1096 1.96289C95.526 1.96289 93.4316 4.05445 93.4316 6.63453C93.4316 9.21461 95.526 11.3062 98.1096 11.3062Z" fill="#FFB6B6"/>
<path d="M95.7712 14.3936C94.7634 14.9919 94.1606 16.0913 93.8145 17.21C93.1738 19.2811 92.7881 21.4225 92.666 23.5868L92.3005 30.0662L87.7734 43.8628C91.6969 47.1782 106.445 44.6163 106.445 44.6163C106.445 44.6163 106.897 44.4656 106.445 44.0135C105.992 43.5614 105.551 43.962 106.004 43.5099C106.457 43.0578 106.144 43.5614 105.994 43.1093C105.843 42.6572 105.994 42.9586 106.144 42.8079C106.295 42.6572 104.976 41.3009 104.976 41.3009L106.183 33.3816L107.692 17.4076C105.882 15.1471 102.24 13.8146 102.24 13.8146L101.299 12.123L96.5939 12.4989L95.7712 14.3936Z" fill="#130160"/>
<path d="M95.1294 3.89286C95.3104 3.89427 95.4906 3.91788 95.6658 3.96315C96.0113 4.04609 96.3622 4.10484 96.7158 4.13898C97.7988 4.24073 98.8164 4.70195 99.606 5.44899C100.396 6.19603 100.912 7.18578 101.072 8.26018C101.344 8.02351 101.963 7.58815 102.47 7.99276C102.477 7.99919 102.482 8.00249 102.5 7.99405C102.836 7.83455 103.434 5.87123 103.452 4.14256C103.462 3.22505 103.317 2.05342 102.574 1.6824L102.535 1.66285L102.525 1.62036C102.475 1.41397 101.92 1.06166 100.956 0.787456C99.2044 0.289145 96.593 -0.681573 95.1225 0.747009C95.0113 1.22862 94.6492 2.25926 94.2835 2.37608C93.8785 2.50539 93.5287 2.61698 93.4736 3.11309C93.4276 3.81909 93.4309 4.52744 93.4836 5.23297C93.6208 4.80124 93.8902 4.42338 94.2538 4.15256C94.5123 3.97877 94.8179 3.88814 95.1294 3.89286V3.89286Z" fill="#2F2E41"/>
<path d="M86.4226 29.7055L94.0641 24.8183L90.2153 19.709L86.4149 24.3775L74.5737 25.1028C74.2622 24.7954 73.8679 24.585 73.4389 24.4975C73.0098 24.41 72.5645 24.449 72.1572 24.6098C71.75 24.7707 71.3984 25.0464 71.1454 25.4033C70.8923 25.7603 70.7487 26.183 70.7321 26.62C70.7155 27.0571 70.8265 27.4895 71.0517 27.8646C71.277 28.2396 71.6066 28.5412 72.0004 28.7324C72.3943 28.9236 72.8353 28.9963 73.2698 28.9415C73.7043 28.8867 74.1134 28.7069 74.4474 28.4239L86.4226 29.7055Z" fill="#FFB6B6"/>
<path d="M101.157 17.9972C101.601 20.6776 93.2256 25.796 93.2256 25.796C93.2255 25.1669 88.2267 29.9165 88.0011 29.3947C87.3598 27.9117 86.9089 24.3993 86.0129 23.8371C85.5004 23.5156 89.0992 20.4953 89.0992 20.4953C89.0992 20.4953 90.983 18.6001 93.455 16.2096C94.1414 15.5208 94.9911 15.0166 95.925 14.744C96.8589 14.4714 97.8467 14.4392 98.7965 14.6504C98.7965 14.6504 100.714 15.3168 101.157 17.9972Z" fill="#130160"/>
<path d="M116.906 30.9888L111.852 23.4629L106.818 27.4138L111.573 31.1094L112.549 42.9166C112.248 43.2341 112.046 43.6322 111.968 44.0625C111.889 44.4927 111.937 44.9365 112.107 45.3397C112.277 45.7429 112.56 46.0881 112.923 46.3332C113.286 46.5783 113.712 46.7127 114.15 46.72C114.588 46.7273 115.018 46.6073 115.389 46.3745C115.76 46.1417 116.055 45.8062 116.238 45.4089C116.421 45.0117 116.484 44.5698 116.42 44.1371C116.356 43.7045 116.167 43.2998 115.877 42.9724L116.906 30.9888Z" fill="#FFB6B6"/>
<path d="M104.872 16.5257C107.546 16.0261 112.848 24.2798 112.848 24.2798C112.218 24.2933 117.079 29.1836 116.561 29.42C115.09 30.0916 111.583 30.6162 111.039 31.5227C110.728 32.0412 107.628 28.512 107.628 28.512C107.628 28.512 105.691 26.6713 103.246 24.2538C102.542 23.5831 102.019 22.7454 101.726 21.8187C101.433 20.8921 101.38 19.9065 101.572 18.9537C101.572 18.9537 102.198 17.0253 104.872 16.5257Z" fill="#130160"/>
<path d="M118.198 93.5938C118.198 93.6232 118.193 93.6523 118.181 93.6795C118.17 93.7067 118.154 93.7313 118.133 93.7521C118.112 93.7729 118.087 93.7894 118.06 93.8006C118.033 93.8118 118.004 93.8175 117.974 93.8174H65.224C65.1646 93.8174 65.1076 93.7939 65.0656 93.7519C65.0236 93.71 65 93.6531 65 93.5938C65 93.5345 65.0236 93.4776 65.0656 93.4356C65.1076 93.3937 65.1646 93.3701 65.224 93.3701H117.974C118.004 93.37 118.033 93.3758 118.06 93.387C118.087 93.3982 118.112 93.4147 118.133 93.4354C118.154 93.4562 118.17 93.4809 118.181 93.5081C118.193 93.5353 118.198 93.5644 118.198 93.5938Z" fill="#130160"/>
</svg>
