<svg width="297" height="86" viewBox="0 0 297 86" fill="none" xmlns="http://www.w3.org/2000/svg">
<rect width="297" height="86" fill="white"/>
<path d="M63.6038 39.7859L63.3544 36.6372H62.9719L62.7183 39.8144L63.1734 40.3821L63.6038 39.7859Z" fill="#FF9228"/>
<path d="M63.4169 36.4064L63.7232 35.9924L63.5059 35.6958H62.8661L62.6482 35.9924L62.9545 36.4064H63.4169Z" fill="#FF9228"/>
<path d="M63.1996 34.6532C65.0867 34.6532 66.6165 33.1397 66.6165 31.2726C66.6165 29.4056 65.0867 27.8921 63.1996 27.8921C61.3125 27.8921 59.7827 29.4056 59.7827 31.2726C59.7827 33.1397 61.3125 34.6532 63.1996 34.6532Z" fill="#FF9228"/>
<path d="M66.8005 48.5785L69.0049 45.2718V38.7491C69.0049 38.7491 68.5643 37.1881 67.976 36.9678C67.976 36.9678 67.315 36.2329 65.9924 36.0859C65.9924 36.0859 65.7715 35.9394 65.5512 36.38L63.6409 41.7441C63.6409 41.7441 63.1264 42.4057 62.8322 41.7441L60.848 36.236C60.848 36.236 60.5545 36.0156 60.4443 36.1258C60.4443 36.1258 59.195 36.2729 58.5334 36.8606C58.2327 37.1081 57.9743 37.4029 57.7683 37.7335C60.727 41.6049 63.7397 45.4415 66.8065 49.2431L66.8005 48.5785Z" fill="#FF9228"/>
<path d="M56.5027 40.6211C56.3308 40.8928 56.2164 41.1969 56.1667 41.5145V48.0952L58.3343 51.4716V59.7035C58.3343 59.7035 58.2611 59.9971 58.775 59.9971H65.3067C65.3067 59.9971 65.6093 59.9971 65.6093 59.6297L65.5403 52.1337C62.4824 48.3301 59.4698 44.4925 56.5027 40.6211Z" fill="#130160"/>
<path d="M91.9817 44.5165C91.8909 47.9295 91.5124 51.0367 90.8461 53.8379C90.2433 56.3499 89.39 58.6327 88.2864 60.6862C88.1599 60.9217 88.0309 61.1529 87.8972 61.3805C86.5964 63.608 85.3416 65.2289 83.1977 66.7525C80.9799 68.3262 84.9403 65.807 82.7637 67.1762L80.2317 68.6228C77.2519 64.7332 76.9765 64.2829 73.9912 60.8993C73.9894 60.8967 73.9873 60.8943 73.9851 60.892C74.0269 60.8605 74.0759 60.8381 74.1159 60.8049C78.0487 57.6501 80.1194 52.0925 80.328 44.1321C80.4765 38.5231 79.7413 34.3013 78.1223 31.467C76.5034 28.6326 74.4651 26.8014 72.0076 25.9733C69.5498 25.1465 66.5655 24.6865 63.0548 24.5933L54.2296 24.1908L50.4163 23.9153L50.2232 23.9014C49.719 23.2271 49.2711 22.6358 48.8613 22.1019C46.773 19.3896 45.6314 18.1675 42.8689 15.0242L44.8954 15L50.3134 15.1435L66.2374 15.5623C70.1363 15.6668 73.4698 16.1172 76.238 16.9133C79.0062 17.7095 81.5008 19.1321 83.7219 21.1812C89.4988 26.4025 92.252 34.1809 91.9817 44.5165Z" fill="#130160"/>
<path d="M79.464 67.5972C79.4529 67.6045 79.4419 67.6119 79.4289 67.6193L79.4124 67.5972H79.464Z" fill="#130160"/>
<path d="M46.7653 26.3308L46.9572 26.3471V70.2508H39V17.6255H39.5732C42.2783 20.7125 43.3962 21.9103 45.4361 24.5682C45.8356 25.0906 46.2732 25.671 46.7653 26.3308Z" fill="#FF9228"/>
<path d="M75.5857 70.1508L39.023 70.2507L39 63.0435L69.7143 62.96C72.1688 65.9495 72.6857 66.6274 75.5857 70.1508Z" fill="#FF9228"/>
<path d="M117.807 57H113.555L113.582 54.2793H117.807C119.037 54.2793 120.067 54.0104 120.896 53.4727C121.735 52.9349 122.364 52.1647 122.783 51.1621C123.212 50.1595 123.426 48.9655 123.426 47.5801V46.5C123.426 45.4245 123.303 44.472 123.057 43.6426C122.82 42.8132 122.464 42.1159 121.99 41.5508C121.525 40.9857 120.951 40.5573 120.268 40.2656C119.593 39.974 118.814 39.8281 117.93 39.8281H113.473V37.0938H117.93C119.251 37.0938 120.459 37.3171 121.553 37.7637C122.646 38.2012 123.59 38.8346 124.383 39.6641C125.185 40.4935 125.8 41.487 126.229 42.6445C126.657 43.8021 126.871 45.0964 126.871 46.5273V47.5801C126.871 49.0111 126.657 50.3053 126.229 51.4629C125.8 52.6204 125.185 53.6139 124.383 54.4434C123.581 55.2637 122.624 55.8971 121.512 56.3438C120.409 56.7812 119.174 57 117.807 57ZM115.455 37.0938V57H112.023V37.0938H115.455ZM138.328 54.0332V46.9785C138.328 46.4499 138.232 45.9941 138.041 45.6113C137.85 45.2285 137.558 44.9323 137.166 44.7227C136.783 44.513 136.3 44.4082 135.717 44.4082C135.179 44.4082 134.714 44.4993 134.322 44.6816C133.93 44.8639 133.625 45.11 133.406 45.4199C133.188 45.7298 133.078 46.0807 133.078 46.4727H129.797C129.797 45.8893 129.938 45.3242 130.221 44.7773C130.503 44.2305 130.913 43.7428 131.451 43.3145C131.989 42.8861 132.632 42.5488 133.379 42.3027C134.126 42.0566 134.965 41.9336 135.895 41.9336C137.007 41.9336 137.991 42.1204 138.848 42.4941C139.714 42.8678 140.393 43.4329 140.885 44.1895C141.386 44.9368 141.637 45.8757 141.637 47.0059V53.582C141.637 54.2565 141.682 54.8626 141.773 55.4004C141.874 55.929 142.015 56.3893 142.197 56.7812V57H138.82C138.665 56.6445 138.542 56.1934 138.451 55.6465C138.369 55.0905 138.328 54.5527 138.328 54.0332ZM138.807 48.0039L138.834 50.041H136.469C135.858 50.041 135.32 50.1003 134.855 50.2188C134.391 50.3281 134.003 50.4922 133.693 50.7109C133.383 50.9297 133.151 51.194 132.996 51.5039C132.841 51.8138 132.764 52.1647 132.764 52.5566C132.764 52.9486 132.855 53.3086 133.037 53.6367C133.219 53.9557 133.484 54.2064 133.83 54.3887C134.186 54.571 134.614 54.6621 135.115 54.6621C135.79 54.6621 136.378 54.5254 136.879 54.252C137.389 53.9694 137.79 53.6276 138.082 53.2266C138.374 52.8164 138.529 52.429 138.547 52.0645L139.613 53.5273C139.504 53.901 139.317 54.3021 139.053 54.7305C138.788 55.1589 138.442 55.569 138.014 55.9609C137.594 56.3438 137.089 56.6582 136.496 56.9043C135.913 57.1504 135.238 57.2734 134.473 57.2734C133.507 57.2734 132.645 57.082 131.889 56.6992C131.132 56.3073 130.54 55.7832 130.111 55.127C129.683 54.4616 129.469 53.7096 129.469 52.8711C129.469 52.0872 129.615 51.3945 129.906 50.793C130.207 50.1823 130.645 49.6719 131.219 49.2617C131.802 48.8516 132.513 48.5417 133.352 48.332C134.19 48.1133 135.147 48.0039 136.223 48.0039H138.807ZM148.609 42.207V57H145.301V42.207H148.609ZM145.082 38.3242C145.082 37.8229 145.246 37.4082 145.574 37.0801C145.911 36.7428 146.376 36.5742 146.969 36.5742C147.552 36.5742 148.012 36.7428 148.35 37.0801C148.687 37.4082 148.855 37.8229 148.855 38.3242C148.855 38.8164 148.687 39.2266 148.35 39.5547C148.012 39.8828 147.552 40.0469 146.969 40.0469C146.376 40.0469 145.911 39.8828 145.574 39.5547C145.246 39.2266 145.082 38.8164 145.082 38.3242ZM155.746 36V57H152.438V36H155.746ZM163.648 55.3867L167.668 42.207H171.195L165.262 59.2559C165.125 59.6204 164.947 60.0169 164.729 60.4453C164.51 60.8737 164.223 61.2793 163.867 61.6621C163.521 62.054 163.088 62.3685 162.568 62.6055C162.049 62.8516 161.42 62.9746 160.682 62.9746C160.39 62.9746 160.107 62.9473 159.834 62.8926C159.57 62.847 159.319 62.7969 159.082 62.7422L159.068 60.2266C159.16 60.2357 159.269 60.2448 159.396 60.2539C159.533 60.263 159.643 60.2676 159.725 60.2676C160.271 60.2676 160.727 60.1992 161.092 60.0625C161.456 59.9349 161.753 59.7253 161.98 59.4336C162.217 59.1419 162.418 58.75 162.582 58.2578L163.648 55.3867ZM161.379 42.207L164.893 53.2812L165.48 56.7539L163.197 57.3418L157.824 42.207H161.379ZM196.543 54.0332V46.9785C196.543 46.4499 196.447 45.9941 196.256 45.6113C196.064 45.2285 195.773 44.9323 195.381 44.7227C194.998 44.513 194.515 44.4082 193.932 44.4082C193.394 44.4082 192.929 44.4993 192.537 44.6816C192.145 44.8639 191.84 45.11 191.621 45.4199C191.402 45.7298 191.293 46.0807 191.293 46.4727H188.012C188.012 45.8893 188.153 45.3242 188.436 44.7773C188.718 44.2305 189.128 43.7428 189.666 43.3145C190.204 42.8861 190.846 42.5488 191.594 42.3027C192.341 42.0566 193.18 41.9336 194.109 41.9336C195.221 41.9336 196.206 42.1204 197.062 42.4941C197.928 42.8678 198.607 43.4329 199.1 44.1895C199.601 44.9368 199.852 45.8757 199.852 47.0059V53.582C199.852 54.2565 199.897 54.8626 199.988 55.4004C200.089 55.929 200.23 56.3893 200.412 56.7812V57H197.035C196.88 56.6445 196.757 56.1934 196.666 55.6465C196.584 55.0905 196.543 54.5527 196.543 54.0332ZM197.021 48.0039L197.049 50.041H194.684C194.073 50.041 193.535 50.1003 193.07 50.2188C192.605 50.3281 192.218 50.4922 191.908 50.7109C191.598 50.9297 191.366 51.194 191.211 51.5039C191.056 51.8138 190.979 52.1647 190.979 52.5566C190.979 52.9486 191.07 53.3086 191.252 53.6367C191.434 53.9557 191.699 54.2064 192.045 54.3887C192.4 54.571 192.829 54.6621 193.33 54.6621C194.005 54.6621 194.592 54.5254 195.094 54.252C195.604 53.9694 196.005 53.6276 196.297 53.2266C196.589 52.8164 196.743 52.429 196.762 52.0645L197.828 53.5273C197.719 53.901 197.532 54.3021 197.268 54.7305C197.003 55.1589 196.657 55.569 196.229 55.9609C195.809 56.3438 195.303 56.6582 194.711 56.9043C194.128 57.1504 193.453 57.2734 192.688 57.2734C191.721 57.2734 190.86 57.082 190.104 56.6992C189.347 56.3073 188.755 55.7832 188.326 55.127C187.898 54.4616 187.684 53.7096 187.684 52.8711C187.684 52.0872 187.829 51.3945 188.121 50.793C188.422 50.1823 188.859 49.6719 189.434 49.2617C190.017 48.8516 190.728 48.5417 191.566 48.332C192.405 48.1133 193.362 48.0039 194.438 48.0039H197.021ZM206.564 45.3652V57H203.27V42.207H206.373L206.564 45.3652ZM205.977 49.0566L204.91 49.043C204.919 47.9948 205.065 47.0332 205.348 46.1582C205.639 45.2832 206.04 44.5312 206.551 43.9023C207.07 43.2734 207.69 42.7904 208.41 42.4531C209.13 42.1068 209.932 41.9336 210.816 41.9336C211.527 41.9336 212.17 42.0339 212.744 42.2344C213.327 42.4258 213.824 42.7402 214.234 43.1777C214.654 43.6152 214.973 44.1849 215.191 44.8867C215.41 45.5794 215.52 46.4316 215.52 47.4434V57H212.211V47.4297C212.211 46.7188 212.106 46.1582 211.896 45.748C211.696 45.3288 211.4 45.0326 211.008 44.8594C210.625 44.6771 210.146 44.5859 209.572 44.5859C209.007 44.5859 208.501 44.7044 208.055 44.9414C207.608 45.1784 207.23 45.502 206.92 45.9121C206.619 46.3223 206.387 46.7962 206.223 47.334C206.059 47.8717 205.977 48.446 205.977 49.0566ZM224.926 54.6484C225.464 54.6484 225.947 54.5436 226.375 54.334C226.812 54.1152 227.163 53.8145 227.428 53.4316C227.701 53.0488 227.852 52.6068 227.879 52.1055H230.982C230.964 53.0625 230.682 53.9329 230.135 54.7168C229.588 55.5007 228.863 56.125 227.961 56.5898C227.059 57.0456 226.061 57.2734 224.967 57.2734C223.837 57.2734 222.852 57.082 222.014 56.6992C221.175 56.3073 220.478 55.7695 219.922 55.0859C219.366 54.4023 218.947 53.6139 218.664 52.7207C218.391 51.8275 218.254 50.8704 218.254 49.8496V49.3711C218.254 48.3503 218.391 47.3932 218.664 46.5C218.947 45.5977 219.366 44.8047 219.922 44.1211C220.478 43.4375 221.175 42.9043 222.014 42.5215C222.852 42.1296 223.832 41.9336 224.953 41.9336C226.138 41.9336 227.177 42.1706 228.07 42.6445C228.964 43.1094 229.665 43.7611 230.176 44.5996C230.695 45.429 230.964 46.3952 230.982 47.498H227.879C227.852 46.9512 227.715 46.459 227.469 46.0215C227.232 45.5749 226.895 45.2194 226.457 44.9551C226.029 44.6908 225.514 44.5586 224.912 44.5586C224.247 44.5586 223.695 44.6953 223.258 44.9688C222.82 45.2331 222.479 45.5977 222.232 46.0625C221.986 46.5182 221.809 47.0332 221.699 47.6074C221.599 48.1725 221.549 48.7604 221.549 49.3711V49.8496C221.549 50.4603 221.599 51.0527 221.699 51.627C221.799 52.2012 221.973 52.7161 222.219 53.1719C222.474 53.6185 222.82 53.9785 223.258 54.252C223.695 54.5163 224.251 54.6484 224.926 54.6484ZM240.033 57.2734C238.939 57.2734 237.951 57.0957 237.066 56.7402C236.191 56.3757 235.444 55.8698 234.824 55.2227C234.214 54.5755 233.744 53.8145 233.416 52.9395C233.088 52.0645 232.924 51.1211 232.924 50.1094V49.5625C232.924 48.4049 233.092 47.3568 233.43 46.418C233.767 45.4792 234.236 44.6771 234.838 44.0117C235.439 43.3372 236.15 42.8223 236.971 42.4668C237.791 42.1113 238.68 41.9336 239.637 41.9336C240.694 41.9336 241.619 42.1113 242.412 42.4668C243.205 42.8223 243.861 43.3236 244.381 43.9707C244.91 44.6087 245.301 45.3698 245.557 46.2539C245.821 47.138 245.953 48.1133 245.953 49.1797V50.5879H234.523V48.2227H242.699V47.9629C242.681 47.3704 242.562 46.8145 242.344 46.2949C242.134 45.7754 241.811 45.3561 241.373 45.0371C240.936 44.7181 240.352 44.5586 239.623 44.5586C239.076 44.5586 238.589 44.6771 238.16 44.9141C237.741 45.1419 237.39 45.4746 237.107 45.9121C236.825 46.3496 236.606 46.8783 236.451 47.498C236.305 48.1087 236.232 48.7969 236.232 49.5625V50.1094C236.232 50.7565 236.319 51.3581 236.492 51.9141C236.674 52.4609 236.939 52.9395 237.285 53.3496C237.632 53.7598 238.051 54.0833 238.543 54.3203C239.035 54.5482 239.596 54.6621 240.225 54.6621C241.018 54.6621 241.724 54.5026 242.344 54.1836C242.964 53.8646 243.501 53.4134 243.957 52.8301L245.693 54.5117C245.374 54.9766 244.96 55.4232 244.449 55.8516C243.939 56.2708 243.314 56.6126 242.576 56.877C241.847 57.1413 240.999 57.2734 240.033 57.2734ZM251.832 45.0234V57H248.537V42.207H251.682L251.832 45.0234ZM256.357 42.1113L256.33 45.1738C256.13 45.1374 255.911 45.11 255.674 45.0918C255.446 45.0736 255.218 45.0645 254.99 45.0645C254.425 45.0645 253.928 45.1465 253.5 45.3105C253.072 45.4655 252.712 45.6934 252.42 45.9941C252.137 46.2858 251.919 46.6413 251.764 47.0605C251.609 47.4798 251.518 47.9492 251.49 48.4688L250.738 48.5234C250.738 47.5938 250.829 46.7324 251.012 45.9395C251.194 45.1465 251.467 44.4492 251.832 43.8477C252.206 43.2461 252.671 42.7767 253.227 42.4395C253.792 42.1022 254.443 41.9336 255.182 41.9336C255.382 41.9336 255.596 41.9518 255.824 41.9883C256.061 42.0247 256.239 42.0658 256.357 42.1113Z" fill="#130160"/>
<path d="M185.879 54.2793V57H175.885V54.2793H185.879ZM176.842 37.0938V57H173.41V37.0938H176.842Z" fill="#FF9228"/>
</svg>
