<svg width="139" height="117" viewBox="0 0 139 117" fill="none" xmlns="http://www.w3.org/2000/svg">
<g clip-path="url(#clip0_573_657)">
<path d="M6.7065 39.8704L0.00426334 36.2398C-0.0861424 32.3554 0.810718 28.5086 2.61697 25.0332C4.1622 31.7784 12.2942 34.9876 16.0462 40.877C17.2018 42.7225 17.9108 44.7944 18.1206 46.9392C18.3304 49.0841 18.0357 51.2468 17.2583 53.2672L17.6991 58.497C14.2351 57.4992 11.0373 55.7909 8.32587 53.49C5.61445 51.1891 3.45392 48.3502 1.99313 45.1689C1.19202 43.3764 0.6288 41.494 0.316768 39.5662C3.44164 39.886 6.7065 39.8704 6.7065 39.8704Z" fill="#F2F2F2"/>
<path d="M127.192 105.92L127.397 101.476C129.539 100.375 131.929 99.7929 134.358 99.7812C131.015 102.41 131.433 107.478 129.166 111.013C128.45 112.111 127.487 113.039 126.347 113.73C125.208 114.42 123.921 114.855 122.583 115.003L119.785 116.65C119.401 114.592 119.486 112.478 120.033 110.454C120.581 108.43 121.578 106.544 122.956 104.927C123.738 104.027 124.635 103.225 125.626 102.541C126.296 104.24 127.192 105.92 127.192 105.92Z" fill="#E6E6E6"/>
<path d="M119.981 114.363L117.447 114.363L116.242 104.965L119.981 104.965L119.981 114.363Z" fill="#FFB6B6"/>
<path d="M120.628 116.725L112.459 116.725V116.625C112.459 115.814 112.794 115.036 113.39 114.463C113.987 113.889 114.795 113.567 115.639 113.567H115.639L117.131 112.479L119.915 113.567L120.628 113.567L120.628 116.725Z" fill="#2F2E41"/>
<path d="M108.211 114.363L105.678 114.363L104.473 104.965L108.212 104.965L108.211 114.363Z" fill="#FFB6B6"/>
<path d="M108.858 116.725L100.689 116.725V116.625C100.69 115.814 101.025 115.036 101.621 114.463C102.217 113.889 103.026 113.567 103.869 113.567H103.869L105.361 112.479L108.145 113.567L108.858 113.567L108.858 116.725Z" fill="#2F2E41"/>
<path d="M107.114 62.9834L123.593 63.3796C126.723 65.0145 126.77 68.5528 125.745 72.7539C125.745 72.7539 126.091 75.2509 125.398 75.9168C124.706 76.5827 124.36 76.5827 124.706 77.7479C125.052 78.9132 123.223 80.8164 123.445 81.0301C123.668 81.2437 124.187 82.409 124.187 82.409L122.456 91.8976C122.456 91.8976 121.244 108.378 120.898 108.711C120.552 109.044 120.206 108.711 120.552 109.543C120.898 110.375 121.244 110.042 120.898 110.375C120.592 110.693 120.303 111.027 120.033 111.374H115.848C115.848 111.374 115.533 109.709 115.533 109.543C115.533 109.377 115.186 108.378 115.186 108.211C115.186 108.045 115.492 107.751 115.492 107.751C115.598 107.412 115.67 107.065 115.706 106.713C115.706 106.38 116.744 93.5622 116.744 93.5622L114.667 76.9156L109.648 93.2293C109.648 93.2293 109.648 107.545 109.302 107.878C108.955 108.211 108.955 108.045 109.128 108.711C109.302 109.377 109.994 109.21 109.475 109.709C108.955 110.209 108.782 109.377 108.955 110.209L109.128 111.041L103.936 111.113C103.936 111.113 103.244 109.709 103.59 109.21C103.936 108.711 103.915 108.847 103.493 108.03C103.07 107.212 102.897 107.046 103.07 106.88C103.243 106.713 103.244 105.828 103.244 105.828L104.109 89.9C104.109 89.9 104.282 73.0869 104.282 72.5875C104.295 72.3305 104.246 72.0741 104.138 71.8386V71.1607L104.801 68.7587L107.114 62.9834Z" fill="#69687F"/>
<path d="M117.014 30.029C119.842 30.029 122.134 27.8244 122.134 25.1048C122.134 22.3853 119.842 20.1807 117.014 20.1807C114.187 20.1807 111.895 22.3853 111.895 25.1048C111.895 27.8244 114.187 30.029 117.014 30.029Z" fill="#FFB6B6"/>
<path d="M114.455 33.2839C113.352 33.9146 112.692 35.0734 112.313 36.2526C111.612 38.4356 111.19 40.6927 111.056 42.974L110.656 49.8037L105.701 64.3461C109.995 67.8406 126.136 65.1403 126.136 65.1403C126.136 65.1403 126.632 64.9815 126.136 64.5049C125.641 64.0284 125.159 64.4506 125.654 63.974C126.15 63.4975 125.808 64.0284 125.643 63.5519C125.478 63.0753 125.643 63.393 125.808 63.2342C125.973 63.0753 124.529 61.6457 124.529 61.6457L125.851 53.2983L127.502 36.4608C125.52 34.0781 121.534 32.6736 121.534 32.6736L120.505 30.8906L115.355 31.2868L114.455 33.2839Z" fill="#130160"/>
<path d="M113.752 22.2156C113.95 22.2171 114.147 22.242 114.339 22.2897C114.717 22.3771 115.101 22.439 115.488 22.475C116.673 22.5823 117.787 23.0684 118.651 23.8558C119.516 24.6433 120.081 25.6865 120.256 26.819C120.554 26.5695 121.231 26.1106 121.786 26.5371C121.794 26.5439 121.799 26.5474 121.818 26.5385C122.187 26.3703 122.841 24.3009 122.861 22.4788C122.871 21.5117 122.713 20.2767 121.9 19.8856L121.857 19.865L121.846 19.8203C121.791 19.6027 121.184 19.2314 120.129 18.9423C118.212 18.4171 115.354 17.3939 113.744 18.8997C113.622 19.4073 113.226 20.4937 112.826 20.6168C112.383 20.7531 112 20.8707 111.94 21.3937C111.889 22.1378 111.893 22.8845 111.95 23.6281C112.101 23.1731 112.396 22.7748 112.793 22.4893C113.076 22.3061 113.411 22.2106 113.752 22.2156V22.2156Z" fill="#2F2E41"/>
<path d="M104.222 49.4236L112.585 44.2722L108.373 38.8867L104.213 43.8076L91.2532 44.5721C90.9123 44.248 90.4808 44.0263 90.0112 43.9341C89.5416 43.8418 89.0542 43.883 88.6085 44.0525C88.1627 44.222 87.7779 44.5126 87.501 44.8889C87.224 45.2651 87.0668 45.7107 87.0487 46.1713C87.0305 46.632 87.152 47.0878 87.3985 47.4831C87.645 47.8785 88.0058 48.1963 88.4368 48.3979C88.8679 48.5995 89.3506 48.676 89.8262 48.6183C90.3017 48.5606 90.7495 48.371 91.115 48.0727L104.222 49.4236Z" fill="#FFB6B6"/>
<path d="M120.349 37.082C120.834 39.9073 111.668 45.3024 111.668 45.3024C111.668 44.6393 106.196 49.6456 105.95 49.0956C105.248 47.5325 104.754 43.8302 103.773 43.2376C103.213 42.8987 107.151 39.7152 107.151 39.7152C107.151 39.7152 109.213 37.7175 111.919 35.1978C112.67 34.4718 113.6 33.9404 114.622 33.653C115.644 33.3656 116.725 33.3317 117.765 33.5543C117.765 33.5543 119.864 34.2567 120.349 37.082Z" fill="#130160"/>
<path d="M137.586 50.7755L132.054 42.8428L126.545 47.0072L131.748 50.9026L132.818 63.348C132.488 63.6827 132.267 64.1023 132.181 64.5558C132.095 65.0093 132.148 65.4771 132.333 65.9021C132.519 66.3271 132.829 66.6909 133.226 66.9492C133.623 67.2076 134.09 67.3493 134.569 67.357C135.048 67.3648 135.52 67.2382 135.925 66.9928C136.331 66.7475 136.654 66.3938 136.854 65.9751C137.055 65.5563 137.124 65.0905 137.054 64.6345C136.984 64.1785 136.777 63.7519 136.459 63.4068L137.586 50.7755Z" fill="#FFB6B6"/>
<path d="M124.415 35.5308C127.342 35.0042 133.145 43.7041 133.145 43.7041C132.455 43.7182 137.775 48.8729 137.209 49.122C135.599 49.83 131.761 50.3829 131.165 51.3385C130.825 51.885 127.432 48.165 127.432 48.165C127.432 48.165 125.312 46.2248 122.635 43.6766C121.865 42.9697 121.292 42.0867 120.972 41.1099C120.652 40.1332 120.594 39.0943 120.803 38.0901C120.803 38.0901 121.489 36.0573 124.415 35.5308Z" fill="#130160"/>
<path d="M139 116.764C139 116.795 138.994 116.826 138.982 116.854C138.969 116.883 138.951 116.909 138.929 116.931C138.906 116.953 138.879 116.97 138.849 116.982C138.819 116.994 138.787 117 138.755 117H81.0205C80.9555 117 80.8931 116.975 80.8472 116.931C80.8012 116.887 80.7754 116.827 80.7754 116.764C80.7754 116.702 80.8012 116.642 80.8472 116.597C80.8931 116.553 80.9555 116.528 81.0205 116.528H138.755C138.787 116.528 138.819 116.534 138.849 116.546C138.879 116.558 138.906 116.575 138.929 116.597C138.951 116.619 138.969 116.645 138.982 116.674C138.994 116.702 139 116.733 139 116.764Z" fill="#130160"/>
<path d="M85.5161 45.3242H15.4474C14.3527 45.3254 13.3032 45.7442 12.5291 46.4887C11.755 47.2331 11.3196 48.2425 11.3184 49.2954V91.2515C11.3196 92.3043 11.755 93.3137 12.5291 94.0582C13.3032 94.8026 14.3527 95.2214 15.4474 95.2226H85.5161C86.6108 95.2214 87.6603 94.8027 88.4344 94.0582C89.2085 93.3137 89.644 92.3043 89.6452 91.2515V49.2954C89.644 48.2425 89.2086 47.2331 88.4345 46.4886C87.6604 45.7442 86.6109 45.3254 85.5161 45.3242Z" fill="#FCA34D"/>
<path d="M85.5161 45.3242H15.4474C14.3527 45.3254 13.3032 45.7442 12.5291 46.4887C11.755 47.2331 11.3196 48.2425 11.3184 49.2954V91.2515C11.3196 92.3043 11.755 93.3137 12.5291 94.0582C13.3032 94.8026 14.3527 95.2214 15.4474 95.2226H85.5161C86.6108 95.2215 87.6603 94.8027 88.4344 94.0582C89.2085 93.3137 89.644 92.3043 89.6452 91.2515V49.2954C89.644 48.2425 89.2086 47.2331 88.4345 46.4886C87.6604 45.7442 86.6109 45.3254 85.5161 45.3242ZM86.8712 75.4618C86.8544 79.7332 85.0977 83.8281 81.9778 86.8681C78.858 89.9081 74.6235 91.651 70.1829 91.7229C63.0731 91.8119 74.1166 91.8466 65.5418 91.8466C45.9338 91.8466 25.4882 91.6664 17.8597 91.5496C16.856 91.5297 15.9002 91.1332 15.1963 90.4448C14.4924 89.7564 14.0963 88.8306 14.0924 87.8651V49.2985C14.0928 48.9527 14.2355 48.6212 14.4894 48.3764C14.7433 48.1317 15.0876 47.9936 15.4471 47.9923H85.5133C85.8727 47.9927 86.2173 48.13 86.4718 48.3741C86.7263 48.6182 86.8699 48.9493 86.8712 49.295V75.4618Z" fill="#130160"/>
<path d="M76.8903 21.165H23.5054C23.033 21.1657 22.5724 21.3065 22.1864 21.5683C21.8004 21.8301 21.5078 22.2001 21.3485 22.6278L13.1036 44.8749C12.9805 45.2069 12.9422 45.5625 12.9917 45.9118C13.0412 46.2611 13.1772 46.5939 13.3883 46.8821C13.5993 47.1703 13.8792 47.4056 14.2044 47.5682C14.5296 47.7308 14.8907 47.8159 15.2572 47.8164L86.8552 47.9387H86.8584C87.2373 47.9386 87.6103 47.8482 87.9439 47.6754C88.2775 47.5026 88.5613 47.253 88.7699 46.9487C88.9785 46.6445 89.1053 46.2952 89.139 45.9323C89.1727 45.5693 89.1122 45.2039 88.963 44.869L88.8381 44.9204L88.963 44.869L78.9949 22.4997C78.8187 22.1034 78.5253 21.7656 78.1511 21.5283C77.7769 21.291 77.3385 21.1647 76.8903 21.165V21.165Z" fill="#130160"/>
<path d="M89.148 45.3523C89.1478 45.6506 89.0847 45.9458 88.9626 46.22L78.9952 63.4392C78.8177 63.8347 78.5239 64.1716 78.1498 64.4085C77.7758 64.6454 77.3379 64.7719 76.8901 64.7725H23.5058C23.0333 64.772 22.5725 64.6314 22.1861 64.3697C21.7998 64.1081 21.5068 63.7382 21.3471 63.3105L13.1038 46.2141C13.0027 45.9417 12.9585 45.6529 12.9736 45.364C12.9887 45.0752 13.0628 44.7921 13.1918 44.5308C13.3207 44.2696 13.5019 44.0353 13.725 43.8414C13.9481 43.6476 14.2088 43.4979 14.4921 43.401C14.7372 43.3159 14.9957 43.2723 15.2563 43.2722L24.0023 43.2564L27.5719 43.2504L74.5439 43.1712L78.1156 43.1653L86.8554 43.1494H86.8575C87.4649 43.1495 88.0475 43.3816 88.477 43.7947C88.9065 44.2078 89.1479 44.7681 89.148 45.3523V45.3523Z" fill="#130160"/>
<path d="M20.7 76.7969C21.7586 76.7969 36.2957 77.6513 36.2957 78.6695C36.2957 79.6876 21.7586 80.4838 20.7 80.4838C20.1916 80.4838 19.7041 80.2896 19.3446 79.9439C18.9851 79.5982 18.7832 79.1293 18.7832 78.6404C18.7832 78.1514 18.9851 77.6825 19.3446 77.3368C19.7041 76.9911 20.1916 76.7969 20.7 76.7969V76.7969Z" fill="#130160"/>
<path d="M66.541 60.3662H35.5738C35.3061 60.3662 35.0494 60.4685 34.8601 60.6505C34.6708 60.8326 34.5645 61.0795 34.5645 61.3369C34.5645 61.5944 34.6708 61.8413 34.8601 62.0233C35.0494 62.2054 35.3061 62.3076 35.5738 62.3076H66.541C66.8087 62.3076 67.0654 62.2054 67.2547 62.0233C67.444 61.8413 67.5503 61.5944 67.5503 61.3369C67.5503 61.0795 67.444 60.8326 67.2547 60.6505C67.0654 60.4685 66.8087 60.3662 66.541 60.3662V60.3662Z" fill="#E4E4E4"/>
<path d="M50.7443 75.8918C50.5715 75.8919 50.4003 75.8594 50.2403 75.796L21.8555 64.3684V28.5983C21.8558 28.282 21.9855 27.9788 22.216 27.7551C22.4465 27.5315 22.7591 27.4056 23.0851 27.4053H77.5392C77.8652 27.4056 78.1778 27.5315 78.4083 27.7551C78.6388 27.9788 78.7685 28.282 78.7689 28.5983V64.3934L78.7155 64.4155L51.2635 75.7904C51.0991 75.8574 50.9226 75.8919 50.7443 75.8918Z" fill="white"/>
<path d="M50.7042 64.2179C58.4293 64.2179 64.6916 58.1132 64.6916 50.5826C64.6916 43.052 58.4293 36.9473 50.7042 36.9473C42.9792 36.9473 36.7168 43.052 36.7168 50.5826C36.7168 58.1132 42.9792 64.2179 50.7042 64.2179Z" fill="#FCA34D"/>
<path d="M48.8731 58.0605C48.6411 58.0605 48.4122 58.0062 48.2047 57.9017C47.9972 57.7973 47.8168 57.6456 47.6776 57.4588L44.0123 52.5401C43.8939 52.3821 43.8076 52.2022 43.7584 52.0106C43.7093 51.819 43.6981 51.6196 43.7257 51.4237C43.7532 51.2277 43.8189 51.0392 43.919 50.8689C44.019 50.6986 44.1515 50.5498 44.3088 50.4311C44.466 50.3124 44.6451 50.226 44.8355 50.1771C45.026 50.1281 45.2242 50.1174 45.4188 50.1457C45.6134 50.174 45.8005 50.2406 45.9695 50.3418C46.1385 50.4429 46.2859 50.5766 46.4034 50.7353L48.8014 53.9529L54.9603 44.6551C55.1802 44.3232 55.5221 44.0928 55.9108 44.0146C56.2994 43.9363 56.7031 44.0167 57.0329 44.238C57.3627 44.4593 57.5916 44.8033 57.6693 45.1945C57.7471 45.5857 57.6672 45.9919 57.4473 46.3238L50.1167 57.3907C49.9841 57.5909 49.8057 57.7561 49.5966 57.8726C49.3874 57.989 49.1536 58.0533 48.9147 58.0601C48.9008 58.0603 48.8869 58.0605 48.8731 58.0605Z" fill="white"/>
</g>
<defs>
<clipPath id="clip0_573_657">
<rect width="139" height="117" fill="white"/>
</clipPath>
</defs>
</svg>
