<svg width="357" height="228" viewBox="0 0 357 228" fill="none" xmlns="http://www.w3.org/2000/svg">
<g clip-path="url(#clip0_504_359)">
<path d="M53.6439 62.2608C54.2382 55.86 55.8798 49.6003 58.5029 43.7315C59.234 42.0983 60.0387 40.5011 60.9169 38.9398C60.961 38.8581 60.9716 38.7625 60.9465 38.6732C60.9214 38.5839 60.8627 38.5078 60.7826 38.461C60.7025 38.4142 60.6074 38.4003 60.5172 38.4223C60.4271 38.4443 60.349 38.5004 60.2995 38.5788C57.1056 44.2655 54.868 50.4384 53.6763 56.8508C53.3448 58.6415 53.0956 60.4448 52.9288 62.2608C52.8864 62.7189 53.6018 62.716 53.6439 62.2608Z" fill="#E6E6E6"/>
<path d="M62.6491 40.0867C65.1503 40.0867 67.178 38.059 67.178 35.5577C67.178 33.0565 65.1503 31.0288 62.6491 31.0288C60.1478 31.0288 58.1201 33.0565 58.1201 35.5577C58.1201 38.059 60.1478 40.0867 62.6491 40.0867Z" fill="#E6E6E6"/>
<path d="M54.1072 62.381C54.4928 58.2285 55.5577 54.1675 57.2594 50.3601C57.7337 49.3006 58.2558 48.2644 58.8255 47.2515C58.8541 47.1985 58.861 47.1365 58.8447 47.0786C58.8285 47.0206 58.7903 46.9713 58.7384 46.9409C58.6864 46.9105 58.6247 46.9015 58.5662 46.9158C58.5077 46.9301 58.4571 46.9665 58.425 47.0174C56.3529 50.7065 54.9013 54.7112 54.1282 58.8712C53.9131 60.0329 53.7515 61.2028 53.6433 62.381C53.6158 62.6781 54.0799 62.6762 54.1072 62.381Z" fill="#E6E6E6"/>
<path d="M59.9491 47.9956C61.5718 47.9956 62.8873 46.6802 62.8873 45.0575C62.8873 43.4348 61.5718 42.1194 59.9491 42.1194C58.3264 42.1194 57.011 43.4348 57.011 45.0575C57.011 46.6802 58.3264 47.9956 59.9491 47.9956Z" fill="#E6E6E6"/>
<path d="M53.5218 62.1036C51.2718 58.5923 49.6137 54.7353 48.6138 50.6866C48.3361 49.5594 48.1103 48.4213 47.9366 47.2722C47.9265 47.2129 47.8938 47.1598 47.8454 47.1241C47.7969 47.0884 47.7365 47.0729 47.6768 47.0809C47.6172 47.0889 47.563 47.1198 47.5256 47.167C47.4883 47.2142 47.4708 47.2741 47.4767 47.334C48.112 51.5173 49.4306 55.5677 51.3796 59.3233C51.9246 60.3716 52.5167 61.3934 53.156 62.3889C53.3171 62.6401 53.6818 62.3532 53.5218 62.1036Z" fill="#E6E6E6"/>
<path d="M47.473 47.7894C49.0957 47.7894 50.4112 46.4739 50.4112 44.8512C50.4112 43.2285 49.0957 41.9131 47.473 41.9131C45.8504 41.9131 44.5349 43.2285 44.5349 44.8512C44.5349 46.4739 45.8504 47.7894 47.473 47.7894Z" fill="#E6E6E6"/>
<path d="M44.502 64.7032V58.9304C44.5026 58.3565 44.7309 57.8062 45.1367 57.4004C45.5426 56.9945 46.0928 56.7663 46.6667 56.7656H60.1366C60.7105 56.7663 61.2608 56.9945 61.6666 57.4004C62.0724 57.8062 62.3007 58.3565 62.3014 58.9304V64.7032C62.3007 65.2771 62.0724 65.8274 61.6666 66.2332C61.2608 66.6391 60.7105 66.8673 60.1366 66.868H46.6667C46.0928 66.8673 45.5426 66.6391 45.1367 66.2332C44.7309 65.8274 44.5026 65.2771 44.502 64.7032Z" fill="#F2F2F2"/>
<path d="M59.6553 27.9018H53.8826C53.3086 27.9011 52.7584 27.6728 52.3525 27.267C51.9467 26.8612 51.7184 26.3109 51.7178 25.737V2.16479C51.7184 1.59085 51.9467 1.0406 52.3525 0.634767C52.7584 0.22893 53.3086 0.00064682 53.8826 0H59.6553C60.2293 0.00064682 60.7795 0.22893 61.1854 0.634767C61.5912 1.0406 61.8195 1.59085 61.8201 2.16479V25.737C61.8195 26.3109 61.5912 26.8612 61.1854 27.267C60.7795 27.6728 60.2293 27.9011 59.6553 27.9018Z" fill="#F2F2F2"/>
<path d="M61.5795 4.57007H51.9583V6.49433H61.5795V4.57007Z" fill="#CCCCCC"/>
<path d="M61.5795 19.4832H51.9583V21.4074H61.5795V19.4832Z" fill="#CCCCCC"/>
<path d="M74.0872 27.9018H68.3145C67.7405 27.9011 67.1903 27.6728 66.7844 27.267C66.3786 26.8612 66.1503 26.3109 66.1497 25.737V2.16479C66.1503 1.59085 66.3786 1.0406 66.7844 0.634767C67.1903 0.22893 67.7405 0.00064682 68.3145 0H74.0872C74.6612 0.00064682 75.2114 0.22893 75.6173 0.634767C76.0231 1.0406 76.2514 1.59085 76.252 2.16479V25.737C76.2514 26.3109 76.0231 26.8612 75.6173 27.267C75.2114 27.6728 74.6612 27.9011 74.0872 27.9018Z" fill="#F2F2F2"/>
<path d="M76.0117 4.57007H66.3904V6.49433H76.0117V4.57007Z" fill="#CCCCCC"/>
<path d="M76.0117 19.4832H66.3904V21.4074H76.0117V19.4832Z" fill="#CCCCCC"/>
<path d="M88.5194 27.9018H82.7466C82.1726 27.9011 81.6224 27.6728 81.2166 27.267C80.8107 26.8612 80.5824 26.3109 80.5818 25.737V2.16479C80.5824 1.59085 80.8107 1.0406 81.2166 0.634767C81.6224 0.22893 82.1726 0.00064682 82.7466 0H88.5194C89.0933 0.00064682 89.6436 0.22893 90.0494 0.634767C90.4552 1.0406 90.6835 1.59085 90.6841 2.16479V25.737C90.6835 26.3109 90.4552 26.8612 90.0494 27.267C89.6436 27.6728 89.0933 27.9011 88.5194 27.9018Z" fill="#F2F2F2"/>
<path d="M90.4436 4.57007H80.8223V6.49433H90.4436V4.57007Z" fill="#CCCCCC"/>
<path d="M90.4436 19.4832H80.8223V21.4074H90.4436V19.4832Z" fill="#CCCCCC"/>
<path d="M96.2164 66.8681H90.4436C89.8697 66.8674 89.3194 66.6391 88.9136 66.2333C88.5077 65.8275 88.2795 65.2772 88.2788 64.7033V41.1311C88.2795 40.5572 88.5077 40.0069 88.9136 39.6011C89.3194 39.1952 89.8697 38.967 90.4436 38.9663H96.2164C96.7903 38.967 97.3406 39.1952 97.7464 39.6011C98.1522 40.0069 98.3805 40.5572 98.3812 41.1311V64.7033C98.3805 65.2772 98.1522 65.8275 97.7464 66.2333C97.3406 66.6391 96.7903 66.8674 96.2164 66.8681Z" fill="#F2F2F2"/>
<path d="M98.1406 43.5364H88.5193V45.4606H98.1406V43.5364Z" fill="#CCCCCC"/>
<path d="M98.1406 58.4495H88.5193V60.3737H98.1406V58.4495Z" fill="#CCCCCC"/>
<path d="M110.648 66.8681H104.875C104.302 66.8674 103.751 66.6391 103.345 66.2333C102.94 65.8275 102.711 65.2772 102.711 64.7033V41.1311C102.711 40.5572 102.94 40.0069 103.345 39.6011C103.751 39.1952 104.302 38.967 104.875 38.9663H110.648C111.222 38.967 111.772 39.1952 112.178 39.6011C112.584 40.0069 112.812 40.5572 112.813 41.1311V64.7033C112.812 65.2772 112.584 65.8275 112.178 66.2333C111.772 66.6391 111.222 66.8674 110.648 66.8681Z" fill="#F2F2F2"/>
<path d="M112.572 43.5364H102.951V45.4606H112.572V43.5364Z" fill="#CCCCCC"/>
<path d="M112.572 58.4495H102.951V60.3737H112.572V58.4495Z" fill="#CCCCCC"/>
<path d="M125.08 66.8681H119.307C118.733 66.8674 118.183 66.6391 117.777 66.2333C117.372 65.8275 117.143 65.2772 117.143 64.7033V41.1311C117.143 40.5572 117.372 40.0069 117.777 39.6011C118.183 39.1952 118.733 38.967 119.307 38.9663H125.08C125.654 38.967 126.204 39.1952 126.61 39.6011C127.016 40.0069 127.244 40.5572 127.245 41.1311V64.7033C127.244 65.2772 127.016 65.8275 126.61 66.2333C126.204 66.6391 125.654 66.8674 125.08 66.8681Z" fill="#F2F2F2"/>
<path d="M127.004 43.5364H117.383V45.4606H127.004V43.5364Z" fill="#CCCCCC"/>
<path d="M127.004 58.4495H117.383V60.3737H127.004V58.4495Z" fill="#CCCCCC"/>
<path d="M58.2122 105.834H52.4395C51.8655 105.834 51.3153 105.605 50.9094 105.2C50.5036 104.794 50.2753 104.244 50.2747 103.67V80.0974C50.2753 79.5235 50.5036 78.9732 50.9094 78.5674C51.3153 78.1615 51.8655 77.9333 52.4395 77.9326H58.2122C58.7862 77.9333 59.3364 78.1615 59.7423 78.5674C60.1481 78.9732 60.3764 79.5235 60.377 80.0974V103.67C60.3764 104.244 60.1481 104.794 59.7423 105.2C59.3364 105.605 58.7862 105.834 58.2122 105.834Z" fill="#F2F2F2"/>
<path d="M60.1364 82.5027H50.5151V84.4269H60.1364V82.5027Z" fill="#CCCCCC"/>
<path d="M60.1364 97.4155H50.5151V99.3398H60.1364V97.4155Z" fill="#CCCCCC"/>
<path d="M72.6441 105.834H66.8713C66.2974 105.834 65.7472 105.605 65.3413 105.2C64.9355 104.794 64.7072 104.244 64.7065 103.67V80.0974C64.7072 79.5235 64.9355 78.9732 65.3413 78.5674C65.7472 78.1615 66.2974 77.9333 66.8713 77.9326H72.6441C73.2181 77.9333 73.7683 78.1615 74.1741 78.5674C74.58 78.9732 74.8083 79.5235 74.8089 80.0974V103.67C74.8083 104.244 74.58 104.794 74.1741 105.2C73.7683 105.605 73.2181 105.834 72.6441 105.834Z" fill="#F2F2F2"/>
<path d="M74.5683 82.5027H64.947V84.4269H74.5683V82.5027Z" fill="#CCCCCC"/>
<path d="M74.5683 97.4155H64.947V99.3398H74.5683V97.4155Z" fill="#CCCCCC"/>
<path d="M87.076 105.834H81.3032C80.7293 105.834 80.179 105.605 79.7732 105.2C79.3674 104.794 79.1391 104.244 79.1384 103.67V80.0974C79.1391 79.5235 79.3674 78.9732 79.7732 78.5674C80.179 78.1615 80.7293 77.9333 81.3032 77.9326H87.076C87.6499 77.9333 88.2002 78.1615 88.606 78.5674C89.0119 78.9732 89.2401 79.5235 89.2408 80.0974V103.67C89.2401 104.244 89.0119 104.794 88.606 105.2C88.2002 105.605 87.6499 105.834 87.076 105.834Z" fill="#F2F2F2"/>
<path d="M89.0004 82.5027H79.3792V84.4269H89.0004V82.5027Z" fill="#CCCCCC"/>
<path d="M89.0004 97.4155H79.3792V99.3398H89.0004V97.4155Z" fill="#CCCCCC"/>
<path d="M102.951 27.9018H97.1785C96.6045 27.9011 96.0543 27.6728 95.6484 27.267C95.2426 26.8612 95.0143 26.3109 95.0137 25.737V2.16479C95.0143 1.59085 95.2426 1.0406 95.6484 0.634767C96.0543 0.22893 96.6045 0.00064682 97.1785 0H102.951C103.525 0.00064682 104.075 0.22893 104.481 0.634767C104.887 1.0406 105.115 1.59085 105.116 2.16479V25.737C105.115 26.3109 104.887 26.8612 104.481 27.267C104.075 27.6728 103.525 27.9011 102.951 27.9018Z" fill="#F2F2F2"/>
<path d="M104.875 4.57007H95.2542V6.49433H104.875V4.57007Z" fill="#CCCCCC"/>
<path d="M104.875 19.4832H95.2542V21.4074H104.875V19.4832Z" fill="#CCCCCC"/>
<path d="M117.383 27.9018H111.61C111.036 27.9011 110.486 27.6728 110.08 27.267C109.674 26.8612 109.446 26.3109 109.446 25.737V2.16479C109.446 1.59085 109.674 1.0406 110.08 0.634767C110.486 0.22893 111.036 0.00064682 111.61 0H117.383C117.957 0.00064682 118.507 0.22893 118.913 0.634767C119.319 1.0406 119.547 1.59085 119.548 2.16479V25.737C119.547 26.3109 119.319 26.8612 118.913 27.267C118.507 27.6728 117.957 27.9011 117.383 27.9018Z" fill="#F2F2F2"/>
<path d="M119.307 4.57007H109.686V6.49433H119.307V4.57007Z" fill="#CCCCCC"/>
<path d="M119.307 19.4832H109.686V21.4074H119.307V19.4832Z" fill="#CCCCCC"/>
<path d="M131.815 27.9018H126.042C125.468 27.9011 124.918 27.6728 124.512 27.267C124.106 26.8612 123.878 26.3109 123.877 25.737V2.16479C123.878 1.59085 124.106 1.0406 124.512 0.634767C124.918 0.22893 125.468 0.00064682 126.042 0H131.815C132.389 0.00064682 132.939 0.22893 133.345 0.634767C133.751 1.0406 133.979 1.59085 133.98 2.16479V25.737C133.979 26.3109 133.751 26.8612 133.345 27.267C132.939 27.6728 132.389 27.9011 131.815 27.9018Z" fill="#F2F2F2"/>
<path d="M133.739 4.57007H124.118V6.49433H133.739V4.57007Z" fill="#CCCCCC"/>
<path d="M133.739 19.4832H124.118V21.4074H133.739V19.4832Z" fill="#CCCCCC"/>
<path d="M146.247 27.9018H140.474C139.9 27.9011 139.35 27.6728 138.944 27.267C138.538 26.8612 138.31 26.3109 138.31 25.737V2.16479C138.31 1.59085 138.538 1.0406 138.944 0.634767C139.35 0.22893 139.9 0.00064682 140.474 0H146.247C146.821 0.00064682 147.371 0.22893 147.777 0.634767C148.183 1.0406 148.411 1.59085 148.412 2.16479V25.737C148.411 26.3109 148.183 26.8612 147.777 27.267C147.371 27.6728 146.821 27.9011 146.247 27.9018Z" fill="#F2F2F2"/>
<path d="M148.171 4.57007H138.55V6.49433H148.171V4.57007Z" fill="#CCCCCC"/>
<path d="M148.171 19.4832H138.55V21.4074H148.171V19.4832Z" fill="#CCCCCC"/>
<path d="M167.867 28.6233H30.763C30.6355 28.6233 30.5131 28.5726 30.4229 28.4824C30.3327 28.3921 30.282 28.2698 30.282 28.1422C30.282 28.0146 30.3327 27.8922 30.4229 27.802C30.5131 27.7118 30.6355 27.6611 30.763 27.6611H167.867C167.994 27.6611 168.116 27.7118 168.207 27.802C168.297 27.8922 168.348 28.0146 168.348 28.1422C168.348 28.2698 168.297 28.3921 168.207 28.4824C168.116 28.5726 167.994 28.6233 167.867 28.6233Z" fill="#CCCCCC"/>
<path d="M167.867 67.5896H30.763C30.6355 67.5896 30.5131 67.5389 30.4229 67.4487C30.3327 67.3584 30.282 67.2361 30.282 67.1085C30.282 66.9809 30.3327 66.8586 30.4229 66.7683C30.5131 66.6781 30.6355 66.6274 30.763 66.6274H167.867C167.994 66.6274 168.116 66.6781 168.207 66.7683C168.297 66.8586 168.348 66.9809 168.348 67.1085C168.348 67.2361 168.297 67.3584 168.207 67.4487C168.116 67.5389 167.994 67.5896 167.867 67.5896Z" fill="#CCCCCC"/>
<path d="M167.867 106.556H30.763C30.6355 106.556 30.5131 106.505 30.4229 106.415C30.3327 106.325 30.282 106.202 30.282 106.075C30.282 105.947 30.3327 105.825 30.4229 105.735C30.5131 105.644 30.6355 105.594 30.763 105.594H167.867C167.994 105.594 168.116 105.644 168.207 105.735C168.297 105.825 168.348 105.947 168.348 106.075C168.348 106.202 168.297 106.325 168.207 106.415C168.116 106.505 167.994 106.556 167.867 106.556Z" fill="#CCCCCC"/>
<path d="M159.747 182.075C159.747 178.355 145.747 175.34 128.478 175.34C111.208 175.34 97.2087 178.355 97.2087 182.075C97.2087 184.458 102.964 186.551 111.641 187.748V224.649C111.641 225.478 111.97 226.273 112.557 226.86C113.143 227.446 113.938 227.776 114.768 227.776C115.597 227.776 116.392 227.446 116.979 226.86C117.565 226.273 117.895 225.478 117.895 224.649V188.413C121.2 188.669 124.763 188.809 128.478 188.809C132.193 188.809 135.755 188.669 139.061 188.413V224.649C139.061 225.478 139.391 226.273 139.977 226.86C140.564 227.446 141.359 227.776 142.188 227.776C143.018 227.776 143.813 227.446 144.399 226.86C144.986 226.273 145.315 225.478 145.315 224.649V187.748C153.992 186.551 159.747 184.458 159.747 182.075Z" fill="#CCCCCC"/>
<path d="M153.73 221.726H159.628L162.434 198.977H153.729L153.73 221.726Z" fill="#A0616A"/>
<path d="M171.003 227.201L152.467 227.202L152.467 220.041L163.841 220.04C165.74 220.04 167.562 220.795 168.905 222.138C170.248 223.481 171.003 225.302 171.003 227.201Z" fill="#2F2E41"/>
<path d="M162.937 218.434L168.564 216.668L164.431 194.123L156.126 196.729L162.937 218.434Z" fill="#A0616A"/>
<path d="M181.056 218.488L163.371 224.038L161.227 217.205L172.079 213.799C173.891 213.23 175.855 213.405 177.539 214.284C179.222 215.163 180.488 216.676 181.056 218.488Z" fill="#2F2E41"/>
<path d="M158.991 207.964L148.203 179.643C145.782 180.211 125.483 184.703 118.685 177.465C116.355 174.984 115.901 171.389 117.334 166.781L121.302 161.795L121.425 161.802C122.925 161.881 158.196 163.858 160.613 174.496C162.652 183.466 166.375 200.188 167.467 205.099C167.578 205.608 167.502 206.14 167.254 206.598C167.005 207.056 166.601 207.409 166.113 207.593L161.775 209.22C161.533 209.311 161.277 209.358 161.018 209.358C160.579 209.358 160.15 209.224 159.788 208.975C159.427 208.727 159.149 208.374 158.991 207.964Z" fill="#2F2E41"/>
<path d="M152.738 211.331L141.949 183.01C139.528 183.579 119.23 188.07 112.431 180.832C110.101 178.351 109.647 174.757 111.08 170.148L115.048 165.163L115.171 165.169C116.671 165.248 151.942 167.225 154.359 177.864C156.398 186.833 160.121 203.555 161.213 208.467C161.324 208.976 161.248 209.508 161 209.965C160.751 210.423 160.347 210.776 159.86 210.961L155.521 212.587C155.279 212.678 155.023 212.725 154.764 212.725C154.325 212.725 153.896 212.592 153.535 212.343C153.173 212.094 152.895 211.741 152.738 211.331Z" fill="#2F2E41"/>
<path d="M167.318 143.442C167.158 143.655 167.016 143.881 166.892 144.116L143.166 146.616L139.75 141.933L132.01 146.164L138.718 157.528L167.816 150.108C168.55 150.824 169.485 151.299 170.496 151.471C171.507 151.643 172.546 151.502 173.475 151.069C174.404 150.636 175.18 149.93 175.698 149.045C176.216 148.16 176.453 147.139 176.376 146.116C176.3 145.094 175.914 144.119 175.27 143.321C174.626 142.524 173.754 141.941 172.771 141.65C171.787 141.36 170.739 141.376 169.765 141.696C168.791 142.016 167.937 142.625 167.318 143.442Z" fill="#A0616A"/>
<path d="M110.928 171.644C110.603 171.41 110.349 171.091 110.195 170.721C110.041 170.352 109.991 169.947 110.053 169.552C111.391 160.728 109.851 148.087 108.324 139.037C108.011 137.2 108.133 135.316 108.679 133.536C109.225 131.755 110.181 130.127 111.47 128.782C112.759 127.437 114.344 126.412 116.1 125.79C117.856 125.168 119.733 124.966 121.581 125.201C123.189 125.413 124.782 125.727 126.35 126.141C128.955 126.797 131.259 128.319 132.884 130.458C134.508 132.598 135.357 135.226 135.289 137.911C135.061 146.645 136.834 157.541 137.607 161.821C137.66 162.115 137.652 162.416 137.583 162.707C137.514 162.997 137.385 163.271 137.206 163.51C137.03 163.746 136.807 163.943 136.551 164.088C136.294 164.233 136.01 164.323 135.717 164.351C127.15 165.226 117.912 169.404 113.167 171.816C112.862 171.973 112.524 172.056 112.181 172.057C111.73 172.055 111.291 171.911 110.928 171.644Z" fill="#FF9228"/>
<path d="M134.053 148.884C133.788 148.78 133.547 148.624 133.342 148.426C133.138 148.228 132.975 147.992 132.863 147.731L128.085 136.694C127.796 136.027 127.641 135.31 127.629 134.583C127.617 133.856 127.748 133.134 128.016 132.458C128.283 131.782 128.681 131.165 129.186 130.643C129.692 130.121 130.296 129.704 130.963 129.415C131.63 129.126 132.347 128.972 133.074 128.961C133.801 128.949 134.523 129.081 135.199 129.349C135.874 129.617 136.491 130.015 137.012 130.521C137.534 131.028 137.951 131.632 138.239 132.299L143.017 143.336C143.244 143.863 143.253 144.458 143.042 144.992C142.831 145.525 142.417 145.953 141.89 146.182L135.71 148.858C135.449 148.971 135.168 149.032 134.884 149.037C134.599 149.041 134.317 148.989 134.053 148.884Z" fill="#FF9228"/>
<path d="M144.708 142.48C144.548 142.693 144.406 142.919 144.282 143.154L120.556 145.654L117.14 140.971L109.4 145.202L116.108 156.565L145.206 149.146C145.94 149.862 146.875 150.337 147.886 150.509C148.897 150.68 149.936 150.54 150.865 150.107C151.794 149.673 152.569 148.968 153.088 148.083C153.606 147.198 153.842 146.177 153.766 145.154C153.69 144.132 153.304 143.157 152.66 142.359C152.015 141.561 151.144 140.979 150.16 140.688C149.177 140.398 148.129 140.414 147.155 140.734C146.181 141.054 145.327 141.663 144.708 142.48Z" fill="#A0616A"/>
<path d="M111.443 149.365C111.178 149.261 110.937 149.106 110.732 148.908C110.528 148.71 110.365 148.473 110.253 148.212L105.475 137.175C105.186 136.508 105.031 135.791 105.019 135.064C105.007 134.337 105.139 133.615 105.406 132.939C105.673 132.263 106.071 131.647 106.577 131.125C107.082 130.602 107.686 130.185 108.353 129.896C109.02 129.608 109.737 129.453 110.464 129.442C111.191 129.431 111.913 129.563 112.589 129.83C113.264 130.098 113.881 130.497 114.402 131.003C114.924 131.509 115.341 132.113 115.629 132.78L120.407 143.817C120.634 144.344 120.643 144.939 120.432 145.473C120.221 146.007 119.807 146.435 119.28 146.663L113.1 149.339C112.839 149.453 112.558 149.513 112.274 149.518C111.99 149.522 111.707 149.471 111.443 149.365Z" fill="#FF9228"/>
<path d="M120.702 121.446C127.228 121.446 132.518 116.156 132.518 109.63C132.518 103.105 127.228 97.8149 120.702 97.8149C114.177 97.8149 108.887 103.105 108.887 109.63C108.887 116.156 114.177 121.446 120.702 121.446Z" fill="#A0616A"/>
<path d="M112.255 117.739C112.204 117.591 112.188 117.433 112.207 117.278C112.227 117.122 112.282 116.973 112.369 116.842C112.455 116.712 112.57 116.602 112.705 116.523C112.84 116.443 112.991 116.395 113.148 116.383C113.468 116.401 113.781 116.483 114.068 116.625C114.356 116.766 114.611 116.965 114.82 117.208C115.247 117.701 115.745 118.129 116.297 118.477C116.869 118.765 117.644 118.724 117.97 118.175C118.276 117.659 118.066 116.968 117.881 116.369C117.41 114.845 117.146 113.264 117.097 111.669C117.043 109.889 117.295 108.031 118.28 106.643C119.552 104.851 121.826 104.171 123.978 104.22C126.131 104.269 128.248 104.934 130.38 105.354C131.116 105.499 131.981 105.573 132.473 105.002C132.997 104.396 132.805 103.414 132.582 102.595C132.004 100.47 131.391 98.2732 130.049 96.5569C128.598 94.7735 126.525 93.6064 124.247 93.2904C122.061 93.0196 119.841 93.2716 117.771 94.0257C114.398 95.0887 111.43 97.1562 109.264 99.9517C107.031 102.925 106.067 106.661 106.581 110.343C107.083 113.55 108.782 116.447 111.336 118.451L112.255 117.739Z" fill="#2F2E41"/>
<path d="M67.1402 146.184C67.7346 139.783 69.3761 133.524 71.9993 127.655C72.7303 126.022 73.535 124.424 74.4133 122.863C74.4573 122.781 74.4679 122.686 74.4429 122.597C74.4178 122.507 74.359 122.431 74.2789 122.384C74.1988 122.338 74.1037 122.324 74.0136 122.346C73.9234 122.368 73.8454 122.424 73.7958 122.502C70.6019 128.189 68.3644 134.362 67.1726 140.774C66.8411 142.565 66.592 144.368 66.4252 146.184C66.3828 146.642 67.0981 146.639 67.1402 146.184Z" fill="#3F3D56"/>
<path d="M76.1454 124.01C78.6467 124.01 80.6743 121.982 80.6743 119.481C80.6743 116.98 78.6467 114.952 76.1454 114.952C73.6441 114.952 71.6165 116.98 71.6165 119.481C71.6165 121.982 73.6441 124.01 76.1454 124.01Z" fill="#FF9228"/>
<path d="M67.6035 146.305C67.9891 142.152 69.054 138.091 70.7558 134.284C71.2301 133.224 71.7521 132.188 72.3219 131.175C72.3505 131.122 72.3573 131.06 72.3411 131.002C72.3248 130.944 72.2867 130.895 72.2347 130.864C72.1828 130.834 72.121 130.825 72.0626 130.839C72.0041 130.854 71.9534 130.89 71.9213 130.941C69.8493 134.63 68.3976 138.635 67.6245 142.795C67.4094 143.957 67.2478 145.126 67.1396 146.305C67.1121 146.602 67.5762 146.6 67.6035 146.305Z" fill="#3F3D56"/>
<path d="M73.4455 131.919C75.0681 131.919 76.3836 130.604 76.3836 128.981C76.3836 127.358 75.0681 126.043 73.4455 126.043C71.8228 126.043 70.5073 127.358 70.5073 128.981C70.5073 130.604 71.8228 131.919 73.4455 131.919Z" fill="#FF9228"/>
<path d="M67.0181 146.027C64.7681 142.516 63.11 138.659 62.1101 134.61C61.8324 133.483 61.6066 132.345 61.4329 131.196C61.4229 131.136 61.3902 131.083 61.3417 131.048C61.2932 131.012 61.2328 130.996 61.1732 131.005C61.1135 131.013 61.0593 131.043 61.022 131.091C60.9846 131.138 60.9671 131.198 60.9731 131.258C61.6084 135.441 62.9269 139.491 64.876 143.247C65.4209 144.295 66.013 145.317 66.6523 146.312C66.8134 146.564 67.1782 146.277 67.0181 146.027Z" fill="#3F3D56"/>
<path d="M60.9694 131.713C62.5921 131.713 63.9075 130.397 63.9075 128.775C63.9075 127.152 62.5921 125.837 60.9694 125.837C59.3467 125.837 58.0312 127.152 58.0312 128.775C58.0312 130.397 59.3467 131.713 60.9694 131.713Z" fill="#FF9228"/>
<path d="M57.9983 148.627V142.854C57.9989 142.28 58.2272 141.73 58.6331 141.324C59.0389 140.918 59.5891 140.69 60.1631 140.689H73.6329C74.2068 140.69 74.7571 140.918 75.1629 141.324C75.5688 141.73 75.797 142.28 75.7977 142.854V148.627C75.797 149.201 75.5688 149.751 75.1629 150.157C74.7571 150.563 74.2068 150.791 73.6329 150.792H60.1631C59.5891 150.791 59.0389 150.563 58.6331 150.157C58.2272 149.751 57.9989 149.201 57.9983 148.627Z" fill="#CCCCCC"/>
<path d="M178.749 146.957H140.745C139.815 146.957 139.062 147.711 139.062 148.641C139.062 149.57 139.815 150.324 140.745 150.324H178.749C179.679 150.324 180.433 149.57 180.433 148.641C180.433 147.711 179.679 146.957 178.749 146.957Z" fill="#CCCCCC"/>
<path d="M204.246 150.324H161.431C160.602 150.323 159.807 149.994 159.221 149.407C158.635 148.821 158.305 148.026 158.304 147.197V123.625C158.305 122.796 158.635 122.001 159.221 121.415C159.807 120.829 160.602 120.499 161.431 120.498H204.246C205.075 120.499 205.869 120.829 206.456 121.415C207.042 122.001 207.372 122.796 207.373 123.625V147.197C207.372 148.026 207.042 148.821 206.456 149.407C205.869 149.994 205.075 150.323 204.246 150.324Z" fill="#CCCCCC"/>
<path d="M182.838 138.298C184.432 138.298 185.725 137.005 185.725 135.411C185.725 133.817 184.432 132.525 182.838 132.525C181.244 132.525 179.952 133.817 179.952 135.411C179.952 137.005 181.244 138.298 182.838 138.298Z" fill="white"/>
<path d="M313.207 182.075C313.207 178.355 299.207 175.34 281.938 175.34C264.668 175.34 250.668 178.355 250.668 182.075C250.668 184.458 256.424 186.551 265.1 187.748V224.649C265.1 225.478 265.43 226.273 266.016 226.86C266.603 227.446 267.398 227.776 268.227 227.776C269.057 227.776 269.852 227.446 270.438 226.86C271.025 226.273 271.354 225.478 271.354 224.649V188.413C274.66 188.669 278.222 188.809 281.938 188.809C285.653 188.809 289.215 188.669 292.521 188.413V224.649C292.521 225.478 292.851 226.273 293.437 226.86C294.023 227.446 294.819 227.776 295.648 227.776C296.477 227.776 297.273 227.446 297.859 226.86C298.445 226.273 298.775 225.478 298.775 224.649V187.748C307.451 186.551 313.207 184.458 313.207 182.075Z" fill="#CCCCCC"/>
<path d="M285.395 120.43C292.835 120.43 298.865 114.399 298.865 106.96C298.865 99.5206 292.835 93.49 285.395 93.49C277.956 93.49 271.926 99.5206 271.926 106.96C271.926 114.399 277.956 120.43 285.395 120.43Z" fill="#2F2E41"/>
<path d="M251.875 222.207H245.977L243.171 199.458H251.876L251.875 222.207Z" fill="#FFB8B8"/>
<path d="M241.764 220.521H253.138V227.683H234.603C234.603 226.743 234.788 225.811 235.148 224.942C235.508 224.074 236.035 223.284 236.7 222.619C237.365 221.954 238.155 221.427 239.023 221.067C239.892 220.707 240.824 220.521 241.764 220.521Z" fill="#2F2E41"/>
<path d="M242.668 218.915L237.041 217.149L241.174 194.604L249.479 197.21L242.668 218.915Z" fill="#FFB8B8"/>
<path d="M233.526 214.28L244.378 217.686L242.234 224.519L224.549 218.969C224.83 218.071 225.286 217.238 225.89 216.517C226.493 215.796 227.233 215.2 228.066 214.765C228.9 214.33 229.811 214.063 230.748 213.98C231.685 213.896 232.629 213.998 233.526 214.28Z" fill="#2F2E41"/>
<path d="M244.587 209.839C244.328 209.839 244.072 209.792 243.83 209.701L239.492 208.074C239.004 207.89 238.6 207.536 238.351 207.079C238.103 206.621 238.027 206.089 238.138 205.58C239.23 200.669 242.953 183.947 244.992 174.977C247.409 164.339 282.68 162.362 284.18 162.283L284.303 162.276L288.271 167.262C289.704 171.87 289.25 175.465 286.92 177.945C280.122 185.184 259.823 180.692 257.403 180.124L246.614 208.445C246.456 208.855 246.178 209.208 245.817 209.456C245.455 209.705 245.026 209.839 244.587 209.839Z" fill="#2F2E41"/>
<path d="M250.841 213.206C250.582 213.206 250.326 213.159 250.084 213.068L245.745 211.441C245.258 211.257 244.854 210.904 244.605 210.446C244.357 209.989 244.281 209.457 244.392 208.948C245.484 204.036 249.207 187.314 251.246 178.345C253.663 167.706 288.934 165.729 290.434 165.65L290.557 165.644L294.525 170.629C295.958 175.238 295.504 178.832 293.174 181.313C286.375 188.551 266.077 184.06 263.656 183.491L252.867 211.812C252.71 212.222 252.432 212.575 252.07 212.824C251.709 213.073 251.28 213.206 250.841 213.206Z" fill="#2F2E41"/>
<path d="M238.287 143.923C238.447 144.136 238.589 144.362 238.713 144.597L262.439 147.097L265.855 142.414L273.595 146.645L266.887 158.009L237.789 150.589C237.055 151.305 236.12 151.78 235.109 151.952C234.098 152.124 233.059 151.983 232.13 151.55C231.201 151.117 230.425 150.411 229.907 149.526C229.389 148.641 229.152 147.62 229.229 146.597C229.305 145.575 229.691 144.6 230.335 143.802C230.979 143.005 231.851 142.422 232.834 142.131C233.818 141.841 234.866 141.857 235.84 142.177C236.814 142.497 237.668 143.106 238.287 143.923Z" fill="#FFB8B8"/>
<path d="M293.424 172.538C293.081 172.537 292.743 172.454 292.438 172.297C287.693 169.884 278.455 165.707 269.888 164.832C269.595 164.804 269.311 164.714 269.054 164.569C268.798 164.424 268.575 164.227 268.399 163.99C268.22 163.752 268.091 163.478 268.022 163.188C267.953 162.897 267.945 162.596 267.998 162.302C268.771 158.022 270.544 147.125 270.316 138.392C270.248 135.707 271.097 133.079 272.721 130.939C274.346 128.8 276.65 127.277 279.255 126.622C280.823 126.208 282.416 125.894 284.024 125.681C285.872 125.447 287.749 125.649 289.505 126.271C291.261 126.893 292.846 127.918 294.135 129.263C295.424 130.608 296.38 132.236 296.926 134.017C297.472 135.797 297.594 137.681 297.281 139.518C295.754 148.568 294.214 161.209 295.552 170.033C295.614 170.428 295.564 170.833 295.41 171.202C295.256 171.572 295.002 171.891 294.677 172.125C294.314 172.392 293.875 172.536 293.424 172.538Z" fill="#FF9228"/>
<path d="M270.755 149.518C270.459 149.518 270.166 149.457 269.895 149.339L263.715 146.663C263.188 146.435 262.774 146.007 262.563 145.473C262.352 144.939 262.361 144.344 262.588 143.817L267.366 132.78C267.654 132.113 268.071 131.509 268.592 131.003C269.114 130.497 269.73 130.098 270.406 129.83C271.082 129.563 271.804 129.431 272.531 129.442C273.257 129.453 273.975 129.608 274.642 129.896C275.309 130.185 275.913 130.602 276.418 131.125C276.924 131.647 277.322 132.263 277.589 132.939C277.856 133.615 277.988 134.337 277.976 135.064C277.964 135.791 277.809 136.508 277.52 137.175L272.742 148.212C272.574 148.599 272.296 148.929 271.943 149.161C271.59 149.394 271.177 149.518 270.755 149.518Z" fill="#FF9228"/>
<path d="M284.903 121.927C291.428 121.927 296.718 116.637 296.718 110.111C296.718 103.586 291.428 98.2959 284.903 98.2959C278.377 98.2959 273.087 103.586 273.087 110.111C273.087 116.637 278.377 121.927 284.903 121.927Z" fill="#FFB8B8"/>
<path d="M272.875 104.306C278.471 107.723 284.781 109.802 291.312 110.381L289.369 108.053C290.784 108.576 292.273 108.872 293.78 108.929C295.286 108.905 296.864 108.326 297.719 107.085C298.1 106.469 298.326 105.77 298.379 105.047C298.431 104.324 298.308 103.599 298.019 102.934C297.427 101.608 296.505 100.455 295.342 99.5857C293.279 97.9541 290.845 96.8581 288.256 96.3954C285.667 95.9327 283.004 96.1177 280.503 96.9339C278.788 97.4464 277.253 98.4316 276.072 99.7767C274.952 101.159 272.795 102.39 273.369 104.073L272.875 104.306Z" fill="#2F2E41"/>
<path d="M286.89 94.7711C283.163 90.9921 278.653 88.0759 273.678 86.2278C270.484 85.0447 267.008 84.3137 263.67 84.9856C260.331 85.6575 257.173 87.9672 256.242 91.2432C255.48 93.9219 256.267 96.8061 257.449 99.3277C258.631 101.849 260.209 104.188 261.165 106.803C262.14 109.472 262.433 112.343 262.018 115.154C261.603 117.965 260.492 120.628 258.786 122.9C257.081 125.173 254.835 126.984 252.252 128.169C249.669 129.353 246.831 129.874 243.996 129.684C247.276 130.124 250.3 131.665 253.507 132.486C256.713 133.307 260.498 133.251 262.881 130.954C265.402 128.523 265.453 124.571 265.331 121.071L264.787 105.463C264.695 102.81 264.616 100.072 265.573 97.5953C266.53 95.1188 268.804 92.9503 271.458 92.9728C273.471 92.9899 275.251 94.2088 276.865 95.4108C278.479 96.6129 280.186 97.8954 282.191 98.0742C284.195 98.253 286.483 96.7698 286.333 94.7633" fill="#2F2E41"/>
<path d="M231.968 135.221L259.174 135.863L263.115 164.947L237.99 165.51L231.968 135.221Z" fill="#E6E6E6"/>
<path d="M260.897 142.961C261.057 143.174 261.199 143.4 261.323 143.635L285.049 146.135L288.465 141.452L296.205 145.683L289.497 157.046L260.399 149.627C259.665 150.343 258.73 150.818 257.719 150.99C256.708 151.161 255.669 151.021 254.74 150.588C253.811 150.154 253.036 149.449 252.517 148.564C251.999 147.679 251.763 146.658 251.839 145.635C251.915 144.613 252.301 143.638 252.945 142.84C253.59 142.042 254.461 141.46 255.445 141.169C256.428 140.879 257.476 140.895 258.45 141.215C259.424 141.535 260.278 142.144 260.897 142.961Z" fill="#FFB8B8"/>
<path d="M293.365 149.999C293.069 149.999 292.777 149.938 292.506 149.82L286.325 147.144C285.799 146.916 285.384 146.488 285.173 145.954C284.962 145.42 284.971 144.825 285.198 144.298L289.976 133.261C290.264 132.594 290.681 131.99 291.203 131.484C291.724 130.977 292.341 130.579 293.017 130.311C293.692 130.043 294.414 129.911 295.141 129.923C295.868 129.934 296.585 130.089 297.252 130.377C297.919 130.666 298.523 131.083 299.029 131.605C299.534 132.128 299.932 132.744 300.199 133.42C300.467 134.096 300.598 134.818 300.586 135.545C300.574 136.272 300.419 136.989 300.13 137.656L295.352 148.693C295.184 149.08 294.907 149.41 294.554 149.642C294.201 149.874 293.787 149.998 293.365 149.999Z" fill="#FF9228"/>
<path d="M237.439 149.843H45.9753C45.146 149.843 44.3507 150.173 43.7642 150.759C43.1778 151.346 42.8484 152.141 42.8484 152.97C42.8484 153.799 43.1778 154.595 43.7642 155.181C44.3507 155.768 45.146 156.097 45.9753 156.097H51.5076V224.168C51.5076 224.997 51.837 225.792 52.4234 226.379C53.0098 226.965 53.8052 227.295 54.6345 227.295C55.4638 227.295 56.2591 226.965 56.8455 226.379C57.432 225.792 57.7614 224.997 57.7614 224.168V162.106L92.8171 225.644C93.2327 226.36 93.9155 226.882 94.7157 227.096C95.5159 227.31 96.3682 227.197 97.0854 226.783C97.8027 226.369 98.3264 225.687 98.5415 224.887C98.7567 224.087 98.6458 223.235 98.2331 222.517L61.5876 156.097H229.02V156.138L192.398 222.517C191.983 223.235 191.871 224.088 192.085 224.889C192.3 225.69 192.824 226.373 193.542 226.788C194.26 227.203 195.114 227.315 195.915 227.1C196.716 226.886 197.399 226.362 197.813 225.644L229.02 169.081V224.168C229.02 224.997 229.35 225.792 229.936 226.379C230.523 226.965 231.318 227.295 232.147 227.295C232.977 227.295 233.772 226.965 234.358 226.379C234.945 225.792 235.274 224.997 235.274 224.168V157.746L236.184 156.097H237.439C238.268 156.097 239.064 155.768 239.65 155.181C240.237 154.595 240.566 153.799 240.566 152.97C240.566 152.141 240.237 151.346 239.65 150.759C239.064 150.173 238.268 149.843 237.439 149.843Z" fill="#3F3D56"/>
<path d="M355.74 228H0.572849C0.421221 228 0.275957 227.939 0.168895 227.832C0.0618336 227.724 0.00170898 227.579 0.00170898 227.427C0.00170898 227.276 0.0618336 227.13 0.168895 227.023C0.275957 226.915 0.421221 226.855 0.572849 226.854H355.74C355.892 226.854 356.038 226.915 356.145 227.022C356.253 227.13 356.313 227.275 356.313 227.427C356.313 227.579 356.253 227.725 356.145 227.832C356.038 227.94 355.892 228 355.74 228Z" fill="#3F3D56"/>
<path d="M200.169 44.745L204.355 32.9H206.54L200.215 49.805L195.385 37.293L190.555 49.805L184.23 32.9H186.415L190.693 44.745L195.385 32.095L200.169 44.745ZM210.753 49.23C209.771 49.23 208.897 49 208.131 48.54C207.379 48.0647 206.789 47.413 206.36 46.585C205.946 45.757 205.739 44.7987 205.739 43.71C205.739 42.606 205.953 41.64 206.383 40.812C206.827 39.984 207.441 39.34 208.223 38.88C209.02 38.42 209.94 38.19 210.983 38.19C212.025 38.19 212.915 38.4123 213.651 38.857C214.402 39.2863 214.977 39.9073 215.376 40.72C215.774 41.5327 215.974 42.4987 215.974 43.618C215.974 43.7253 215.966 43.8403 215.951 43.963C215.951 44.0703 215.951 44.1393 215.951 44.17H206.912V42.606H214.502L213.766 43.664C213.812 43.5873 213.858 43.4723 213.904 43.319C213.95 43.1503 213.973 43.0123 213.973 42.905C213.973 42.2763 213.842 41.732 213.582 41.272C213.336 40.812 212.991 40.4517 212.547 40.191C212.102 39.9303 211.581 39.8 210.983 39.8C210.277 39.8 209.672 39.9533 209.166 40.26C208.675 40.5513 208.292 40.9807 208.016 41.548C207.755 42.1 207.617 42.7823 207.602 43.595C207.602 44.423 207.732 45.1283 207.993 45.711C208.253 46.2937 208.637 46.7383 209.143 47.045C209.649 47.3517 210.262 47.505 210.983 47.505C211.703 47.505 212.34 47.3517 212.892 47.045C213.444 46.723 213.911 46.24 214.295 45.596L215.79 46.539C215.238 47.4283 214.54 48.103 213.697 48.563C212.869 49.0077 211.887 49.23 210.753 49.23ZM226.219 45.734C226.219 46.1327 226.311 46.4777 226.495 46.769C226.694 47.0603 226.963 47.2827 227.3 47.436C227.653 47.574 228.051 47.643 228.496 47.643C229.063 47.643 229.569 47.528 230.014 47.298C230.474 47.068 230.834 46.746 231.095 46.332C231.371 45.9027 231.509 45.412 231.509 44.86L231.877 46.24C231.877 46.9147 231.67 47.4743 231.256 47.919C230.857 48.3637 230.359 48.6933 229.761 48.908C229.178 49.1227 228.596 49.23 228.013 49.23C227.369 49.23 226.763 49.0997 226.196 48.839C225.644 48.563 225.199 48.172 224.862 47.666C224.525 47.16 224.356 46.5467 224.356 45.826C224.356 44.7987 224.716 43.9783 225.437 43.365C226.173 42.7363 227.193 42.422 228.496 42.422C229.263 42.422 229.899 42.514 230.405 42.698C230.926 42.8667 231.34 43.066 231.647 43.296C231.954 43.5107 232.161 43.687 232.268 43.825V44.906C231.731 44.538 231.179 44.2773 230.612 44.124C230.045 43.9553 229.439 43.871 228.795 43.871C228.197 43.871 227.706 43.9477 227.323 44.101C226.955 44.2543 226.679 44.469 226.495 44.745C226.311 45.021 226.219 45.3507 226.219 45.734ZM225.943 40.858L225.046 39.501C225.445 39.2097 225.989 38.9183 226.679 38.627C227.384 38.3357 228.228 38.19 229.209 38.19C230.037 38.19 230.758 38.3203 231.371 38.581C232 38.8263 232.483 39.1867 232.82 39.662C233.173 40.1373 233.349 40.72 233.349 41.41V49H231.509V41.663C231.509 41.295 231.448 40.996 231.325 40.766C231.202 40.5207 231.026 40.329 230.796 40.191C230.581 40.053 230.328 39.9533 230.037 39.892C229.746 39.8307 229.439 39.8 229.117 39.8C228.596 39.8 228.12 39.8613 227.691 39.984C227.277 40.1067 226.924 40.2523 226.633 40.421C226.342 40.5897 226.112 40.7353 225.943 40.858ZM238.304 38.42V49H236.464V38.42H238.304ZM241.501 40.444C241.256 40.26 241.034 40.1297 240.834 40.053C240.635 39.961 240.382 39.915 240.075 39.915C239.615 39.915 239.255 40.03 238.994 40.26C238.734 40.49 238.55 40.8043 238.442 41.203C238.35 41.6017 238.304 42.054 238.304 42.56H237.476C237.476 41.7167 237.622 40.973 237.913 40.329C238.22 39.6697 238.611 39.1483 239.086 38.765C239.562 38.3817 240.045 38.19 240.535 38.19C240.919 38.19 241.271 38.2437 241.593 38.351C241.931 38.443 242.237 38.6347 242.513 38.926L241.501 40.444ZM248.105 49.23C247.124 49.23 246.25 49 245.483 48.54C244.732 48.0647 244.141 47.413 243.712 46.585C243.298 45.757 243.091 44.7987 243.091 43.71C243.091 42.606 243.306 41.64 243.735 40.812C244.18 39.984 244.793 39.34 245.575 38.88C246.372 38.42 247.292 38.19 248.335 38.19C249.378 38.19 250.267 38.4123 251.003 38.857C251.754 39.2863 252.329 39.9073 252.728 40.72C253.127 41.5327 253.326 42.4987 253.326 43.618C253.326 43.7253 253.318 43.8403 253.303 43.963C253.303 44.0703 253.303 44.1393 253.303 44.17H244.264V42.606H251.854L251.118 43.664C251.164 43.5873 251.21 43.4723 251.256 43.319C251.302 43.1503 251.325 43.0123 251.325 42.905C251.325 42.2763 251.195 41.732 250.934 41.272C250.689 40.812 250.344 40.4517 249.899 40.191C249.454 39.9303 248.933 39.8 248.335 39.8C247.63 39.8 247.024 39.9533 246.518 40.26C246.027 40.5513 245.644 40.9807 245.368 41.548C245.107 42.1 244.969 42.7823 244.954 43.595C244.954 44.423 245.084 45.1283 245.345 45.711C245.606 46.2937 245.989 46.7383 246.495 47.045C247.001 47.3517 247.614 47.505 248.335 47.505C249.056 47.505 249.692 47.3517 250.244 47.045C250.796 46.723 251.264 46.24 251.647 45.596L253.142 46.539C252.59 47.4283 251.892 48.103 251.049 48.563C250.221 49.0077 249.24 49.23 248.105 49.23ZM277.188 44.745L281.374 32.9H283.559L277.234 49.805L272.404 37.293L267.574 49.805L261.249 32.9H263.434L267.712 44.745L272.404 32.095L277.188 44.745ZM282.757 43.71C282.757 42.6367 282.995 41.686 283.47 40.858C283.961 40.03 284.62 39.3783 285.448 38.903C286.276 38.4277 287.204 38.19 288.231 38.19C289.274 38.19 290.201 38.4277 291.014 38.903C291.842 39.3783 292.494 40.03 292.969 40.858C293.46 41.686 293.705 42.6367 293.705 43.71C293.705 44.768 293.46 45.7187 292.969 46.562C292.494 47.39 291.842 48.0417 291.014 48.517C290.201 48.9923 289.274 49.23 288.231 49.23C287.204 49.23 286.276 48.9923 285.448 48.517C284.62 48.0417 283.961 47.39 283.47 46.562C282.995 45.7187 282.757 44.768 282.757 43.71ZM284.62 43.71C284.62 44.446 284.773 45.0977 285.08 45.665C285.402 46.2323 285.831 46.6847 286.368 47.022C286.92 47.344 287.541 47.505 288.231 47.505C288.921 47.505 289.534 47.344 290.071 47.022C290.623 46.6847 291.052 46.2323 291.359 45.665C291.681 45.0977 291.842 44.446 291.842 43.71C291.842 42.974 291.681 42.3223 291.359 41.755C291.052 41.1723 290.623 40.72 290.071 40.398C289.534 40.076 288.921 39.915 288.231 39.915C287.541 39.915 286.92 40.076 286.368 40.398C285.831 40.72 285.402 41.1723 285.08 41.755C284.773 42.3223 284.62 42.974 284.62 43.71ZM298.073 38.42V49H296.233V38.42H298.073ZM301.27 40.444C301.024 40.26 300.802 40.1297 300.603 40.053C300.403 39.961 300.15 39.915 299.844 39.915C299.384 39.915 299.023 40.03 298.763 40.26C298.502 40.49 298.318 40.8043 298.211 41.203C298.119 41.6017 298.073 42.054 298.073 42.56H297.245C297.245 41.7167 297.39 40.973 297.682 40.329C297.988 39.6697 298.379 39.1483 298.855 38.765C299.33 38.3817 299.813 38.19 300.304 38.19C300.687 38.19 301.04 38.2437 301.362 38.351C301.699 38.443 302.006 38.6347 302.282 38.926L301.27 40.444ZM304.002 31.06H305.842V49H304.002V31.06ZM309.752 38.42H312.052L307.452 42.79L312.512 49H310.212L305.152 42.79L309.752 38.42ZM314.246 34.05C314.246 33.6973 314.369 33.3983 314.614 33.153C314.875 32.9077 315.174 32.785 315.511 32.785C315.864 32.785 316.163 32.9077 316.408 33.153C316.654 33.3983 316.776 33.6973 316.776 34.05C316.776 34.3873 316.654 34.6863 316.408 34.947C316.163 35.1923 315.864 35.315 315.511 35.315C315.174 35.315 314.875 35.1923 314.614 34.947C314.369 34.6863 314.246 34.3873 314.246 34.05ZM314.591 38.42H316.431V49H314.591V38.42ZM327.006 42.56C327.006 41.686 326.814 41.0267 326.431 40.582C326.048 40.1373 325.488 39.915 324.752 39.915C324.215 39.915 323.74 40.03 323.326 40.26C322.927 40.4747 322.613 40.7813 322.383 41.18C322.168 41.5787 322.061 42.0387 322.061 42.56V49H320.221V38.42H322.061V40.076C322.414 39.432 322.851 38.9567 323.372 38.65C323.909 38.3433 324.522 38.19 325.212 38.19C326.331 38.19 327.213 38.5657 327.857 39.317C328.516 40.053 328.846 41.0573 328.846 42.33V49H327.006V42.56ZM331.592 49.69H333.455C333.455 50.196 333.593 50.6637 333.869 51.093C334.145 51.5377 334.536 51.8903 335.042 52.151C335.548 52.427 336.146 52.565 336.836 52.565C337.373 52.565 337.902 52.4347 338.423 52.174C338.944 51.9133 339.374 51.4993 339.711 50.932C340.064 50.38 340.24 49.6593 340.24 48.77V38.42H342.08V48.77C342.08 49.9813 341.827 50.9933 341.321 51.806C340.815 52.634 340.163 53.255 339.366 53.669C338.569 54.083 337.725 54.29 336.836 54.29C335.809 54.29 334.896 54.0983 334.099 53.715C333.317 53.3317 332.704 52.7873 332.259 52.082C331.814 51.392 331.592 50.5947 331.592 49.69ZM331.385 43.71C331.385 42.56 331.623 41.5787 332.098 40.766C332.573 39.938 333.21 39.3017 334.007 38.857C334.804 38.4123 335.678 38.19 336.629 38.19C337.518 38.19 338.293 38.4123 338.952 38.857C339.611 39.3017 340.125 39.938 340.493 40.766C340.876 41.5787 341.068 42.56 341.068 43.71C341.068 44.8447 340.876 45.826 340.493 46.654C340.125 47.482 339.611 48.1183 338.952 48.563C338.293 49.0077 337.518 49.23 336.629 49.23C335.678 49.23 334.804 49.0077 334.007 48.563C333.21 48.1183 332.573 47.482 332.098 46.654C331.623 45.826 331.385 44.8447 331.385 43.71ZM333.248 43.71C333.248 44.5227 333.409 45.2127 333.731 45.78C334.068 46.3473 334.513 46.7767 335.065 47.068C335.617 47.3593 336.215 47.505 336.859 47.505C337.396 47.505 337.925 47.3593 338.446 47.068C338.967 46.7767 339.397 46.3473 339.734 45.78C340.071 45.2127 340.24 44.5227 340.24 43.71C340.24 43.0967 340.14 42.56 339.941 42.1C339.742 41.6247 339.473 41.226 339.136 40.904C338.814 40.582 338.454 40.3367 338.055 40.168C337.656 39.9993 337.258 39.915 336.859 39.915C336.215 39.915 335.617 40.0607 335.065 40.352C334.513 40.6433 334.068 41.0727 333.731 41.64C333.409 42.2073 333.248 42.8973 333.248 43.71ZM345.997 32.9H348.297L347.837 44.4H346.457L345.997 32.9ZM345.882 48.08C345.882 47.7273 346.005 47.4283 346.25 47.183C346.511 46.9377 346.81 46.815 347.147 46.815C347.5 46.815 347.799 46.9377 348.044 47.183C348.29 47.4283 348.412 47.7273 348.412 48.08C348.412 48.4173 348.29 48.7163 348.044 48.977C347.799 49.2223 347.5 49.345 347.147 49.345C346.81 49.345 346.511 49.2223 346.25 48.977C346.005 48.7163 345.882 48.4173 345.882 48.08Z" fill="#5D5D5D"/>
<path d="M186.14 15.32V14.2H192.37V15.32H189.85V24H188.66V15.32H186.14ZM194.655 24.14C194.058 24.14 193.526 24 193.059 23.72C192.602 23.4307 192.243 23.034 191.981 22.53C191.729 22.026 191.603 21.4427 191.603 20.78C191.603 20.108 191.734 19.52 191.995 19.016C192.266 18.512 192.639 18.12 193.115 17.84C193.601 17.56 194.161 17.42 194.795 17.42C195.43 17.42 195.971 17.5553 196.419 17.826C196.877 18.0873 197.227 18.4653 197.469 18.96C197.712 19.4547 197.833 20.0427 197.833 20.724C197.833 20.7893 197.829 20.8593 197.819 20.934C197.819 20.9993 197.819 21.0413 197.819 21.06H192.317V20.108H196.937L196.489 20.752C196.517 20.7053 196.545 20.6353 196.573 20.542C196.601 20.4393 196.615 20.3553 196.615 20.29C196.615 19.9073 196.536 19.576 196.377 19.296C196.228 19.016 196.018 18.7967 195.747 18.638C195.477 18.4793 195.159 18.4 194.795 18.4C194.366 18.4 193.997 18.4933 193.689 18.68C193.391 18.8573 193.157 19.1187 192.989 19.464C192.831 19.8 192.747 20.2153 192.737 20.71C192.737 21.214 192.817 21.6433 192.975 21.998C193.134 22.3527 193.367 22.6233 193.675 22.81C193.983 22.9967 194.357 23.09 194.795 23.09C195.234 23.09 195.621 22.9967 195.957 22.81C196.293 22.614 196.578 22.32 196.811 21.928L197.721 22.502C197.385 23.0433 196.961 23.454 196.447 23.734C195.943 24.0047 195.346 24.14 194.655 24.14ZM199.872 22.012C199.872 22.2547 199.928 22.4647 200.04 22.642C200.162 22.8193 200.325 22.9547 200.53 23.048C200.745 23.132 200.988 23.174 201.258 23.174C201.604 23.174 201.912 23.104 202.182 22.964C202.462 22.824 202.682 22.628 202.84 22.376C203.008 22.1147 203.092 21.816 203.092 21.48L203.316 22.32C203.316 22.7307 203.19 23.0713 202.938 23.342C202.696 23.6127 202.392 23.8133 202.028 23.944C201.674 24.0747 201.319 24.14 200.964 24.14C200.572 24.14 200.204 24.0607 199.858 23.902C199.522 23.734 199.252 23.496 199.046 23.188C198.841 22.88 198.738 22.5067 198.738 22.068C198.738 21.4427 198.958 20.9433 199.396 20.57C199.844 20.1873 200.465 19.996 201.258 19.996C201.725 19.996 202.112 20.052 202.42 20.164C202.738 20.2667 202.99 20.388 203.176 20.528C203.363 20.6587 203.489 20.766 203.554 20.85V21.508C203.228 21.284 202.892 21.1253 202.546 21.032C202.201 20.9293 201.832 20.878 201.44 20.878C201.076 20.878 200.778 20.9247 200.544 21.018C200.32 21.1113 200.152 21.242 200.04 21.41C199.928 21.578 199.872 21.7787 199.872 22.012ZM199.704 19.044L199.158 18.218C199.401 18.0407 199.732 17.8633 200.152 17.686C200.582 17.5087 201.095 17.42 201.692 17.42C202.196 17.42 202.635 17.4993 203.008 17.658C203.391 17.8073 203.685 18.0267 203.89 18.316C204.105 18.6053 204.212 18.96 204.212 19.38V24H203.092V19.534C203.092 19.31 203.055 19.128 202.98 18.988C202.906 18.8387 202.798 18.722 202.658 18.638C202.528 18.554 202.374 18.4933 202.196 18.456C202.019 18.4187 201.832 18.4 201.636 18.4C201.319 18.4 201.03 18.4373 200.768 18.512C200.516 18.5867 200.302 18.6753 200.124 18.778C199.947 18.8807 199.807 18.9693 199.704 19.044ZM214.929 19.94V24H213.809V20.08C213.809 19.5293 213.706 19.1233 213.501 18.862C213.305 18.6007 212.997 18.47 212.577 18.47C212.269 18.47 212.003 18.5353 211.779 18.666C211.555 18.7873 211.382 18.9693 211.261 19.212C211.139 19.4547 211.079 19.744 211.079 20.08V24H209.959V20.08C209.959 19.5293 209.856 19.1233 209.651 18.862C209.455 18.6007 209.147 18.47 208.727 18.47C208.419 18.47 208.153 18.5353 207.929 18.666C207.705 18.7873 207.532 18.9693 207.411 19.212C207.289 19.4547 207.229 19.744 207.229 20.08V24H206.109V17.56H207.229V18.498C207.425 18.134 207.667 17.8633 207.957 17.686C208.255 17.5087 208.605 17.42 209.007 17.42C209.455 17.42 209.837 17.5273 210.155 17.742C210.481 17.9473 210.719 18.2413 210.869 18.624C211.093 18.2227 211.373 17.924 211.709 17.728C212.045 17.5227 212.427 17.42 212.857 17.42C213.295 17.42 213.669 17.518 213.977 17.714C214.285 17.91 214.518 18.1993 214.677 18.582C214.845 18.9553 214.929 19.408 214.929 19.94ZM222.658 17.378L221.93 24H220.74L221.93 13.71L225.85 20.808L229.77 13.71L230.96 24H229.77L229.042 17.378L225.85 23.09L222.658 17.378ZM233.068 22.012C233.068 22.2547 233.124 22.4647 233.236 22.642C233.357 22.8193 233.52 22.9547 233.726 23.048C233.94 23.132 234.183 23.174 234.454 23.174C234.799 23.174 235.107 23.104 235.378 22.964C235.658 22.824 235.877 22.628 236.036 22.376C236.204 22.1147 236.288 21.816 236.288 21.48L236.512 22.32C236.512 22.7307 236.386 23.0713 236.134 23.342C235.891 23.6127 235.588 23.8133 235.224 23.944C234.869 24.0747 234.514 24.14 234.16 24.14C233.768 24.14 233.399 24.0607 233.054 23.902C232.718 23.734 232.447 23.496 232.242 23.188C232.036 22.88 231.934 22.5067 231.934 22.068C231.934 21.4427 232.153 20.9433 232.592 20.57C233.04 20.1873 233.66 19.996 234.454 19.996C234.92 19.996 235.308 20.052 235.616 20.164C235.933 20.2667 236.185 20.388 236.372 20.528C236.558 20.6587 236.684 20.766 236.75 20.85V21.508C236.423 21.284 236.087 21.1253 235.742 21.032C235.396 20.9293 235.028 20.878 234.636 20.878C234.272 20.878 233.973 20.9247 233.74 21.018C233.516 21.1113 233.348 21.242 233.236 21.41C233.124 21.578 233.068 21.7787 233.068 22.012ZM232.9 19.044L232.354 18.218C232.596 18.0407 232.928 17.8633 233.348 17.686C233.777 17.5087 234.29 17.42 234.888 17.42C235.392 17.42 235.83 17.4993 236.204 17.658C236.586 17.8073 236.88 18.0267 237.086 18.316C237.3 18.6053 237.408 18.96 237.408 19.38V24H236.288V19.534C236.288 19.31 236.25 19.128 236.176 18.988C236.101 18.8387 235.994 18.722 235.854 18.638C235.723 18.554 235.569 18.4933 235.392 18.456C235.214 18.4187 235.028 18.4 234.832 18.4C234.514 18.4 234.225 18.4373 233.964 18.512C233.712 18.5867 233.497 18.6753 233.32 18.778C233.142 18.8807 233.002 18.9693 232.9 19.044ZM238.186 17.56H239.446L241.266 22.11L243.086 17.56H244.346L241.266 24.49L238.186 17.56ZM247.688 24.14C247.091 24.14 246.559 24 246.092 23.72C245.635 23.4307 245.276 23.034 245.014 22.53C244.762 22.026 244.636 21.4427 244.636 20.78C244.636 20.108 244.767 19.52 245.028 19.016C245.299 18.512 245.672 18.12 246.148 17.84C246.634 17.56 247.194 17.42 247.828 17.42C248.463 17.42 249.004 17.5553 249.452 17.826C249.91 18.0873 250.26 18.4653 250.502 18.96C250.745 19.4547 250.866 20.0427 250.866 20.724C250.866 20.7893 250.862 20.8593 250.852 20.934C250.852 20.9993 250.852 21.0413 250.852 21.06H245.35V20.108H249.97L249.522 20.752C249.55 20.7053 249.578 20.6353 249.606 20.542C249.634 20.4393 249.648 20.3553 249.648 20.29C249.648 19.9073 249.569 19.576 249.41 19.296C249.261 19.016 249.051 18.7967 248.78 18.638C248.51 18.4793 248.192 18.4 247.828 18.4C247.399 18.4 247.03 18.4933 246.722 18.68C246.424 18.8573 246.19 19.1187 246.022 19.464C245.864 19.8 245.78 20.2153 245.77 20.71C245.77 21.214 245.85 21.6433 246.008 21.998C246.167 22.3527 246.4 22.6233 246.708 22.81C247.016 22.9967 247.39 23.09 247.828 23.09C248.267 23.09 248.654 22.9967 248.99 22.81C249.326 22.614 249.611 22.32 249.844 21.928L250.754 22.502C250.418 23.0433 249.994 23.454 249.48 23.734C248.976 24.0047 248.379 24.14 247.688 24.14ZM253.522 17.56V24H252.402V17.56H253.522ZM255.468 18.792C255.318 18.68 255.183 18.6007 255.062 18.554C254.94 18.498 254.786 18.47 254.6 18.47C254.32 18.47 254.1 18.54 253.942 18.68C253.783 18.82 253.671 19.0113 253.606 19.254C253.55 19.4967 253.522 19.772 253.522 20.08H253.018C253.018 19.5667 253.106 19.114 253.284 18.722C253.47 18.3207 253.708 18.0033 253.998 17.77C254.287 17.5367 254.581 17.42 254.88 17.42C255.113 17.42 255.328 17.4527 255.524 17.518C255.729 17.574 255.916 17.6907 256.084 17.868L255.468 18.792ZM257.2 14.9C257.2 14.6853 257.275 14.5033 257.424 14.354C257.583 14.2047 257.765 14.13 257.97 14.13C258.185 14.13 258.367 14.2047 258.516 14.354C258.666 14.5033 258.74 14.6853 258.74 14.9C258.74 15.1053 258.666 15.2873 258.516 15.446C258.367 15.5953 258.185 15.67 257.97 15.67C257.765 15.67 257.583 15.5953 257.424 15.446C257.275 15.2873 257.2 15.1053 257.2 14.9ZM257.41 17.56H258.53V24H257.41V17.56ZM261.341 20.78C261.341 21.228 261.434 21.6247 261.621 21.97C261.817 22.3153 262.078 22.5907 262.405 22.796C262.741 22.992 263.119 23.09 263.539 23.09C263.884 23.09 264.206 23.0387 264.505 22.936C264.813 22.824 265.079 22.6793 265.303 22.502C265.527 22.3153 265.686 22.1193 265.779 21.914V23.314C265.555 23.5753 265.233 23.7807 264.813 23.93C264.402 24.07 263.978 24.14 263.539 24.14C262.914 24.14 262.349 23.9953 261.845 23.706C261.341 23.4167 260.94 23.02 260.641 22.516C260.352 22.0027 260.207 21.424 260.207 20.78C260.207 20.1267 260.352 19.548 260.641 19.044C260.94 18.54 261.341 18.1433 261.845 17.854C262.349 17.5647 262.914 17.42 263.539 17.42C263.978 17.42 264.402 17.4947 264.813 17.644C265.233 17.784 265.555 17.9847 265.779 18.246V19.646C265.686 19.4313 265.527 19.2353 265.303 19.058C265.079 18.8807 264.813 18.7407 264.505 18.638C264.206 18.526 263.884 18.47 263.539 18.47C263.119 18.47 262.741 18.568 262.405 18.764C262.078 18.96 261.817 19.2353 261.621 19.59C261.434 19.9353 261.341 20.332 261.341 20.78ZM267.453 13.08H268.573V24H267.453V13.08ZM270.953 17.56H272.353L269.553 20.22L272.633 24H271.233L268.153 20.22L270.953 17.56Z" fill="#5D5D5D"/>
</g>
<defs>
<clipPath id="clip0_504_359">
<rect width="356.313" height="228" fill="white"/>
</clipPath>
</defs>
</svg>
